<mxfile host="app.diagrams.net" modified="2023-05-29T11:32:33.275Z" agent="Mozilla/5.0 (Windows NT 10.0; Win64; x64) AppleWebKit/537.36 (KHTML, like Gecko) Chrome/113.0.0.0 Safari/537.36 Edg/113.0.1774.57" etag="pqnZob-8V59SDaLyo7zq" version="21.3.4" type="device" pages="7">
  <diagram id="6_4muh5UYBQWjwM6IO1Z" name="Coordinatore">
    <mxGraphModel dx="1813" dy="869" grid="1" gridSize="10" guides="1" tooltips="1" connect="1" arrows="1" fold="1" page="1" pageScale="1" pageWidth="827" pageHeight="1169" math="0" shadow="0">
      <root>
        <mxCell id="0" />
        <mxCell id="1" parent="0" />
        <mxCell id="06UDPPKo2HAQPKWo0zHQ-1" value="" style="whiteSpace=wrap;html=1;aspect=fixed;" parent="1" vertex="1">
          <mxGeometry x="70" y="90" width="80" height="80" as="geometry" />
        </mxCell>
        <mxCell id="06UDPPKo2HAQPKWo0zHQ-2" value="&lt;br&gt;&lt;span style=&quot;color: rgb(0, 0, 0); font-family: Helvetica; font-size: 48px; font-style: normal; font-variant-ligatures: normal; font-variant-caps: normal; font-weight: 400; letter-spacing: normal; orphans: 2; text-align: center; text-indent: 0px; text-transform: none; widows: 2; word-spacing: 0px; -webkit-text-stroke-width: 0px; background-color: rgb(251, 251, 251); text-decoration-thickness: initial; text-decoration-style: initial; text-decoration-color: initial; float: none; display: inline !important;&quot;&gt;S1&lt;/span&gt;" style="whiteSpace=wrap;html=1;aspect=fixed;" parent="1" vertex="1">
          <mxGeometry x="70" y="250" width="80" height="80" as="geometry" />
        </mxCell>
        <mxCell id="06UDPPKo2HAQPKWo0zHQ-3" value="&lt;br&gt;&lt;span style=&quot;color: rgb(0, 0, 0); font-family: Helvetica; font-size: 48px; font-style: normal; font-variant-ligatures: normal; font-variant-caps: normal; font-weight: 400; letter-spacing: normal; orphans: 2; text-align: center; text-indent: 0px; text-transform: none; widows: 2; word-spacing: 0px; -webkit-text-stroke-width: 0px; background-color: rgb(251, 251, 251); text-decoration-thickness: initial; text-decoration-style: initial; text-decoration-color: initial; float: none; display: inline !important;&quot;&gt;S2&lt;/span&gt;&lt;br&gt;" style="whiteSpace=wrap;html=1;aspect=fixed;" parent="1" vertex="1">
          <mxGeometry x="70" y="410" width="80" height="80" as="geometry" />
        </mxCell>
        <mxCell id="06UDPPKo2HAQPKWo0zHQ-4" value="&lt;font style=&quot;font-size: 48px;&quot;&gt;S0&lt;/font&gt;" style="whiteSpace=wrap;html=1;aspect=fixed;" parent="1" vertex="1">
          <mxGeometry x="75" y="95" width="70" height="70" as="geometry" />
        </mxCell>
        <mxCell id="06UDPPKo2HAQPKWo0zHQ-5" value="" style="endArrow=none;html=1;rounded=0;exitX=1;exitY=0.5;exitDx=0;exitDy=0;" parent="1" source="06UDPPKo2HAQPKWo0zHQ-1" edge="1">
          <mxGeometry width="50" height="50" relative="1" as="geometry">
            <mxPoint x="160" y="130" as="sourcePoint" />
            <mxPoint x="200" y="130" as="targetPoint" />
            <Array as="points">
              <mxPoint x="200" y="130" />
            </Array>
          </mxGeometry>
        </mxCell>
        <mxCell id="06UDPPKo2HAQPKWo0zHQ-6" value="&lt;br&gt;&lt;span style=&quot;font-size: 26px;&quot;&gt;H1=0 H2=0 H3=0 Ripristino =0 Emg=0 Enable=0&lt;/span&gt;" style="rounded=0;whiteSpace=wrap;html=1;align=left;" parent="1" vertex="1">
          <mxGeometry x="200" y="90" width="360" height="80" as="geometry" />
        </mxCell>
        <mxCell id="06UDPPKo2HAQPKWo0zHQ-7" value="" style="endArrow=none;html=1;rounded=0;exitX=1;exitY=0.5;exitDx=0;exitDy=0;" parent="1" edge="1">
          <mxGeometry width="50" height="50" relative="1" as="geometry">
            <mxPoint x="150" y="290" as="sourcePoint" />
            <mxPoint x="200" y="290" as="targetPoint" />
            <Array as="points">
              <mxPoint x="200" y="290" />
            </Array>
          </mxGeometry>
        </mxCell>
        <mxCell id="06UDPPKo2HAQPKWo0zHQ-8" value="&lt;br&gt;&lt;span style=&quot;color: rgb(0, 0, 0); font-family: Helvetica; font-size: 26px; font-style: normal; font-variant-ligatures: normal; font-variant-caps: normal; font-weight: 400; letter-spacing: normal; orphans: 2; text-align: left; text-indent: 0px; text-transform: none; widows: 2; word-spacing: 0px; -webkit-text-stroke-width: 0px; background-color: rgb(251, 251, 251); text-decoration-thickness: initial; text-decoration-style: initial; text-decoration-color: initial; float: none; display: inline !important;&quot;&gt;H1=1 Ripristino=1&lt;/span&gt;" style="rounded=0;whiteSpace=wrap;html=1;align=left;" parent="1" vertex="1">
          <mxGeometry x="200" y="250" width="340" height="80" as="geometry" />
        </mxCell>
        <mxCell id="06UDPPKo2HAQPKWo0zHQ-9" value="" style="endArrow=none;html=1;rounded=0;exitX=1;exitY=0.5;exitDx=0;exitDy=0;" parent="1" edge="1">
          <mxGeometry width="50" height="50" relative="1" as="geometry">
            <mxPoint x="150" y="450" as="sourcePoint" />
            <mxPoint x="200" y="450" as="targetPoint" />
            <Array as="points">
              <mxPoint x="200" y="450" />
            </Array>
          </mxGeometry>
        </mxCell>
        <mxCell id="06UDPPKo2HAQPKWo0zHQ-10" value="&lt;br&gt;&lt;span style=&quot;color: rgb(0, 0, 0); font-family: Helvetica; font-size: 26px; font-style: normal; font-variant-ligatures: normal; font-variant-caps: normal; font-weight: 400; letter-spacing: normal; orphans: 2; text-align: left; text-indent: 0px; text-transform: none; widows: 2; word-spacing: 0px; -webkit-text-stroke-width: 0px; background-color: rgb(251, 251, 251); text-decoration-thickness: initial; text-decoration-style: initial; text-decoration-color: initial; float: none; display: inline !important;&quot;&gt;Enable=1&amp;nbsp;&lt;/span&gt;" style="rounded=0;whiteSpace=wrap;html=1;align=left;" parent="1" vertex="1">
          <mxGeometry x="200" y="410" width="340" height="80" as="geometry" />
        </mxCell>
        <mxCell id="06UDPPKo2HAQPKWo0zHQ-11" value="&lt;span style=&quot;font-size: 36px;&quot;&gt;Start&lt;/span&gt;" style="text;html=1;strokeColor=none;fillColor=none;align=center;verticalAlign=middle;whiteSpace=wrap;rounded=0;" parent="1" vertex="1">
          <mxGeometry x="50" y="10" width="265" height="50" as="geometry" />
        </mxCell>
        <mxCell id="06UDPPKo2HAQPKWo0zHQ-12" value="" style="endArrow=none;html=1;rounded=0;entryX=0.5;entryY=1;entryDx=0;entryDy=0;exitX=0.5;exitY=0;exitDx=0;exitDy=0;" parent="1" source="06UDPPKo2HAQPKWo0zHQ-2" target="06UDPPKo2HAQPKWo0zHQ-1" edge="1">
          <mxGeometry width="50" height="50" relative="1" as="geometry">
            <mxPoint x="200" y="350" as="sourcePoint" />
            <mxPoint x="250" y="300" as="targetPoint" />
          </mxGeometry>
        </mxCell>
        <mxCell id="06UDPPKo2HAQPKWo0zHQ-13" value="" style="endArrow=none;html=1;rounded=0;exitX=1;exitY=0.5;exitDx=0;exitDy=0;" parent="1" edge="1">
          <mxGeometry width="50" height="50" relative="1" as="geometry">
            <mxPoint x="85" y="210" as="sourcePoint" />
            <mxPoint x="135" y="210" as="targetPoint" />
            <Array as="points">
              <mxPoint x="135" y="210" />
            </Array>
          </mxGeometry>
        </mxCell>
        <mxCell id="06UDPPKo2HAQPKWo0zHQ-14" value="&lt;span style=&quot;font-size: 26px;&quot;&gt;Start AND NOT Stop AND NOT Emg&lt;/span&gt;" style="text;whiteSpace=wrap;html=1;" parent="1" vertex="1">
          <mxGeometry x="145" y="190" width="515" height="50" as="geometry" />
        </mxCell>
        <mxCell id="06UDPPKo2HAQPKWo0zHQ-15" value="" style="endArrow=none;html=1;rounded=0;entryX=0.5;entryY=1;entryDx=0;entryDy=0;exitX=0.5;exitY=0;exitDx=0;exitDy=0;" parent="1" edge="1">
          <mxGeometry width="50" height="50" relative="1" as="geometry">
            <mxPoint x="110" y="410" as="sourcePoint" />
            <mxPoint x="110" y="330" as="targetPoint" />
          </mxGeometry>
        </mxCell>
        <mxCell id="06UDPPKo2HAQPKWo0zHQ-16" value="" style="endArrow=none;html=1;rounded=0;exitX=1;exitY=0.5;exitDx=0;exitDy=0;" parent="1" edge="1">
          <mxGeometry width="50" height="50" relative="1" as="geometry">
            <mxPoint x="85" y="370" as="sourcePoint" />
            <mxPoint x="135" y="370" as="targetPoint" />
            <Array as="points">
              <mxPoint x="135" y="370" />
            </Array>
          </mxGeometry>
        </mxCell>
        <mxCell id="06UDPPKo2HAQPKWo0zHQ-17" value="&lt;span style=&quot;font-size: 26px;&quot;&gt;Z1.libero AND ... AND Z6.libero&lt;/span&gt;" style="text;whiteSpace=wrap;html=1;" parent="1" vertex="1">
          <mxGeometry x="145" y="350" width="395" height="50" as="geometry" />
        </mxCell>
        <mxCell id="06UDPPKo2HAQPKWo0zHQ-18" value="" style="endArrow=none;html=1;rounded=0;exitX=1;exitY=0.5;exitDx=0;exitDy=0;" parent="1" edge="1">
          <mxGeometry width="50" height="50" relative="1" as="geometry">
            <mxPoint x="85" y="530" as="sourcePoint" />
            <mxPoint x="135" y="530" as="targetPoint" />
            <Array as="points">
              <mxPoint x="135" y="530" />
            </Array>
          </mxGeometry>
        </mxCell>
        <mxCell id="06UDPPKo2HAQPKWo0zHQ-19" value="&lt;span style=&quot;font-size: 26px;&quot;&gt;Stop&lt;/span&gt;" style="text;whiteSpace=wrap;html=1;" parent="1" vertex="1">
          <mxGeometry x="145" y="510" width="395" height="50" as="geometry" />
        </mxCell>
        <mxCell id="06UDPPKo2HAQPKWo0zHQ-20" value="" style="endArrow=classic;html=1;rounded=0;entryX=0;entryY=0.5;entryDx=0;entryDy=0;exitX=0.5;exitY=1;exitDx=0;exitDy=0;" parent="1" source="06UDPPKo2HAQPKWo0zHQ-3" target="06UDPPKo2HAQPKWo0zHQ-1" edge="1">
          <mxGeometry width="50" height="50" relative="1" as="geometry">
            <mxPoint x="110" y="560" as="sourcePoint" />
            <mxPoint x="20" y="130" as="targetPoint" />
            <Array as="points">
              <mxPoint x="110" y="560" />
              <mxPoint x="30" y="560" />
              <mxPoint x="30" y="130" />
            </Array>
          </mxGeometry>
        </mxCell>
        <mxCell id="06UDPPKo2HAQPKWo0zHQ-21" value="&lt;span style=&quot;font-size: 36px;&quot;&gt;Stop&lt;/span&gt;" style="text;html=1;strokeColor=none;fillColor=none;align=center;verticalAlign=middle;whiteSpace=wrap;rounded=0;" parent="1" vertex="1">
          <mxGeometry x="670" y="10" width="265" height="50" as="geometry" />
        </mxCell>
        <mxCell id="06UDPPKo2HAQPKWo0zHQ-36" value="&lt;font style=&quot;font-size: 36px;&quot;&gt;Emergenza&lt;/font&gt;" style="text;html=1;strokeColor=none;fillColor=none;align=center;verticalAlign=middle;whiteSpace=wrap;rounded=0;" parent="1" vertex="1">
          <mxGeometry x="1340" y="20" width="265" height="50" as="geometry" />
        </mxCell>
        <mxCell id="06UDPPKo2HAQPKWo0zHQ-53" value="" style="whiteSpace=wrap;html=1;aspect=fixed;" parent="1" vertex="1">
          <mxGeometry x="770" y="100" width="80" height="80" as="geometry" />
        </mxCell>
        <mxCell id="06UDPPKo2HAQPKWo0zHQ-54" value="&lt;br&gt;&lt;span style=&quot;color: rgb(0, 0, 0); font-family: Helvetica; font-size: 48px; font-style: normal; font-variant-ligatures: normal; font-variant-caps: normal; font-weight: 400; letter-spacing: normal; orphans: 2; text-align: center; text-indent: 0px; text-transform: none; widows: 2; word-spacing: 0px; -webkit-text-stroke-width: 0px; background-color: rgb(251, 251, 251); text-decoration-thickness: initial; text-decoration-style: initial; text-decoration-color: initial; float: none; display: inline !important;&quot;&gt;S1&lt;/span&gt;" style="whiteSpace=wrap;html=1;aspect=fixed;" parent="1" vertex="1">
          <mxGeometry x="770" y="260" width="80" height="80" as="geometry" />
        </mxCell>
        <mxCell id="06UDPPKo2HAQPKWo0zHQ-56" value="&lt;font style=&quot;font-size: 48px;&quot;&gt;S0&lt;/font&gt;" style="whiteSpace=wrap;html=1;aspect=fixed;" parent="1" vertex="1">
          <mxGeometry x="775" y="105" width="70" height="70" as="geometry" />
        </mxCell>
        <mxCell id="06UDPPKo2HAQPKWo0zHQ-57" value="" style="endArrow=none;html=1;rounded=0;exitX=1;exitY=0.5;exitDx=0;exitDy=0;" parent="1" source="06UDPPKo2HAQPKWo0zHQ-53" edge="1">
          <mxGeometry width="50" height="50" relative="1" as="geometry">
            <mxPoint x="860" y="140" as="sourcePoint" />
            <mxPoint x="900" y="140" as="targetPoint" />
            <Array as="points">
              <mxPoint x="900" y="140" />
            </Array>
          </mxGeometry>
        </mxCell>
        <mxCell id="06UDPPKo2HAQPKWo0zHQ-58" value="&lt;br&gt;&lt;span style=&quot;font-size: 26px;&quot;&gt;H1=0 H2=0 H3=0 Ripristino =0 Emg=0 Enable=0&lt;/span&gt;" style="rounded=0;whiteSpace=wrap;html=1;align=left;" parent="1" vertex="1">
          <mxGeometry x="900" y="100" width="360" height="80" as="geometry" />
        </mxCell>
        <mxCell id="06UDPPKo2HAQPKWo0zHQ-59" value="" style="endArrow=none;html=1;rounded=0;exitX=1;exitY=0.5;exitDx=0;exitDy=0;" parent="1" edge="1">
          <mxGeometry width="50" height="50" relative="1" as="geometry">
            <mxPoint x="850" y="300" as="sourcePoint" />
            <mxPoint x="900" y="300" as="targetPoint" />
            <Array as="points">
              <mxPoint x="900" y="300" />
            </Array>
          </mxGeometry>
        </mxCell>
        <mxCell id="06UDPPKo2HAQPKWo0zHQ-60" value="&lt;br&gt;&lt;span style=&quot;color: rgb(0, 0, 0); font-family: Helvetica; font-size: 26px; font-style: normal; font-variant-ligatures: normal; font-variant-caps: normal; font-weight: 400; letter-spacing: normal; orphans: 2; text-align: left; text-indent: 0px; text-transform: none; widows: 2; word-spacing: 0px; -webkit-text-stroke-width: 0px; background-color: rgb(251, 251, 251); text-decoration-thickness: initial; text-decoration-style: initial; text-decoration-color: initial; float: none; display: inline !important;&quot;&gt;Enable=0 H1=0&lt;/span&gt;" style="rounded=0;whiteSpace=wrap;html=1;align=left;" parent="1" vertex="1">
          <mxGeometry x="900" y="260" width="340" height="80" as="geometry" />
        </mxCell>
        <mxCell id="06UDPPKo2HAQPKWo0zHQ-63" value="" style="endArrow=none;html=1;rounded=0;entryX=0.5;entryY=1;entryDx=0;entryDy=0;exitX=0.5;exitY=0;exitDx=0;exitDy=0;" parent="1" source="06UDPPKo2HAQPKWo0zHQ-54" target="06UDPPKo2HAQPKWo0zHQ-53" edge="1">
          <mxGeometry width="50" height="50" relative="1" as="geometry">
            <mxPoint x="900" y="360" as="sourcePoint" />
            <mxPoint x="950" y="310" as="targetPoint" />
          </mxGeometry>
        </mxCell>
        <mxCell id="06UDPPKo2HAQPKWo0zHQ-64" value="" style="endArrow=none;html=1;rounded=0;exitX=1;exitY=0.5;exitDx=0;exitDy=0;" parent="1" edge="1">
          <mxGeometry width="50" height="50" relative="1" as="geometry">
            <mxPoint x="785" y="220" as="sourcePoint" />
            <mxPoint x="835" y="220" as="targetPoint" />
            <Array as="points">
              <mxPoint x="835" y="220" />
            </Array>
          </mxGeometry>
        </mxCell>
        <mxCell id="06UDPPKo2HAQPKWo0zHQ-65" value="&lt;span style=&quot;font-size: 26px;&quot;&gt;Stop AND NOT Emg&lt;/span&gt;" style="text;whiteSpace=wrap;html=1;" parent="1" vertex="1">
          <mxGeometry x="845" y="200" width="515" height="50" as="geometry" />
        </mxCell>
        <mxCell id="06UDPPKo2HAQPKWo0zHQ-67" value="" style="endArrow=none;html=1;rounded=0;exitX=1;exitY=0.5;exitDx=0;exitDy=0;" parent="1" edge="1">
          <mxGeometry width="50" height="50" relative="1" as="geometry">
            <mxPoint x="785" y="380" as="sourcePoint" />
            <mxPoint x="835" y="380" as="targetPoint" />
            <Array as="points">
              <mxPoint x="835" y="380" />
            </Array>
          </mxGeometry>
        </mxCell>
        <mxCell id="06UDPPKo2HAQPKWo0zHQ-68" value="&lt;span style=&quot;font-size: 26px;&quot;&gt;Start&lt;/span&gt;" style="text;whiteSpace=wrap;html=1;" parent="1" vertex="1">
          <mxGeometry x="845" y="360" width="395" height="50" as="geometry" />
        </mxCell>
        <mxCell id="06UDPPKo2HAQPKWo0zHQ-71" value="" style="endArrow=classic;html=1;rounded=0;entryX=0;entryY=0.5;entryDx=0;entryDy=0;exitX=0.5;exitY=1;exitDx=0;exitDy=0;" parent="1" source="06UDPPKo2HAQPKWo0zHQ-54" target="06UDPPKo2HAQPKWo0zHQ-53" edge="1">
          <mxGeometry width="50" height="50" relative="1" as="geometry">
            <mxPoint x="810" y="420" as="sourcePoint" />
            <mxPoint x="720" y="140" as="targetPoint" />
            <Array as="points">
              <mxPoint x="810" y="420" />
              <mxPoint x="770" y="420" />
              <mxPoint x="730" y="420" />
              <mxPoint x="730" y="140" />
            </Array>
          </mxGeometry>
        </mxCell>
        <mxCell id="ikmyl8PtZ8M1O1oMM9GM-1" value="" style="whiteSpace=wrap;html=1;aspect=fixed;" parent="1" vertex="1">
          <mxGeometry x="1440" y="90" width="80" height="80" as="geometry" />
        </mxCell>
        <mxCell id="ikmyl8PtZ8M1O1oMM9GM-2" value="&lt;br&gt;&lt;span style=&quot;color: rgb(0, 0, 0); font-family: Helvetica; font-size: 48px; font-style: normal; font-variant-ligatures: normal; font-variant-caps: normal; font-weight: 400; letter-spacing: normal; orphans: 2; text-align: center; text-indent: 0px; text-transform: none; widows: 2; word-spacing: 0px; -webkit-text-stroke-width: 0px; background-color: rgb(251, 251, 251); text-decoration-thickness: initial; text-decoration-style: initial; text-decoration-color: initial; float: none; display: inline !important;&quot;&gt;S1&lt;/span&gt;" style="whiteSpace=wrap;html=1;aspect=fixed;" parent="1" vertex="1">
          <mxGeometry x="1440" y="250" width="80" height="80" as="geometry" />
        </mxCell>
        <mxCell id="ikmyl8PtZ8M1O1oMM9GM-3" value="&lt;br&gt;&lt;span style=&quot;color: rgb(0, 0, 0); font-family: Helvetica; font-size: 48px; font-style: normal; font-variant-ligatures: normal; font-variant-caps: normal; font-weight: 400; letter-spacing: normal; orphans: 2; text-align: center; text-indent: 0px; text-transform: none; widows: 2; word-spacing: 0px; -webkit-text-stroke-width: 0px; background-color: rgb(251, 251, 251); text-decoration-thickness: initial; text-decoration-style: initial; text-decoration-color: initial; float: none; display: inline !important;&quot;&gt;S2&lt;/span&gt;&lt;br&gt;" style="whiteSpace=wrap;html=1;aspect=fixed;" parent="1" vertex="1">
          <mxGeometry x="1440" y="410" width="80" height="80" as="geometry" />
        </mxCell>
        <mxCell id="ikmyl8PtZ8M1O1oMM9GM-4" value="&lt;font style=&quot;font-size: 48px;&quot;&gt;S0&lt;/font&gt;" style="whiteSpace=wrap;html=1;aspect=fixed;" parent="1" vertex="1">
          <mxGeometry x="1445" y="95" width="70" height="70" as="geometry" />
        </mxCell>
        <mxCell id="ikmyl8PtZ8M1O1oMM9GM-5" value="" style="endArrow=none;html=1;rounded=0;exitX=1;exitY=0.5;exitDx=0;exitDy=0;" parent="1" source="ikmyl8PtZ8M1O1oMM9GM-1" edge="1">
          <mxGeometry width="50" height="50" relative="1" as="geometry">
            <mxPoint x="1530" y="130" as="sourcePoint" />
            <mxPoint x="1570" y="130" as="targetPoint" />
            <Array as="points">
              <mxPoint x="1570" y="130" />
            </Array>
          </mxGeometry>
        </mxCell>
        <mxCell id="ikmyl8PtZ8M1O1oMM9GM-6" value="&lt;br&gt;&lt;span style=&quot;font-size: 26px;&quot;&gt;H1=0 H2=0 H3=0 Ripristino =0 Emg=0 Enable=0&lt;/span&gt;" style="rounded=0;whiteSpace=wrap;html=1;align=left;" parent="1" vertex="1">
          <mxGeometry x="1570" y="90" width="360" height="80" as="geometry" />
        </mxCell>
        <mxCell id="ikmyl8PtZ8M1O1oMM9GM-7" value="" style="endArrow=none;html=1;rounded=0;exitX=1;exitY=0.5;exitDx=0;exitDy=0;" parent="1" edge="1">
          <mxGeometry width="50" height="50" relative="1" as="geometry">
            <mxPoint x="1520" y="290" as="sourcePoint" />
            <mxPoint x="1570" y="290" as="targetPoint" />
            <Array as="points">
              <mxPoint x="1570" y="290" />
            </Array>
          </mxGeometry>
        </mxCell>
        <mxCell id="ikmyl8PtZ8M1O1oMM9GM-8" value="&lt;br&gt;&lt;span style=&quot;color: rgb(0, 0, 0); font-family: Helvetica; font-size: 26px; font-style: normal; font-variant-ligatures: normal; font-variant-caps: normal; font-weight: 400; letter-spacing: normal; orphans: 2; text-align: left; text-indent: 0px; text-transform: none; widows: 2; word-spacing: 0px; -webkit-text-stroke-width: 0px; background-color: rgb(251, 251, 251); text-decoration-thickness: initial; text-decoration-style: initial; text-decoration-color: initial; float: none; display: inline !important;&quot;&gt;Enable=0 Emg=1 H2=1&amp;nbsp;&lt;/span&gt;" style="rounded=0;whiteSpace=wrap;html=1;align=left;" parent="1" vertex="1">
          <mxGeometry x="1570" y="250" width="340" height="80" as="geometry" />
        </mxCell>
        <mxCell id="ikmyl8PtZ8M1O1oMM9GM-9" value="" style="endArrow=none;html=1;rounded=0;exitX=1;exitY=0.5;exitDx=0;exitDy=0;" parent="1" edge="1">
          <mxGeometry width="50" height="50" relative="1" as="geometry">
            <mxPoint x="1520" y="450" as="sourcePoint" />
            <mxPoint x="1570" y="450" as="targetPoint" />
            <Array as="points">
              <mxPoint x="1570" y="450" />
            </Array>
          </mxGeometry>
        </mxCell>
        <mxCell id="ikmyl8PtZ8M1O1oMM9GM-10" value="&lt;br&gt;&lt;span style=&quot;color: rgb(0, 0, 0); font-family: Helvetica; font-size: 26px; font-style: normal; font-variant-ligatures: normal; font-variant-caps: normal; font-weight: 400; letter-spacing: normal; orphans: 2; text-align: left; text-indent: 0px; text-transform: none; widows: 2; word-spacing: 0px; -webkit-text-stroke-width: 0px; background-color: rgb(251, 251, 251); text-decoration-thickness: initial; text-decoration-style: initial; text-decoration-color: initial; float: none; display: inline !important;&quot;&gt;Emg=0 H2=0 H3=1 Ripristino=1&amp;nbsp;&lt;/span&gt;" style="rounded=0;whiteSpace=wrap;html=1;align=left;" parent="1" vertex="1">
          <mxGeometry x="1570" y="410" width="340" height="80" as="geometry" />
        </mxCell>
        <mxCell id="ikmyl8PtZ8M1O1oMM9GM-11" value="" style="endArrow=none;html=1;rounded=0;entryX=0.5;entryY=1;entryDx=0;entryDy=0;exitX=0.5;exitY=0;exitDx=0;exitDy=0;" parent="1" source="ikmyl8PtZ8M1O1oMM9GM-2" target="ikmyl8PtZ8M1O1oMM9GM-1" edge="1">
          <mxGeometry width="50" height="50" relative="1" as="geometry">
            <mxPoint x="1570" y="350" as="sourcePoint" />
            <mxPoint x="1620" y="300" as="targetPoint" />
          </mxGeometry>
        </mxCell>
        <mxCell id="ikmyl8PtZ8M1O1oMM9GM-12" value="" style="endArrow=none;html=1;rounded=0;exitX=1;exitY=0.5;exitDx=0;exitDy=0;" parent="1" edge="1">
          <mxGeometry width="50" height="50" relative="1" as="geometry">
            <mxPoint x="1455" y="210" as="sourcePoint" />
            <mxPoint x="1505" y="210" as="targetPoint" />
            <Array as="points">
              <mxPoint x="1505" y="210" />
            </Array>
          </mxGeometry>
        </mxCell>
        <mxCell id="ikmyl8PtZ8M1O1oMM9GM-13" value="&lt;span style=&quot;font-size: 26px;&quot;&gt;Emg&lt;/span&gt;" style="text;whiteSpace=wrap;html=1;" parent="1" vertex="1">
          <mxGeometry x="1515" y="190" width="515" height="50" as="geometry" />
        </mxCell>
        <mxCell id="ikmyl8PtZ8M1O1oMM9GM-14" value="" style="endArrow=none;html=1;rounded=0;entryX=0.5;entryY=1;entryDx=0;entryDy=0;exitX=0.5;exitY=0;exitDx=0;exitDy=0;" parent="1" edge="1">
          <mxGeometry width="50" height="50" relative="1" as="geometry">
            <mxPoint x="1480" y="410" as="sourcePoint" />
            <mxPoint x="1480" y="330" as="targetPoint" />
          </mxGeometry>
        </mxCell>
        <mxCell id="ikmyl8PtZ8M1O1oMM9GM-15" value="" style="endArrow=none;html=1;rounded=0;exitX=1;exitY=0.5;exitDx=0;exitDy=0;" parent="1" edge="1">
          <mxGeometry width="50" height="50" relative="1" as="geometry">
            <mxPoint x="1455" y="370" as="sourcePoint" />
            <mxPoint x="1505" y="370" as="targetPoint" />
            <Array as="points">
              <mxPoint x="1505" y="370" />
            </Array>
          </mxGeometry>
        </mxCell>
        <mxCell id="ikmyl8PtZ8M1O1oMM9GM-16" value="&lt;span style=&quot;font-size: 26px;&quot;&gt;NOT Emg AND Ack&lt;/span&gt;" style="text;whiteSpace=wrap;html=1;" parent="1" vertex="1">
          <mxGeometry x="1515" y="350" width="395" height="50" as="geometry" />
        </mxCell>
        <mxCell id="ikmyl8PtZ8M1O1oMM9GM-17" value="" style="endArrow=none;html=1;rounded=0;exitX=1;exitY=0.5;exitDx=0;exitDy=0;" parent="1" edge="1">
          <mxGeometry width="50" height="50" relative="1" as="geometry">
            <mxPoint x="1455" y="530" as="sourcePoint" />
            <mxPoint x="1505" y="530" as="targetPoint" />
            <Array as="points">
              <mxPoint x="1505" y="530" />
            </Array>
          </mxGeometry>
        </mxCell>
        <mxCell id="ikmyl8PtZ8M1O1oMM9GM-18" value="&lt;span style=&quot;font-size: 26px;&quot;&gt;Z1.libero=1 AND ... AND Z6.libero&lt;/span&gt;" style="text;whiteSpace=wrap;html=1;" parent="1" vertex="1">
          <mxGeometry x="1515" y="510" width="395" height="50" as="geometry" />
        </mxCell>
        <mxCell id="ikmyl8PtZ8M1O1oMM9GM-19" value="" style="endArrow=classic;html=1;rounded=0;entryX=0;entryY=0.5;entryDx=0;entryDy=0;exitX=0.5;exitY=1;exitDx=0;exitDy=0;" parent="1" source="ikmyl8PtZ8M1O1oMM9GM-3" target="ikmyl8PtZ8M1O1oMM9GM-1" edge="1">
          <mxGeometry width="50" height="50" relative="1" as="geometry">
            <mxPoint x="1480" y="560" as="sourcePoint" />
            <mxPoint x="1390" y="130" as="targetPoint" />
            <Array as="points">
              <mxPoint x="1480" y="560" />
              <mxPoint x="1400" y="560" />
              <mxPoint x="1400" y="130" />
            </Array>
          </mxGeometry>
        </mxCell>
      </root>
    </mxGraphModel>
  </diagram>
  <diagram name="Zona 1" id="DYctp_nHkHKc__laNH-5">
    <mxGraphModel dx="1692" dy="811" grid="1" gridSize="10" guides="1" tooltips="1" connect="1" arrows="1" fold="1" page="1" pageScale="1" pageWidth="827" pageHeight="1169" math="0" shadow="0">
      <root>
        <mxCell id="0" />
        <mxCell id="1" parent="0" />
        <mxCell id="Ciz1cVI1m7Od63vCIvar-1" value="" style="whiteSpace=wrap;html=1;aspect=fixed;" parent="1" vertex="1">
          <mxGeometry x="70" y="90" width="80" height="80" as="geometry" />
        </mxCell>
        <mxCell id="Ciz1cVI1m7Od63vCIvar-2" value="&lt;br&gt;&lt;span style=&quot;color: rgb(0, 0, 0); font-family: Helvetica; font-size: 48px; font-style: normal; font-variant-ligatures: normal; font-variant-caps: normal; font-weight: 400; letter-spacing: normal; orphans: 2; text-align: center; text-indent: 0px; text-transform: none; widows: 2; word-spacing: 0px; -webkit-text-stroke-width: 0px; background-color: rgb(251, 251, 251); text-decoration-thickness: initial; text-decoration-style: initial; text-decoration-color: initial; float: none; display: inline !important;&quot;&gt;S1&lt;/span&gt;" style="whiteSpace=wrap;html=1;aspect=fixed;" parent="1" vertex="1">
          <mxGeometry x="70" y="250" width="80" height="80" as="geometry" />
        </mxCell>
        <mxCell id="Ciz1cVI1m7Od63vCIvar-3" value="&lt;br&gt;&lt;span style=&quot;color: rgb(0, 0, 0); font-family: Helvetica; font-size: 48px; font-style: normal; font-variant-ligatures: normal; font-variant-caps: normal; font-weight: 400; letter-spacing: normal; orphans: 2; text-align: center; text-indent: 0px; text-transform: none; widows: 2; word-spacing: 0px; -webkit-text-stroke-width: 0px; background-color: rgb(251, 251, 251); text-decoration-thickness: initial; text-decoration-style: initial; text-decoration-color: initial; float: none; display: inline !important;&quot;&gt;S2&lt;/span&gt;&lt;br&gt;" style="whiteSpace=wrap;html=1;aspect=fixed;" parent="1" vertex="1">
          <mxGeometry x="70" y="410" width="80" height="80" as="geometry" />
        </mxCell>
        <mxCell id="Ciz1cVI1m7Od63vCIvar-13" value="&lt;font style=&quot;font-size: 48px;&quot;&gt;S0&lt;/font&gt;" style="whiteSpace=wrap;html=1;aspect=fixed;" parent="1" vertex="1">
          <mxGeometry x="75" y="95" width="70" height="70" as="geometry" />
        </mxCell>
        <mxCell id="Ciz1cVI1m7Od63vCIvar-14" value="" style="endArrow=none;html=1;rounded=0;exitX=1;exitY=0.5;exitDx=0;exitDy=0;" parent="1" source="Ciz1cVI1m7Od63vCIvar-1" edge="1">
          <mxGeometry width="50" height="50" relative="1" as="geometry">
            <mxPoint x="160" y="130" as="sourcePoint" />
            <mxPoint x="200" y="130" as="targetPoint" />
            <Array as="points">
              <mxPoint x="200" y="130" />
            </Array>
          </mxGeometry>
        </mxCell>
        <mxCell id="Ciz1cVI1m7Od63vCIvar-15" value="&lt;font style=&quot;font-size: 26px;&quot;&gt;Q5=0&lt;/font&gt;" style="rounded=0;whiteSpace=wrap;html=1;align=left;" parent="1" vertex="1">
          <mxGeometry x="200" y="90" width="340" height="80" as="geometry" />
        </mxCell>
        <mxCell id="Ciz1cVI1m7Od63vCIvar-16" value="" style="endArrow=none;html=1;rounded=0;exitX=1;exitY=0.5;exitDx=0;exitDy=0;" parent="1" edge="1">
          <mxGeometry width="50" height="50" relative="1" as="geometry">
            <mxPoint x="150" y="290" as="sourcePoint" />
            <mxPoint x="200" y="290" as="targetPoint" />
            <Array as="points">
              <mxPoint x="200" y="290" />
            </Array>
          </mxGeometry>
        </mxCell>
        <mxCell id="Ciz1cVI1m7Od63vCIvar-17" value="&lt;span style=&quot;color: rgb(0, 0, 0); font-family: Helvetica; font-size: 26px; font-style: normal; font-variant-ligatures: normal; font-variant-caps: normal; font-weight: 400; letter-spacing: normal; orphans: 2; text-indent: 0px; text-transform: none; widows: 2; word-spacing: 0px; -webkit-text-stroke-width: 0px; background-color: rgb(251, 251, 251); text-decoration-thickness: initial; text-decoration-style: initial; text-decoration-color: initial; float: none; display: inline !important;&quot;&gt;Q5=0 Tritardocarico=ON&lt;/span&gt;" style="rounded=0;whiteSpace=wrap;html=1;align=left;" parent="1" vertex="1">
          <mxGeometry x="200" y="250" width="340" height="80" as="geometry" />
        </mxCell>
        <mxCell id="Ciz1cVI1m7Od63vCIvar-18" value="" style="endArrow=none;html=1;rounded=0;exitX=1;exitY=0.5;exitDx=0;exitDy=0;" parent="1" edge="1">
          <mxGeometry width="50" height="50" relative="1" as="geometry">
            <mxPoint x="150" y="450" as="sourcePoint" />
            <mxPoint x="200" y="450" as="targetPoint" />
            <Array as="points">
              <mxPoint x="200" y="450" />
            </Array>
          </mxGeometry>
        </mxCell>
        <mxCell id="Ciz1cVI1m7Od63vCIvar-19" value="&lt;span style=&quot;color: rgb(0, 0, 0); font-family: Helvetica; font-size: 26px; font-style: normal; font-variant-ligatures: normal; font-variant-caps: normal; font-weight: 400; letter-spacing: normal; orphans: 2; text-indent: 0px; text-transform: none; widows: 2; word-spacing: 0px; -webkit-text-stroke-width: 0px; background-color: rgb(251, 251, 251); text-decoration-thickness: initial; text-decoration-style: initial; text-decoration-color: initial; float: none; display: inline !important;&quot;&gt;Q5=1&lt;/span&gt;" style="rounded=0;whiteSpace=wrap;html=1;align=left;" parent="1" vertex="1">
          <mxGeometry x="200" y="410" width="340" height="80" as="geometry" />
        </mxCell>
        <mxCell id="Ciz1cVI1m7Od63vCIvar-38" value="&lt;font style=&quot;font-size: 36px;&quot;&gt;Zona 1&lt;/font&gt;" style="text;html=1;strokeColor=none;fillColor=none;align=center;verticalAlign=middle;whiteSpace=wrap;rounded=0;" parent="1" vertex="1">
          <mxGeometry x="50" y="10" width="265" height="50" as="geometry" />
        </mxCell>
        <mxCell id="Ciz1cVI1m7Od63vCIvar-39" value="" style="endArrow=none;html=1;rounded=0;entryX=0.5;entryY=1;entryDx=0;entryDy=0;exitX=0.5;exitY=0;exitDx=0;exitDy=0;" parent="1" source="Ciz1cVI1m7Od63vCIvar-2" target="Ciz1cVI1m7Od63vCIvar-1" edge="1">
          <mxGeometry width="50" height="50" relative="1" as="geometry">
            <mxPoint x="200" y="350" as="sourcePoint" />
            <mxPoint x="250" y="300" as="targetPoint" />
          </mxGeometry>
        </mxCell>
        <mxCell id="Ciz1cVI1m7Od63vCIvar-40" value="" style="endArrow=none;html=1;rounded=0;exitX=1;exitY=0.5;exitDx=0;exitDy=0;" parent="1" edge="1">
          <mxGeometry width="50" height="50" relative="1" as="geometry">
            <mxPoint x="85" y="210" as="sourcePoint" />
            <mxPoint x="135" y="210" as="targetPoint" />
            <Array as="points">
              <mxPoint x="135" y="210" />
            </Array>
          </mxGeometry>
        </mxCell>
        <mxCell id="Ciz1cVI1m7Od63vCIvar-41" value="&lt;span style=&quot;font-size: 26px;&quot;&gt;Enable AND Z1.trigger=0 AND I5=1 AND Z2.libero=1&lt;/span&gt;" style="text;whiteSpace=wrap;html=1;" parent="1" vertex="1">
          <mxGeometry x="145" y="190" width="715" height="50" as="geometry" />
        </mxCell>
        <mxCell id="Ciz1cVI1m7Od63vCIvar-47" value="" style="endArrow=none;html=1;rounded=0;entryX=0.5;entryY=1;entryDx=0;entryDy=0;exitX=0.5;exitY=0;exitDx=0;exitDy=0;" parent="1" edge="1">
          <mxGeometry width="50" height="50" relative="1" as="geometry">
            <mxPoint x="110" y="410" as="sourcePoint" />
            <mxPoint x="110" y="330" as="targetPoint" />
          </mxGeometry>
        </mxCell>
        <mxCell id="Ciz1cVI1m7Od63vCIvar-48" value="" style="endArrow=none;html=1;rounded=0;exitX=1;exitY=0.5;exitDx=0;exitDy=0;" parent="1" edge="1">
          <mxGeometry width="50" height="50" relative="1" as="geometry">
            <mxPoint x="85" y="370" as="sourcePoint" />
            <mxPoint x="135" y="370" as="targetPoint" />
            <Array as="points">
              <mxPoint x="135" y="370" />
            </Array>
          </mxGeometry>
        </mxCell>
        <mxCell id="Ciz1cVI1m7Od63vCIvar-49" value="&lt;span style=&quot;font-size: 26px;&quot;&gt;Tritardocarico&amp;gt;=3s&lt;/span&gt;&lt;span style=&quot;font-size: 26px;&quot;&gt;&amp;nbsp;&lt;/span&gt;" style="text;whiteSpace=wrap;html=1;" parent="1" vertex="1">
          <mxGeometry x="145" y="350" width="395" height="50" as="geometry" />
        </mxCell>
        <mxCell id="Ciz1cVI1m7Od63vCIvar-51" value="" style="endArrow=none;html=1;rounded=0;exitX=1;exitY=0.5;exitDx=0;exitDy=0;" parent="1" edge="1">
          <mxGeometry width="50" height="50" relative="1" as="geometry">
            <mxPoint x="85" y="680" as="sourcePoint" />
            <mxPoint x="135" y="680" as="targetPoint" />
            <Array as="points">
              <mxPoint x="135" y="680" />
            </Array>
          </mxGeometry>
        </mxCell>
        <mxCell id="Ciz1cVI1m7Od63vCIvar-52" value="&lt;span style=&quot;font-size: 26px;&quot;&gt;Tritardoscarico&amp;gt;=1s&lt;/span&gt;" style="text;whiteSpace=wrap;html=1;" parent="1" vertex="1">
          <mxGeometry x="145" y="660" width="395" height="50" as="geometry" />
        </mxCell>
        <mxCell id="Ciz1cVI1m7Od63vCIvar-57" value="" style="endArrow=classic;html=1;rounded=0;entryX=0;entryY=0.5;entryDx=0;entryDy=0;" parent="1" target="Ciz1cVI1m7Od63vCIvar-1" edge="1">
          <mxGeometry width="50" height="50" relative="1" as="geometry">
            <mxPoint x="110" y="640" as="sourcePoint" />
            <mxPoint x="20" y="130" as="targetPoint" />
            <Array as="points">
              <mxPoint x="110" y="710" />
              <mxPoint x="70" y="710" />
              <mxPoint x="30" y="710" />
              <mxPoint x="30" y="130" />
            </Array>
          </mxGeometry>
        </mxCell>
        <mxCell id="15IltI1vOPDbxtx--NCV-1" value="&lt;font style=&quot;font-size: 36px;&quot;&gt;Emergenza local&lt;/font&gt;" style="text;html=1;strokeColor=none;fillColor=none;align=center;verticalAlign=middle;whiteSpace=wrap;rounded=0;" parent="1" vertex="1">
          <mxGeometry x="920" y="390" width="320" height="60" as="geometry" />
        </mxCell>
        <mxCell id="15IltI1vOPDbxtx--NCV-2" value="" style="endArrow=none;html=1;rounded=0;exitX=1;exitY=0.5;exitDx=0;exitDy=0;" parent="1" edge="1">
          <mxGeometry width="50" height="50" relative="1" as="geometry">
            <mxPoint x="1050" y="610" as="sourcePoint" />
            <mxPoint x="1100" y="610" as="targetPoint" />
            <Array as="points">
              <mxPoint x="1100" y="610" />
            </Array>
          </mxGeometry>
        </mxCell>
        <mxCell id="15IltI1vOPDbxtx--NCV-3" value="" style="endArrow=none;html=1;rounded=0;exitX=0.5;exitY=0;exitDx=0;exitDy=0;" parent="1" edge="1">
          <mxGeometry width="50" height="50" relative="1" as="geometry">
            <mxPoint x="1077" y="650" as="sourcePoint" />
            <mxPoint x="1077" y="560" as="targetPoint" />
          </mxGeometry>
        </mxCell>
        <mxCell id="15IltI1vOPDbxtx--NCV-4" value="&lt;br&gt;&lt;span style=&quot;color: rgb(0, 0, 0); font-family: Helvetica; font-size: 48px; font-style: normal; font-variant-ligatures: normal; font-variant-caps: normal; font-weight: 400; letter-spacing: normal; orphans: 2; text-align: center; text-indent: 0px; text-transform: none; widows: 2; word-spacing: 0px; -webkit-text-stroke-width: 0px; background-color: rgb(251, 251, 251); text-decoration-thickness: initial; text-decoration-style: initial; text-decoration-color: initial; float: none; display: inline !important;&quot;&gt;SE&lt;/span&gt;" style="whiteSpace=wrap;html=1;aspect=fixed;" parent="1" vertex="1">
          <mxGeometry x="1040" y="650" width="80" height="80" as="geometry" />
        </mxCell>
        <mxCell id="15IltI1vOPDbxtx--NCV-5" value="" style="endArrow=none;html=1;rounded=0;exitX=1;exitY=0.5;exitDx=0;exitDy=0;" parent="1" edge="1">
          <mxGeometry width="50" height="50" relative="1" as="geometry">
            <mxPoint x="1120" y="690" as="sourcePoint" />
            <mxPoint x="1170" y="690" as="targetPoint" />
            <Array as="points">
              <mxPoint x="1170" y="690" />
            </Array>
          </mxGeometry>
        </mxCell>
        <mxCell id="15IltI1vOPDbxtx--NCV-6" value="&lt;br&gt;&lt;span style=&quot;color: rgb(0, 0, 0); font-family: Helvetica; font-size: 26px; font-style: normal; font-variant-ligatures: normal; font-variant-caps: normal; font-weight: 400; letter-spacing: normal; orphans: 2; text-align: left; text-indent: 0px; text-transform: none; widows: 2; word-spacing: 0px; -webkit-text-stroke-width: 0px; background-color: rgb(251, 251, 251); text-decoration-thickness: initial; text-decoration-style: initial; text-decoration-color: initial; float: none; display: inline !important;&quot;&gt;Q5=0 Z1.Emg=0&amp;nbsp;&lt;/span&gt;" style="rounded=0;whiteSpace=wrap;html=1;align=left;" parent="1" vertex="1">
          <mxGeometry x="1170" y="650" width="340" height="75" as="geometry" />
        </mxCell>
        <mxCell id="15IltI1vOPDbxtx--NCV-7" value="" style="endArrow=classic;html=1;rounded=0;exitX=0.5;exitY=1;exitDx=0;exitDy=0;" parent="1" source="15IltI1vOPDbxtx--NCV-4" edge="1">
          <mxGeometry width="50" height="50" relative="1" as="geometry">
            <mxPoint x="890" y="800" as="sourcePoint" />
            <mxPoint x="1080" y="800" as="targetPoint" />
          </mxGeometry>
        </mxCell>
        <mxCell id="15IltI1vOPDbxtx--NCV-8" value="&lt;span style=&quot;color: rgb(0, 0, 0); font-family: Helvetica; font-size: 48px; font-style: normal; font-variant-ligatures: normal; font-variant-caps: normal; font-weight: 400; letter-spacing: normal; orphans: 2; text-align: center; text-indent: 0px; text-transform: none; widows: 2; word-spacing: 0px; -webkit-text-stroke-width: 0px; background-color: rgb(251, 251, 251); text-decoration-thickness: initial; text-decoration-style: initial; text-decoration-color: initial; float: none; display: inline !important;&quot;&gt;S0&lt;/span&gt;" style="text;whiteSpace=wrap;html=1;" parent="1" vertex="1">
          <mxGeometry x="1050" y="800" width="90" height="80" as="geometry" />
        </mxCell>
        <mxCell id="15IltI1vOPDbxtx--NCV-9" value="&lt;br&gt;&lt;span style=&quot;color: rgb(0, 0, 0); font-family: Helvetica; font-size: 48px; font-style: normal; font-variant-ligatures: normal; font-variant-caps: normal; font-weight: 400; letter-spacing: normal; orphans: 2; text-align: center; text-indent: 0px; text-transform: none; widows: 2; word-spacing: 0px; -webkit-text-stroke-width: 0px; background-color: rgb(251, 251, 251); text-decoration-thickness: initial; text-decoration-style: initial; text-decoration-color: initial; float: none; display: inline !important;&quot;&gt;S3&lt;/span&gt;" style="whiteSpace=wrap;html=1;aspect=fixed;" parent="1" vertex="1">
          <mxGeometry x="1130" y="460" width="80" height="80" as="geometry" />
        </mxCell>
        <mxCell id="15IltI1vOPDbxtx--NCV-10" value="&lt;br&gt;&lt;span style=&quot;color: rgb(0, 0, 0); font-family: Helvetica; font-size: 48px; font-style: normal; font-variant-ligatures: normal; font-variant-caps: normal; font-weight: 400; letter-spacing: normal; orphans: 2; text-align: center; text-indent: 0px; text-transform: none; widows: 2; word-spacing: 0px; -webkit-text-stroke-width: 0px; background-color: rgb(251, 251, 251); text-decoration-thickness: initial; text-decoration-style: initial; text-decoration-color: initial; float: none; display: inline !important;&quot;&gt;S2&lt;/span&gt;" style="whiteSpace=wrap;html=1;aspect=fixed;" parent="1" vertex="1">
          <mxGeometry x="960" y="460" width="80" height="80" as="geometry" />
        </mxCell>
        <mxCell id="15IltI1vOPDbxtx--NCV-11" value="" style="shape=link;html=1;rounded=0;" parent="1" edge="1">
          <mxGeometry width="100" relative="1" as="geometry">
            <mxPoint x="930" y="559.6" as="sourcePoint" />
            <mxPoint x="1230" y="559.6" as="targetPoint" />
          </mxGeometry>
        </mxCell>
        <mxCell id="15IltI1vOPDbxtx--NCV-12" value="" style="endArrow=classic;html=1;rounded=0;exitX=0.5;exitY=1;exitDx=0;exitDy=0;" parent="1" source="15IltI1vOPDbxtx--NCV-10" edge="1">
          <mxGeometry width="50" height="50" relative="1" as="geometry">
            <mxPoint x="1040" y="570" as="sourcePoint" />
            <mxPoint x="1000" y="560" as="targetPoint" />
          </mxGeometry>
        </mxCell>
        <mxCell id="15IltI1vOPDbxtx--NCV-13" value="" style="endArrow=classic;html=1;rounded=0;exitX=0.5;exitY=1;exitDx=0;exitDy=0;" parent="1" edge="1">
          <mxGeometry width="50" height="50" relative="1" as="geometry">
            <mxPoint x="1169.8899999999999" y="540" as="sourcePoint" />
            <mxPoint x="1169.8899999999999" y="560" as="targetPoint" />
          </mxGeometry>
        </mxCell>
        <mxCell id="15IltI1vOPDbxtx--NCV-15" value="&lt;span style=&quot;font-size: 26px;&quot;&gt;Z1.trigger=0&lt;/span&gt;" style="text;whiteSpace=wrap;html=1;" parent="1" vertex="1">
          <mxGeometry x="1120" y="590" width="225" height="50" as="geometry" />
        </mxCell>
        <mxCell id="15IltI1vOPDbxtx--NCV-16" value="" style="endArrow=none;html=1;rounded=0;exitX=1;exitY=0.5;exitDx=0;exitDy=0;" parent="1" edge="1">
          <mxGeometry width="50" height="50" relative="1" as="geometry">
            <mxPoint x="1055" y="764.86" as="sourcePoint" />
            <mxPoint x="1105" y="764.86" as="targetPoint" />
            <Array as="points">
              <mxPoint x="1105" y="764.86" />
            </Array>
          </mxGeometry>
        </mxCell>
        <mxCell id="15IltI1vOPDbxtx--NCV-17" value="&lt;span style=&quot;font-size: 26px;&quot;&gt;Enable&amp;nbsp;&lt;/span&gt;" style="text;whiteSpace=wrap;html=1;" parent="1" vertex="1">
          <mxGeometry x="1120" y="740" width="147.5" height="50" as="geometry" />
        </mxCell>
        <mxCell id="lXZwZMGAvNtmL8sJxSSa-7" value="&lt;br&gt;&lt;span style=&quot;color: rgb(0, 0, 0); font-family: Helvetica; font-size: 48px; font-style: normal; font-variant-ligatures: normal; font-variant-caps: normal; font-weight: 400; letter-spacing: normal; orphans: 2; text-align: center; text-indent: 0px; text-transform: none; widows: 2; word-spacing: 0px; -webkit-text-stroke-width: 0px; background-color: rgb(251, 251, 251); text-decoration-thickness: initial; text-decoration-style: initial; text-decoration-color: initial; float: none; display: inline !important;&quot;&gt;S3&lt;/span&gt;" style="whiteSpace=wrap;html=1;aspect=fixed;" parent="1" vertex="1">
          <mxGeometry x="70" y="570" width="80" height="80" as="geometry" />
        </mxCell>
        <mxCell id="lXZwZMGAvNtmL8sJxSSa-8" value="" style="endArrow=none;html=1;rounded=0;exitX=1;exitY=0.5;exitDx=0;exitDy=0;" parent="1" edge="1">
          <mxGeometry width="50" height="50" relative="1" as="geometry">
            <mxPoint x="150" y="610" as="sourcePoint" />
            <mxPoint x="200" y="610" as="targetPoint" />
            <Array as="points">
              <mxPoint x="200" y="610" />
            </Array>
          </mxGeometry>
        </mxCell>
        <mxCell id="lXZwZMGAvNtmL8sJxSSa-9" value="&lt;span style=&quot;color: rgb(0, 0, 0); font-family: Helvetica; font-size: 26px; font-style: normal; font-variant-ligatures: normal; font-variant-caps: normal; font-weight: 400; letter-spacing: normal; orphans: 2; text-indent: 0px; text-transform: none; widows: 2; word-spacing: 0px; -webkit-text-stroke-width: 0px; background-color: rgb(251, 251, 251); text-decoration-thickness: initial; text-decoration-style: initial; text-decoration-color: initial; float: none; display: inline !important;&quot;&gt;Q5=1 Tritardoscarico=ON&lt;/span&gt;" style="rounded=0;whiteSpace=wrap;html=1;align=left;" parent="1" vertex="1">
          <mxGeometry x="200" y="570" width="340" height="80" as="geometry" />
        </mxCell>
        <mxCell id="lXZwZMGAvNtmL8sJxSSa-10" value="" style="endArrow=none;html=1;rounded=0;entryX=0.5;entryY=1;entryDx=0;entryDy=0;exitX=0.5;exitY=0;exitDx=0;exitDy=0;" parent="1" edge="1">
          <mxGeometry width="50" height="50" relative="1" as="geometry">
            <mxPoint x="110" y="570" as="sourcePoint" />
            <mxPoint x="110" y="490" as="targetPoint" />
          </mxGeometry>
        </mxCell>
        <mxCell id="lXZwZMGAvNtmL8sJxSSa-11" value="" style="endArrow=none;html=1;rounded=0;exitX=1;exitY=0.5;exitDx=0;exitDy=0;" parent="1" edge="1">
          <mxGeometry width="50" height="50" relative="1" as="geometry">
            <mxPoint x="85" y="530" as="sourcePoint" />
            <mxPoint x="135" y="530" as="targetPoint" />
            <Array as="points">
              <mxPoint x="135" y="530" />
            </Array>
          </mxGeometry>
        </mxCell>
        <mxCell id="lXZwZMGAvNtmL8sJxSSa-12" value="&lt;span style=&quot;font-size: 26px;&quot;&gt;R_Trig(I5)&lt;/span&gt;" style="text;whiteSpace=wrap;html=1;" parent="1" vertex="1">
          <mxGeometry x="145" y="510" width="395" height="50" as="geometry" />
        </mxCell>
        <mxCell id="lXZwZMGAvNtmL8sJxSSa-13" value="" style="endArrow=none;html=1;rounded=0;exitX=1;exitY=0.5;exitDx=0;exitDy=0;" parent="1" edge="1">
          <mxGeometry width="50" height="50" relative="1" as="geometry">
            <mxPoint x="1045" y="250" as="sourcePoint" />
            <mxPoint x="1095" y="250" as="targetPoint" />
            <Array as="points">
              <mxPoint x="1095" y="250" />
            </Array>
          </mxGeometry>
        </mxCell>
        <mxCell id="lXZwZMGAvNtmL8sJxSSa-19" value="&lt;span style=&quot;color: rgb(0, 0, 0); font-family: Helvetica; font-size: 48px; font-style: normal; font-variant-ligatures: normal; font-variant-caps: normal; font-weight: 400; letter-spacing: normal; orphans: 2; text-align: center; text-indent: 0px; text-transform: none; widows: 2; word-spacing: 0px; -webkit-text-stroke-width: 0px; background-color: rgb(251, 251, 251); text-decoration-thickness: initial; text-decoration-style: initial; text-decoration-color: initial; float: none; display: inline !important;&quot;&gt;S0&lt;/span&gt;" style="text;whiteSpace=wrap;html=1;" parent="1" vertex="1">
          <mxGeometry x="1040" y="300" width="90" height="80" as="geometry" />
        </mxCell>
        <mxCell id="lXZwZMGAvNtmL8sJxSSa-20" value="&lt;br&gt;&lt;span style=&quot;color: rgb(0, 0, 0); font-family: Helvetica; font-size: 48px; font-style: normal; font-variant-ligatures: normal; font-variant-caps: normal; font-weight: 400; letter-spacing: normal; orphans: 2; text-align: center; text-indent: 0px; text-transform: none; widows: 2; word-spacing: 0px; -webkit-text-stroke-width: 0px; background-color: rgb(251, 251, 251); text-decoration-thickness: initial; text-decoration-style: initial; text-decoration-color: initial; float: none; display: inline !important;&quot;&gt;S3&lt;/span&gt;" style="whiteSpace=wrap;html=1;aspect=fixed;" parent="1" vertex="1">
          <mxGeometry x="1120" y="100" width="80" height="80" as="geometry" />
        </mxCell>
        <mxCell id="lXZwZMGAvNtmL8sJxSSa-21" value="&lt;br&gt;&lt;span style=&quot;color: rgb(0, 0, 0); font-family: Helvetica; font-size: 48px; font-style: normal; font-variant-ligatures: normal; font-variant-caps: normal; font-weight: 400; letter-spacing: normal; orphans: 2; text-align: center; text-indent: 0px; text-transform: none; widows: 2; word-spacing: 0px; -webkit-text-stroke-width: 0px; background-color: rgb(251, 251, 251); text-decoration-thickness: initial; text-decoration-style: initial; text-decoration-color: initial; float: none; display: inline !important;&quot;&gt;S1&lt;/span&gt;" style="whiteSpace=wrap;html=1;aspect=fixed;" parent="1" vertex="1">
          <mxGeometry x="950" y="100" width="80" height="80" as="geometry" />
        </mxCell>
        <mxCell id="lXZwZMGAvNtmL8sJxSSa-22" value="" style="shape=link;html=1;rounded=0;" parent="1" edge="1">
          <mxGeometry width="100" relative="1" as="geometry">
            <mxPoint x="920" y="199.5999999999999" as="sourcePoint" />
            <mxPoint x="1220" y="199.5999999999999" as="targetPoint" />
          </mxGeometry>
        </mxCell>
        <mxCell id="lXZwZMGAvNtmL8sJxSSa-23" value="" style="endArrow=classic;html=1;rounded=0;exitX=0.5;exitY=1;exitDx=0;exitDy=0;" parent="1" source="lXZwZMGAvNtmL8sJxSSa-21" edge="1">
          <mxGeometry width="50" height="50" relative="1" as="geometry">
            <mxPoint x="1030" y="210" as="sourcePoint" />
            <mxPoint x="990" y="200" as="targetPoint" />
          </mxGeometry>
        </mxCell>
        <mxCell id="lXZwZMGAvNtmL8sJxSSa-24" value="" style="endArrow=classic;html=1;rounded=0;exitX=0.5;exitY=1;exitDx=0;exitDy=0;" parent="1" edge="1">
          <mxGeometry width="50" height="50" relative="1" as="geometry">
            <mxPoint x="1159.8899999999999" y="180" as="sourcePoint" />
            <mxPoint x="1159.8899999999999" y="200" as="targetPoint" />
          </mxGeometry>
        </mxCell>
        <mxCell id="lXZwZMGAvNtmL8sJxSSa-25" value="&lt;font style=&quot;font-size: 36px;&quot;&gt;...&lt;/font&gt;" style="text;html=1;strokeColor=none;fillColor=none;align=center;verticalAlign=middle;whiteSpace=wrap;rounded=0;" parent="1" vertex="1">
          <mxGeometry x="1050" y="125" width="60" height="30" as="geometry" />
        </mxCell>
        <mxCell id="lXZwZMGAvNtmL8sJxSSa-26" value="&lt;span style=&quot;font-size: 26px;&quot;&gt;NOT Enable&amp;nbsp;&lt;/span&gt;" style="text;whiteSpace=wrap;html=1;" parent="1" vertex="1">
          <mxGeometry x="1100" y="230" width="200" height="50" as="geometry" />
        </mxCell>
        <mxCell id="lXZwZMGAvNtmL8sJxSSa-29" value="" style="endArrow=classic;html=1;rounded=0;fontSize=36;" parent="1" edge="1">
          <mxGeometry width="50" height="50" relative="1" as="geometry">
            <mxPoint x="1070" y="200" as="sourcePoint" />
            <mxPoint x="1070" y="290" as="targetPoint" />
          </mxGeometry>
        </mxCell>
        <mxCell id="lXZwZMGAvNtmL8sJxSSa-30" value="&lt;font style=&quot;font-size: 36px;&quot;&gt;Emergenza&amp;nbsp;&lt;/font&gt;" style="text;html=1;strokeColor=none;fillColor=none;align=center;verticalAlign=middle;whiteSpace=wrap;rounded=0;" parent="1" vertex="1">
          <mxGeometry x="920" y="10" width="320" height="50" as="geometry" />
        </mxCell>
      </root>
    </mxGraphModel>
  </diagram>
  <diagram id="gZi13g56VlyOMO2qJDWs" name="Zona 2">
    <mxGraphModel dx="1493" dy="715" grid="1" gridSize="10" guides="1" tooltips="1" connect="1" arrows="1" fold="1" page="1" pageScale="1" pageWidth="827" pageHeight="1169" math="0" shadow="0">
      <root>
        <mxCell id="0" />
        <mxCell id="1" parent="0" />
        <mxCell id="hZ9hZsxMJjgvE7JYR-xC-1" value="" style="whiteSpace=wrap;html=1;aspect=fixed;" parent="1" vertex="1">
          <mxGeometry x="70" y="90" width="80" height="80" as="geometry" />
        </mxCell>
        <mxCell id="hZ9hZsxMJjgvE7JYR-xC-2" value="&lt;br&gt;&lt;span style=&quot;color: rgb(0, 0, 0); font-family: Helvetica; font-size: 48px; font-style: normal; font-variant-ligatures: normal; font-variant-caps: normal; font-weight: 400; letter-spacing: normal; orphans: 2; text-align: center; text-indent: 0px; text-transform: none; widows: 2; word-spacing: 0px; -webkit-text-stroke-width: 0px; background-color: rgb(251, 251, 251); text-decoration-thickness: initial; text-decoration-style: initial; text-decoration-color: initial; float: none; display: inline !important;&quot;&gt;S1&lt;/span&gt;" style="whiteSpace=wrap;html=1;aspect=fixed;" parent="1" vertex="1">
          <mxGeometry x="70" y="250" width="80" height="80" as="geometry" />
        </mxCell>
        <mxCell id="hZ9hZsxMJjgvE7JYR-xC-3" value="&lt;br&gt;&lt;span style=&quot;color: rgb(0, 0, 0); font-family: Helvetica; font-size: 48px; font-style: normal; font-variant-ligatures: normal; font-variant-caps: normal; font-weight: 400; letter-spacing: normal; orphans: 2; text-align: center; text-indent: 0px; text-transform: none; widows: 2; word-spacing: 0px; -webkit-text-stroke-width: 0px; background-color: rgb(251, 251, 251); text-decoration-thickness: initial; text-decoration-style: initial; text-decoration-color: initial; float: none; display: inline !important;&quot;&gt;S2&lt;/span&gt;&lt;br&gt;" style="whiteSpace=wrap;html=1;aspect=fixed;" parent="1" vertex="1">
          <mxGeometry x="70" y="410" width="80" height="80" as="geometry" />
        </mxCell>
        <mxCell id="hZ9hZsxMJjgvE7JYR-xC-4" value="&lt;font style=&quot;font-size: 48px;&quot;&gt;S0&lt;/font&gt;" style="whiteSpace=wrap;html=1;aspect=fixed;" parent="1" vertex="1">
          <mxGeometry x="75" y="95" width="70" height="70" as="geometry" />
        </mxCell>
        <mxCell id="hZ9hZsxMJjgvE7JYR-xC-5" value="" style="endArrow=none;html=1;rounded=0;exitX=1;exitY=0.5;exitDx=0;exitDy=0;" parent="1" source="hZ9hZsxMJjgvE7JYR-xC-1" edge="1">
          <mxGeometry width="50" height="50" relative="1" as="geometry">
            <mxPoint x="160" y="130" as="sourcePoint" />
            <mxPoint x="200" y="130" as="targetPoint" />
            <Array as="points">
              <mxPoint x="200" y="130" />
            </Array>
          </mxGeometry>
        </mxCell>
        <mxCell id="hZ9hZsxMJjgvE7JYR-xC-6" value="&lt;br&gt;&lt;span style=&quot;color: rgb(0, 0, 0); font-family: Helvetica; font-size: 26px; font-style: normal; font-variant-ligatures: normal; font-variant-caps: normal; font-weight: 400; letter-spacing: normal; orphans: 2; text-align: left; text-indent: 0px; text-transform: none; widows: 2; word-spacing: 0px; -webkit-text-stroke-width: 0px; background-color: rgb(251, 251, 251); text-decoration-thickness: initial; text-decoration-style: initial; text-decoration-color: initial; float: none; display: inline !important;&quot;&gt;Q1=0 Q2=0 Z2.libero=1&amp;nbsp;&lt;/span&gt;" style="rounded=0;whiteSpace=wrap;html=1;align=left;" parent="1" vertex="1">
          <mxGeometry x="200" y="90" width="340" height="80" as="geometry" />
        </mxCell>
        <mxCell id="hZ9hZsxMJjgvE7JYR-xC-7" value="" style="endArrow=none;html=1;rounded=0;exitX=1;exitY=0.5;exitDx=0;exitDy=0;" parent="1" edge="1">
          <mxGeometry width="50" height="50" relative="1" as="geometry">
            <mxPoint x="150" y="290" as="sourcePoint" />
            <mxPoint x="200" y="290" as="targetPoint" />
            <Array as="points">
              <mxPoint x="200" y="290" />
            </Array>
          </mxGeometry>
        </mxCell>
        <mxCell id="hZ9hZsxMJjgvE7JYR-xC-8" value="&lt;br&gt;&lt;span style=&quot;color: rgb(0, 0, 0); font-family: Helvetica; font-size: 26px; font-style: normal; font-variant-ligatures: normal; font-variant-caps: normal; font-weight: 400; letter-spacing: normal; orphans: 2; text-align: left; text-indent: 0px; text-transform: none; widows: 2; word-spacing: 0px; -webkit-text-stroke-width: 0px; background-color: rgb(251, 251, 251); text-decoration-thickness: initial; text-decoration-style: initial; text-decoration-color: initial; float: none; display: inline !important;&quot;&gt;Q1=0 Q2=1 Z2.libero=0&amp;nbsp;&lt;/span&gt;" style="rounded=0;whiteSpace=wrap;html=1;align=left;" parent="1" vertex="1">
          <mxGeometry x="200" y="250" width="340" height="80" as="geometry" />
        </mxCell>
        <mxCell id="hZ9hZsxMJjgvE7JYR-xC-9" value="" style="endArrow=none;html=1;rounded=0;exitX=1;exitY=0.5;exitDx=0;exitDy=0;" parent="1" edge="1">
          <mxGeometry width="50" height="50" relative="1" as="geometry">
            <mxPoint x="150" y="450" as="sourcePoint" />
            <mxPoint x="200" y="450" as="targetPoint" />
            <Array as="points">
              <mxPoint x="200" y="450" />
            </Array>
          </mxGeometry>
        </mxCell>
        <mxCell id="hZ9hZsxMJjgvE7JYR-xC-10" value="&lt;br&gt;&lt;span style=&quot;color: rgb(0, 0, 0); font-family: Helvetica; font-size: 26px; font-style: normal; font-variant-ligatures: normal; font-variant-caps: normal; font-weight: 400; letter-spacing: normal; orphans: 2; text-align: left; text-indent: 0px; text-transform: none; widows: 2; word-spacing: 0px; -webkit-text-stroke-width: 0px; background-color: rgb(251, 251, 251); text-decoration-thickness: initial; text-decoration-style: initial; text-decoration-color: initial; float: none; display: inline !important;&quot;&gt;Q1=1 Q2=0 Z5.libero=0&amp;nbsp;&lt;/span&gt;" style="rounded=0;whiteSpace=wrap;html=1;align=left;" parent="1" vertex="1">
          <mxGeometry x="200" y="410" width="340" height="80" as="geometry" />
        </mxCell>
        <mxCell id="hZ9hZsxMJjgvE7JYR-xC-11" value="&lt;font style=&quot;font-size: 36px;&quot;&gt;Zona 2&lt;/font&gt;" style="text;html=1;strokeColor=none;fillColor=none;align=center;verticalAlign=middle;whiteSpace=wrap;rounded=0;" parent="1" vertex="1">
          <mxGeometry x="50" y="10" width="265" height="50" as="geometry" />
        </mxCell>
        <mxCell id="hZ9hZsxMJjgvE7JYR-xC-12" value="" style="endArrow=none;html=1;rounded=0;entryX=0.5;entryY=1;entryDx=0;entryDy=0;exitX=0.5;exitY=0;exitDx=0;exitDy=0;" parent="1" source="hZ9hZsxMJjgvE7JYR-xC-2" target="hZ9hZsxMJjgvE7JYR-xC-1" edge="1">
          <mxGeometry width="50" height="50" relative="1" as="geometry">
            <mxPoint x="200" y="350" as="sourcePoint" />
            <mxPoint x="250" y="300" as="targetPoint" />
          </mxGeometry>
        </mxCell>
        <mxCell id="hZ9hZsxMJjgvE7JYR-xC-13" value="" style="endArrow=none;html=1;rounded=0;exitX=1;exitY=0.5;exitDx=0;exitDy=0;" parent="1" edge="1">
          <mxGeometry width="50" height="50" relative="1" as="geometry">
            <mxPoint x="85" y="210" as="sourcePoint" />
            <mxPoint x="135" y="210" as="targetPoint" />
            <Array as="points">
              <mxPoint x="135" y="210" />
            </Array>
          </mxGeometry>
        </mxCell>
        <mxCell id="hZ9hZsxMJjgvE7JYR-xC-14" value="&lt;span style=&quot;font-size: 26px;&quot;&gt;Enable AND Z1.trigger=1 AND Z3.libero=1&lt;/span&gt;" style="text;whiteSpace=wrap;html=1;" parent="1" vertex="1">
          <mxGeometry x="145" y="190" width="515" height="50" as="geometry" />
        </mxCell>
        <mxCell id="hZ9hZsxMJjgvE7JYR-xC-15" value="" style="endArrow=none;html=1;rounded=0;entryX=0.5;entryY=1;entryDx=0;entryDy=0;exitX=0.5;exitY=0;exitDx=0;exitDy=0;" parent="1" edge="1">
          <mxGeometry width="50" height="50" relative="1" as="geometry">
            <mxPoint x="110" y="410" as="sourcePoint" />
            <mxPoint x="110" y="330" as="targetPoint" />
          </mxGeometry>
        </mxCell>
        <mxCell id="hZ9hZsxMJjgvE7JYR-xC-16" value="" style="endArrow=none;html=1;rounded=0;exitX=1;exitY=0.5;exitDx=0;exitDy=0;" parent="1" edge="1">
          <mxGeometry width="50" height="50" relative="1" as="geometry">
            <mxPoint x="85" y="370" as="sourcePoint" />
            <mxPoint x="135" y="370" as="targetPoint" />
            <Array as="points">
              <mxPoint x="135" y="370" />
            </Array>
          </mxGeometry>
        </mxCell>
        <mxCell id="hZ9hZsxMJjgvE7JYR-xC-17" value="&lt;span style=&quot;font-size: 26px;&quot;&gt;I1=1&amp;nbsp;&lt;/span&gt;" style="text;whiteSpace=wrap;html=1;" parent="1" vertex="1">
          <mxGeometry x="145" y="350" width="395" height="50" as="geometry" />
        </mxCell>
        <mxCell id="hZ9hZsxMJjgvE7JYR-xC-18" value="" style="endArrow=none;html=1;rounded=0;exitX=1;exitY=0.5;exitDx=0;exitDy=0;" parent="1" edge="1">
          <mxGeometry width="50" height="50" relative="1" as="geometry">
            <mxPoint x="85" y="530" as="sourcePoint" />
            <mxPoint x="135" y="530" as="targetPoint" />
            <Array as="points">
              <mxPoint x="135" y="530" />
            </Array>
          </mxGeometry>
        </mxCell>
        <mxCell id="hZ9hZsxMJjgvE7JYR-xC-19" value="&lt;span style=&quot;font-size: 26px;&quot;&gt;I2=1&lt;/span&gt;" style="text;whiteSpace=wrap;html=1;" parent="1" vertex="1">
          <mxGeometry x="145" y="510" width="395" height="50" as="geometry" />
        </mxCell>
        <mxCell id="hZ9hZsxMJjgvE7JYR-xC-20" value="" style="endArrow=classic;html=1;rounded=0;entryX=0;entryY=0.5;entryDx=0;entryDy=0;exitX=0.5;exitY=1;exitDx=0;exitDy=0;" parent="1" source="hZ9hZsxMJjgvE7JYR-xC-3" target="hZ9hZsxMJjgvE7JYR-xC-1" edge="1">
          <mxGeometry width="50" height="50" relative="1" as="geometry">
            <mxPoint x="110" y="560" as="sourcePoint" />
            <mxPoint x="20" y="130" as="targetPoint" />
            <Array as="points">
              <mxPoint x="110" y="560" />
              <mxPoint x="30" y="560" />
              <mxPoint x="30" y="130" />
            </Array>
          </mxGeometry>
        </mxCell>
        <mxCell id="kO7va5F8CQNtJqTx3qPe-1" value="&lt;font style=&quot;font-size: 36px;&quot;&gt;Ripristino&lt;/font&gt;" style="text;html=1;strokeColor=none;fillColor=none;align=center;verticalAlign=middle;whiteSpace=wrap;rounded=0;" parent="1" vertex="1">
          <mxGeometry x="670" y="10" width="265" height="50" as="geometry" />
        </mxCell>
        <mxCell id="kO7va5F8CQNtJqTx3qPe-2" value="" style="endArrow=none;html=1;rounded=0;exitX=1;exitY=0.5;exitDx=0;exitDy=0;" parent="1" edge="1">
          <mxGeometry width="50" height="50" relative="1" as="geometry">
            <mxPoint x="800" y="220" as="sourcePoint" />
            <mxPoint x="850" y="220" as="targetPoint" />
            <Array as="points">
              <mxPoint x="850" y="220" />
            </Array>
          </mxGeometry>
        </mxCell>
        <mxCell id="kO7va5F8CQNtJqTx3qPe-3" value="&lt;span style=&quot;font-size: 26px;&quot;&gt;Ripristino&lt;/span&gt;" style="text;whiteSpace=wrap;html=1;" parent="1" vertex="1">
          <mxGeometry x="860" y="200" width="515" height="50" as="geometry" />
        </mxCell>
        <mxCell id="kO7va5F8CQNtJqTx3qPe-10" value="" style="endArrow=none;html=1;rounded=0;exitX=0.5;exitY=0;exitDx=0;exitDy=0;" parent="1" edge="1">
          <mxGeometry width="50" height="50" relative="1" as="geometry">
            <mxPoint x="827" y="260" as="sourcePoint" />
            <mxPoint x="827" y="170" as="targetPoint" />
          </mxGeometry>
        </mxCell>
        <mxCell id="kO7va5F8CQNtJqTx3qPe-11" value="&lt;br&gt;&lt;span style=&quot;color: rgb(0, 0, 0); font-family: Helvetica; font-size: 48px; font-style: normal; font-variant-ligatures: normal; font-variant-caps: normal; font-weight: 400; letter-spacing: normal; orphans: 2; text-align: center; text-indent: 0px; text-transform: none; widows: 2; word-spacing: 0px; -webkit-text-stroke-width: 0px; background-color: rgb(251, 251, 251); text-decoration-thickness: initial; text-decoration-style: initial; text-decoration-color: initial; float: none; display: inline !important;&quot;&gt;SR&lt;/span&gt;" style="whiteSpace=wrap;html=1;aspect=fixed;" parent="1" vertex="1">
          <mxGeometry x="790" y="260" width="80" height="80" as="geometry" />
        </mxCell>
        <mxCell id="kO7va5F8CQNtJqTx3qPe-12" value="" style="endArrow=none;html=1;rounded=0;exitX=1;exitY=0.5;exitDx=0;exitDy=0;" parent="1" edge="1">
          <mxGeometry width="50" height="50" relative="1" as="geometry">
            <mxPoint x="870" y="300" as="sourcePoint" />
            <mxPoint x="920" y="300" as="targetPoint" />
            <Array as="points">
              <mxPoint x="920" y="300" />
            </Array>
          </mxGeometry>
        </mxCell>
        <mxCell id="kO7va5F8CQNtJqTx3qPe-13" value="&lt;br&gt;&lt;span style=&quot;color: rgb(0, 0, 0); font-family: Helvetica; font-size: 26px; font-style: normal; font-variant-ligatures: normal; font-variant-caps: normal; font-weight: 400; letter-spacing: normal; orphans: 2; text-align: left; text-indent: 0px; text-transform: none; widows: 2; word-spacing: 0px; -webkit-text-stroke-width: 0px; background-color: rgb(251, 251, 251); text-decoration-thickness: initial; text-decoration-style: initial; text-decoration-color: initial; float: none; display: inline !important;&quot;&gt;Q1=I2 Q2=0 Z2.libero=1&amp;nbsp;&lt;/span&gt;" style="rounded=0;whiteSpace=wrap;html=1;align=left;" parent="1" vertex="1">
          <mxGeometry x="920" y="260" width="340" height="80" as="geometry" />
        </mxCell>
        <mxCell id="kO7va5F8CQNtJqTx3qPe-14" value="" style="endArrow=classic;html=1;rounded=0;exitX=0.5;exitY=1;exitDx=0;exitDy=0;" parent="1" source="kO7va5F8CQNtJqTx3qPe-11" edge="1">
          <mxGeometry width="50" height="50" relative="1" as="geometry">
            <mxPoint x="640" y="410" as="sourcePoint" />
            <mxPoint x="830" y="410" as="targetPoint" />
          </mxGeometry>
        </mxCell>
        <mxCell id="kO7va5F8CQNtJqTx3qPe-15" value="&lt;span style=&quot;color: rgb(0, 0, 0); font-family: Helvetica; font-size: 48px; font-style: normal; font-variant-ligatures: normal; font-variant-caps: normal; font-weight: 400; letter-spacing: normal; orphans: 2; text-align: center; text-indent: 0px; text-transform: none; widows: 2; word-spacing: 0px; -webkit-text-stroke-width: 0px; background-color: rgb(251, 251, 251); text-decoration-thickness: initial; text-decoration-style: initial; text-decoration-color: initial; float: none; display: inline !important;&quot;&gt;S0&lt;/span&gt;" style="text;whiteSpace=wrap;html=1;" parent="1" vertex="1">
          <mxGeometry x="800" y="410" width="90" height="80" as="geometry" />
        </mxCell>
        <mxCell id="kO7va5F8CQNtJqTx3qPe-16" value="&lt;br&gt;&lt;span style=&quot;color: rgb(0, 0, 0); font-family: Helvetica; font-size: 48px; font-style: normal; font-variant-ligatures: normal; font-variant-caps: normal; font-weight: 400; letter-spacing: normal; orphans: 2; text-align: center; text-indent: 0px; text-transform: none; widows: 2; word-spacing: 0px; -webkit-text-stroke-width: 0px; background-color: rgb(251, 251, 251); text-decoration-thickness: initial; text-decoration-style: initial; text-decoration-color: initial; float: none; display: inline !important;&quot;&gt;S2&lt;/span&gt;&lt;br&gt;" style="whiteSpace=wrap;html=1;aspect=fixed;" parent="1" vertex="1">
          <mxGeometry x="880" y="70" width="80" height="80" as="geometry" />
        </mxCell>
        <mxCell id="kO7va5F8CQNtJqTx3qPe-17" value="&lt;br&gt;&lt;span style=&quot;color: rgb(0, 0, 0); font-family: Helvetica; font-size: 48px; font-style: normal; font-variant-ligatures: normal; font-variant-caps: normal; font-weight: 400; letter-spacing: normal; orphans: 2; text-align: center; text-indent: 0px; text-transform: none; widows: 2; word-spacing: 0px; -webkit-text-stroke-width: 0px; background-color: rgb(251, 251, 251); text-decoration-thickness: initial; text-decoration-style: initial; text-decoration-color: initial; float: none; display: inline !important;&quot;&gt;S0&lt;/span&gt;" style="whiteSpace=wrap;html=1;aspect=fixed;" parent="1" vertex="1">
          <mxGeometry x="710" y="70" width="80" height="80" as="geometry" />
        </mxCell>
        <mxCell id="kO7va5F8CQNtJqTx3qPe-18" value="" style="shape=link;html=1;rounded=0;" parent="1" edge="1">
          <mxGeometry width="100" relative="1" as="geometry">
            <mxPoint x="680" y="169.6" as="sourcePoint" />
            <mxPoint x="980" y="169.6" as="targetPoint" />
          </mxGeometry>
        </mxCell>
        <mxCell id="kO7va5F8CQNtJqTx3qPe-19" value="" style="endArrow=classic;html=1;rounded=0;exitX=0.5;exitY=1;exitDx=0;exitDy=0;" parent="1" source="kO7va5F8CQNtJqTx3qPe-17" edge="1">
          <mxGeometry width="50" height="50" relative="1" as="geometry">
            <mxPoint x="790" y="180" as="sourcePoint" />
            <mxPoint x="750" y="170" as="targetPoint" />
          </mxGeometry>
        </mxCell>
        <mxCell id="kO7va5F8CQNtJqTx3qPe-20" value="" style="endArrow=classic;html=1;rounded=0;exitX=0.5;exitY=1;exitDx=0;exitDy=0;" parent="1" edge="1">
          <mxGeometry width="50" height="50" relative="1" as="geometry">
            <mxPoint x="919.89" y="150" as="sourcePoint" />
            <mxPoint x="919.89" y="170" as="targetPoint" />
          </mxGeometry>
        </mxCell>
        <mxCell id="UwqaJtdpMwMeegFra98r-1" value="&lt;span style=&quot;font-size: 29px;&quot;&gt;...&lt;/span&gt;" style="text;html=1;strokeColor=none;fillColor=none;align=center;verticalAlign=middle;whiteSpace=wrap;rounded=0;" parent="1" vertex="1">
          <mxGeometry x="800" y="90" width="60" height="30" as="geometry" />
        </mxCell>
        <mxCell id="YOvH9GT4opRHazCEUNa3-1" value="&lt;font style=&quot;font-size: 36px;&quot;&gt;Emergenza&lt;/font&gt;" style="text;html=1;strokeColor=none;fillColor=none;align=center;verticalAlign=middle;whiteSpace=wrap;rounded=0;" parent="1" vertex="1">
          <mxGeometry x="1340" y="20" width="265" height="50" as="geometry" />
        </mxCell>
        <mxCell id="YOvH9GT4opRHazCEUNa3-2" value="" style="endArrow=none;html=1;rounded=0;exitX=1;exitY=0.5;exitDx=0;exitDy=0;" parent="1" edge="1">
          <mxGeometry width="50" height="50" relative="1" as="geometry">
            <mxPoint x="1430" y="230" as="sourcePoint" />
            <mxPoint x="1480" y="230" as="targetPoint" />
            <Array as="points">
              <mxPoint x="1480" y="230" />
            </Array>
          </mxGeometry>
        </mxCell>
        <mxCell id="YOvH9GT4opRHazCEUNa3-3" value="" style="endArrow=none;html=1;rounded=0;exitX=0.5;exitY=0;exitDx=0;exitDy=0;" parent="1" edge="1">
          <mxGeometry width="50" height="50" relative="1" as="geometry">
            <mxPoint x="1457" y="270" as="sourcePoint" />
            <mxPoint x="1457" y="180" as="targetPoint" />
          </mxGeometry>
        </mxCell>
        <mxCell id="YOvH9GT4opRHazCEUNa3-4" value="&lt;br&gt;&lt;span style=&quot;color: rgb(0, 0, 0); font-family: Helvetica; font-size: 48px; font-style: normal; font-variant-ligatures: normal; font-variant-caps: normal; font-weight: 400; letter-spacing: normal; orphans: 2; text-align: center; text-indent: 0px; text-transform: none; widows: 2; word-spacing: 0px; -webkit-text-stroke-width: 0px; background-color: rgb(251, 251, 251); text-decoration-thickness: initial; text-decoration-style: initial; text-decoration-color: initial; float: none; display: inline !important;&quot;&gt;SE&lt;/span&gt;" style="whiteSpace=wrap;html=1;aspect=fixed;" parent="1" vertex="1">
          <mxGeometry x="1420" y="270" width="80" height="80" as="geometry" />
        </mxCell>
        <mxCell id="YOvH9GT4opRHazCEUNa3-5" value="" style="endArrow=none;html=1;rounded=0;exitX=1;exitY=0.5;exitDx=0;exitDy=0;" parent="1" edge="1">
          <mxGeometry width="50" height="50" relative="1" as="geometry">
            <mxPoint x="1500" y="310" as="sourcePoint" />
            <mxPoint x="1550" y="310" as="targetPoint" />
            <Array as="points">
              <mxPoint x="1550" y="310" />
            </Array>
          </mxGeometry>
        </mxCell>
        <mxCell id="YOvH9GT4opRHazCEUNa3-6" value="&lt;br&gt;&lt;span style=&quot;color: rgb(0, 0, 0); font-family: Helvetica; font-size: 26px; font-style: normal; font-variant-ligatures: normal; font-variant-caps: normal; font-weight: 400; letter-spacing: normal; orphans: 2; text-align: left; text-indent: 0px; text-transform: none; widows: 2; word-spacing: 0px; -webkit-text-stroke-width: 0px; background-color: rgb(251, 251, 251); text-decoration-thickness: initial; text-decoration-style: initial; text-decoration-color: initial; float: none; display: inline !important;&quot;&gt;Q1=0 Q2=0&lt;/span&gt;" style="rounded=0;whiteSpace=wrap;html=1;align=left;" parent="1" vertex="1">
          <mxGeometry x="1550" y="270" width="340" height="75" as="geometry" />
        </mxCell>
        <mxCell id="YOvH9GT4opRHazCEUNa3-7" value="" style="endArrow=classic;html=1;rounded=0;exitX=0.5;exitY=1;exitDx=0;exitDy=0;" parent="1" source="YOvH9GT4opRHazCEUNa3-4" edge="1">
          <mxGeometry width="50" height="50" relative="1" as="geometry">
            <mxPoint x="1270" y="420" as="sourcePoint" />
            <mxPoint x="1460" y="420" as="targetPoint" />
          </mxGeometry>
        </mxCell>
        <mxCell id="YOvH9GT4opRHazCEUNa3-8" value="&lt;span style=&quot;color: rgb(0, 0, 0); font-family: Helvetica; font-size: 48px; font-style: normal; font-variant-ligatures: normal; font-variant-caps: normal; font-weight: 400; letter-spacing: normal; orphans: 2; text-align: center; text-indent: 0px; text-transform: none; widows: 2; word-spacing: 0px; -webkit-text-stroke-width: 0px; background-color: rgb(251, 251, 251); text-decoration-thickness: initial; text-decoration-style: initial; text-decoration-color: initial; float: none; display: inline !important;&quot;&gt;S0&lt;/span&gt;" style="text;whiteSpace=wrap;html=1;" parent="1" vertex="1">
          <mxGeometry x="1430" y="420" width="90" height="80" as="geometry" />
        </mxCell>
        <mxCell id="YOvH9GT4opRHazCEUNa3-9" value="&lt;br&gt;&lt;span style=&quot;color: rgb(0, 0, 0); font-family: Helvetica; font-size: 48px; font-style: normal; font-variant-ligatures: normal; font-variant-caps: normal; font-weight: 400; letter-spacing: normal; orphans: 2; text-align: center; text-indent: 0px; text-transform: none; widows: 2; word-spacing: 0px; -webkit-text-stroke-width: 0px; background-color: rgb(251, 251, 251); text-decoration-thickness: initial; text-decoration-style: initial; text-decoration-color: initial; float: none; display: inline !important;&quot;&gt;S2&lt;/span&gt;" style="whiteSpace=wrap;html=1;aspect=fixed;" parent="1" vertex="1">
          <mxGeometry x="1510" y="80" width="80" height="80" as="geometry" />
        </mxCell>
        <mxCell id="YOvH9GT4opRHazCEUNa3-10" value="&lt;br&gt;&lt;span style=&quot;color: rgb(0, 0, 0); font-family: Helvetica; font-size: 48px; font-style: normal; font-variant-ligatures: normal; font-variant-caps: normal; font-weight: 400; letter-spacing: normal; orphans: 2; text-align: center; text-indent: 0px; text-transform: none; widows: 2; word-spacing: 0px; -webkit-text-stroke-width: 0px; background-color: rgb(251, 251, 251); text-decoration-thickness: initial; text-decoration-style: initial; text-decoration-color: initial; float: none; display: inline !important;&quot;&gt;S0&lt;/span&gt;" style="whiteSpace=wrap;html=1;aspect=fixed;" parent="1" vertex="1">
          <mxGeometry x="1340" y="80" width="80" height="80" as="geometry" />
        </mxCell>
        <mxCell id="YOvH9GT4opRHazCEUNa3-11" value="" style="shape=link;html=1;rounded=0;" parent="1" edge="1">
          <mxGeometry width="100" relative="1" as="geometry">
            <mxPoint x="1310" y="179.60000000000002" as="sourcePoint" />
            <mxPoint x="1610" y="179.60000000000002" as="targetPoint" />
          </mxGeometry>
        </mxCell>
        <mxCell id="YOvH9GT4opRHazCEUNa3-12" value="" style="endArrow=classic;html=1;rounded=0;exitX=0.5;exitY=1;exitDx=0;exitDy=0;" parent="1" source="YOvH9GT4opRHazCEUNa3-10" edge="1">
          <mxGeometry width="50" height="50" relative="1" as="geometry">
            <mxPoint x="1420" y="190" as="sourcePoint" />
            <mxPoint x="1380" y="180" as="targetPoint" />
          </mxGeometry>
        </mxCell>
        <mxCell id="YOvH9GT4opRHazCEUNa3-13" value="" style="endArrow=classic;html=1;rounded=0;exitX=0.5;exitY=1;exitDx=0;exitDy=0;" parent="1" edge="1">
          <mxGeometry width="50" height="50" relative="1" as="geometry">
            <mxPoint x="1549.8899999999999" y="160" as="sourcePoint" />
            <mxPoint x="1549.8899999999999" y="180" as="targetPoint" />
          </mxGeometry>
        </mxCell>
        <mxCell id="YOvH9GT4opRHazCEUNa3-14" value="&lt;span style=&quot;font-size: 29px;&quot;&gt;...&lt;/span&gt;" style="text;html=1;strokeColor=none;fillColor=none;align=center;verticalAlign=middle;whiteSpace=wrap;rounded=0;" parent="1" vertex="1">
          <mxGeometry x="1430" y="100" width="60" height="30" as="geometry" />
        </mxCell>
        <mxCell id="YOvH9GT4opRHazCEUNa3-15" value="&lt;span style=&quot;font-size: 26px;&quot;&gt;NOT Enable OR Emg&lt;/span&gt;" style="text;whiteSpace=wrap;html=1;" parent="1" vertex="1">
          <mxGeometry x="1500" y="210" width="515" height="50" as="geometry" />
        </mxCell>
        <mxCell id="YOvH9GT4opRHazCEUNa3-16" value="" style="endArrow=none;html=1;rounded=0;exitX=1;exitY=0.5;exitDx=0;exitDy=0;" parent="1" edge="1">
          <mxGeometry width="50" height="50" relative="1" as="geometry">
            <mxPoint x="1430" y="385" as="sourcePoint" />
            <mxPoint x="1480" y="385" as="targetPoint" />
            <Array as="points">
              <mxPoint x="1480" y="385" />
            </Array>
          </mxGeometry>
        </mxCell>
        <mxCell id="YOvH9GT4opRHazCEUNa3-17" value="&lt;span style=&quot;font-size: 26px;&quot;&gt;Enable AND NOT Emg&lt;/span&gt;" style="text;whiteSpace=wrap;html=1;" parent="1" vertex="1">
          <mxGeometry x="1500" y="365" width="515" height="50" as="geometry" />
        </mxCell>
      </root>
    </mxGraphModel>
  </diagram>
  <diagram id="tvE1twVuVWI8mCRRK8lq" name="Zona 3">
    <mxGraphModel dx="1269" dy="608" grid="1" gridSize="10" guides="1" tooltips="1" connect="1" arrows="1" fold="1" page="1" pageScale="1" pageWidth="827" pageHeight="1169" math="0" shadow="0">
      <root>
        <mxCell id="0" />
        <mxCell id="1" parent="0" />
        <mxCell id="0ky9zRAhfl41TZxToyhR-1" value="" style="whiteSpace=wrap;html=1;aspect=fixed;" parent="1" vertex="1">
          <mxGeometry x="70" y="90" width="80" height="80" as="geometry" />
        </mxCell>
        <mxCell id="0ky9zRAhfl41TZxToyhR-2" value="&lt;br&gt;&lt;span style=&quot;color: rgb(0, 0, 0); font-family: Helvetica; font-size: 48px; font-style: normal; font-variant-ligatures: normal; font-variant-caps: normal; font-weight: 400; letter-spacing: normal; orphans: 2; text-align: center; text-indent: 0px; text-transform: none; widows: 2; word-spacing: 0px; -webkit-text-stroke-width: 0px; background-color: rgb(251, 251, 251); text-decoration-thickness: initial; text-decoration-style: initial; text-decoration-color: initial; float: none; display: inline !important;&quot;&gt;S1&lt;/span&gt;" style="whiteSpace=wrap;html=1;aspect=fixed;" parent="1" vertex="1">
          <mxGeometry x="70" y="250" width="80" height="80" as="geometry" />
        </mxCell>
        <mxCell id="0ky9zRAhfl41TZxToyhR-3" value="&lt;br&gt;&lt;span style=&quot;color: rgb(0, 0, 0); font-family: Helvetica; font-size: 48px; font-style: normal; font-variant-ligatures: normal; font-variant-caps: normal; font-weight: 400; letter-spacing: normal; orphans: 2; text-align: center; text-indent: 0px; text-transform: none; widows: 2; word-spacing: 0px; -webkit-text-stroke-width: 0px; background-color: rgb(251, 251, 251); text-decoration-thickness: initial; text-decoration-style: initial; text-decoration-color: initial; float: none; display: inline !important;&quot;&gt;S2&lt;/span&gt;&lt;br&gt;" style="whiteSpace=wrap;html=1;aspect=fixed;" parent="1" vertex="1">
          <mxGeometry x="70" y="410" width="80" height="80" as="geometry" />
        </mxCell>
        <mxCell id="0ky9zRAhfl41TZxToyhR-4" value="&lt;br&gt;&lt;span style=&quot;color: rgb(0, 0, 0); font-family: Helvetica; font-size: 48px; font-style: normal; font-variant-ligatures: normal; font-variant-caps: normal; font-weight: 400; letter-spacing: normal; orphans: 2; text-align: center; text-indent: 0px; text-transform: none; widows: 2; word-spacing: 0px; -webkit-text-stroke-width: 0px; background-color: rgb(251, 251, 251); text-decoration-thickness: initial; text-decoration-style: initial; text-decoration-color: initial; float: none; display: inline !important;&quot;&gt;S3&lt;/span&gt;&lt;br&gt;" style="whiteSpace=wrap;html=1;aspect=fixed;" parent="1" vertex="1">
          <mxGeometry x="70" y="570" width="80" height="80" as="geometry" />
        </mxCell>
        <mxCell id="0ky9zRAhfl41TZxToyhR-5" value="&lt;font style=&quot;font-size: 48px;&quot;&gt;S0&lt;/font&gt;" style="whiteSpace=wrap;html=1;aspect=fixed;" parent="1" vertex="1">
          <mxGeometry x="75" y="95" width="70" height="70" as="geometry" />
        </mxCell>
        <mxCell id="0ky9zRAhfl41TZxToyhR-6" value="" style="endArrow=none;html=1;rounded=0;exitX=1;exitY=0.5;exitDx=0;exitDy=0;" parent="1" source="0ky9zRAhfl41TZxToyhR-1" edge="1">
          <mxGeometry width="50" height="50" relative="1" as="geometry">
            <mxPoint x="160" y="130" as="sourcePoint" />
            <mxPoint x="200" y="130" as="targetPoint" />
            <Array as="points">
              <mxPoint x="200" y="130" />
            </Array>
          </mxGeometry>
        </mxCell>
        <mxCell id="0ky9zRAhfl41TZxToyhR-7" value="&lt;span style=&quot;font-size: 26px;&quot;&gt;Q6=0 Q7=0 Z3.libero=1&lt;/span&gt;" style="rounded=0;whiteSpace=wrap;html=1;align=left;" parent="1" vertex="1">
          <mxGeometry x="200" y="90" width="340" height="80" as="geometry" />
        </mxCell>
        <mxCell id="0ky9zRAhfl41TZxToyhR-8" value="" style="endArrow=none;html=1;rounded=0;exitX=1;exitY=0.5;exitDx=0;exitDy=0;" parent="1" edge="1">
          <mxGeometry width="50" height="50" relative="1" as="geometry">
            <mxPoint x="150" y="290" as="sourcePoint" />
            <mxPoint x="200" y="290" as="targetPoint" />
            <Array as="points">
              <mxPoint x="200" y="290" />
            </Array>
          </mxGeometry>
        </mxCell>
        <mxCell id="0ky9zRAhfl41TZxToyhR-9" value="&lt;span style=&quot;color: rgb(0, 0, 0); font-family: Helvetica; font-size: 26px; font-style: normal; font-variant-ligatures: normal; font-variant-caps: normal; font-weight: 400; letter-spacing: normal; orphans: 2; text-indent: 0px; text-transform: none; widows: 2; word-spacing: 0px; -webkit-text-stroke-width: 0px; background-color: rgb(251, 251, 251); text-decoration-thickness: initial; text-decoration-style: initial; text-decoration-color: initial; float: none; display: inline !important;&quot;&gt;Q6=1 Q7=0 Z3.libero=0&lt;/span&gt;" style="rounded=0;whiteSpace=wrap;html=1;align=left;" parent="1" vertex="1">
          <mxGeometry x="200" y="250" width="340" height="80" as="geometry" />
        </mxCell>
        <mxCell id="0ky9zRAhfl41TZxToyhR-10" value="" style="endArrow=none;html=1;rounded=0;exitX=1;exitY=0.5;exitDx=0;exitDy=0;" parent="1" edge="1">
          <mxGeometry width="50" height="50" relative="1" as="geometry">
            <mxPoint x="150" y="450" as="sourcePoint" />
            <mxPoint x="200" y="450" as="targetPoint" />
            <Array as="points">
              <mxPoint x="200" y="450" />
            </Array>
          </mxGeometry>
        </mxCell>
        <mxCell id="0ky9zRAhfl41TZxToyhR-11" value="&lt;span style=&quot;color: rgb(0, 0, 0); font-family: Helvetica; font-size: 26px; font-style: normal; font-variant-ligatures: normal; font-variant-caps: normal; font-weight: 400; letter-spacing: normal; orphans: 2; text-indent: 0px; text-transform: none; widows: 2; word-spacing: 0px; -webkit-text-stroke-width: 0px; background-color: rgb(251, 251, 251); text-decoration-thickness: initial; text-decoration-style: initial; text-decoration-color: initial; float: none; display: inline !important;&quot;&gt;Q6=0 Q7=1 Z3.libero=0 Ton&lt;sub&gt;4s&lt;/sub&gt;=ON&lt;/span&gt;" style="rounded=0;whiteSpace=wrap;html=1;align=left;" parent="1" vertex="1">
          <mxGeometry x="200" y="410" width="340" height="80" as="geometry" />
        </mxCell>
        <mxCell id="0ky9zRAhfl41TZxToyhR-12" value="" style="endArrow=none;html=1;rounded=0;exitX=1;exitY=0.5;exitDx=0;exitDy=0;" parent="1" edge="1">
          <mxGeometry width="50" height="50" relative="1" as="geometry">
            <mxPoint x="150" y="610" as="sourcePoint" />
            <mxPoint x="200" y="610" as="targetPoint" />
            <Array as="points">
              <mxPoint x="200" y="610" />
            </Array>
          </mxGeometry>
        </mxCell>
        <mxCell id="0ky9zRAhfl41TZxToyhR-13" value="&lt;span style=&quot;color: rgb(0, 0, 0); font-family: Helvetica; font-style: normal; font-variant-ligatures: normal; font-variant-caps: normal; font-weight: 400; letter-spacing: normal; orphans: 2; text-indent: 0px; text-transform: none; widows: 2; word-spacing: 0px; -webkit-text-stroke-width: 0px; background-color: rgb(251, 251, 251); text-decoration-thickness: initial; text-decoration-style: initial; text-decoration-color: initial; float: none; display: inline !important;&quot;&gt;&lt;span style=&quot;font-size: 26px;&quot;&gt;Q6=0 Q7=0 Z3.libero=0&amp;nbsp;&lt;/span&gt;&lt;/span&gt;" style="rounded=0;whiteSpace=wrap;html=1;align=left;" parent="1" vertex="1">
          <mxGeometry x="200" y="570" width="340" height="80" as="geometry" />
        </mxCell>
        <mxCell id="0ky9zRAhfl41TZxToyhR-14" value="&lt;font style=&quot;font-size: 36px;&quot;&gt;Zona 3&lt;/font&gt;" style="text;html=1;strokeColor=none;fillColor=none;align=center;verticalAlign=middle;whiteSpace=wrap;rounded=0;" parent="1" vertex="1">
          <mxGeometry x="50" y="10" width="265" height="50" as="geometry" />
        </mxCell>
        <mxCell id="0ky9zRAhfl41TZxToyhR-15" value="" style="endArrow=none;html=1;rounded=0;entryX=0.5;entryY=1;entryDx=0;entryDy=0;exitX=0.5;exitY=0;exitDx=0;exitDy=0;" parent="1" source="0ky9zRAhfl41TZxToyhR-2" target="0ky9zRAhfl41TZxToyhR-1" edge="1">
          <mxGeometry width="50" height="50" relative="1" as="geometry">
            <mxPoint x="200" y="350" as="sourcePoint" />
            <mxPoint x="250" y="300" as="targetPoint" />
          </mxGeometry>
        </mxCell>
        <mxCell id="0ky9zRAhfl41TZxToyhR-16" value="" style="endArrow=none;html=1;rounded=0;exitX=1;exitY=0.5;exitDx=0;exitDy=0;" parent="1" edge="1">
          <mxGeometry width="50" height="50" relative="1" as="geometry">
            <mxPoint x="85" y="210" as="sourcePoint" />
            <mxPoint x="135" y="210" as="targetPoint" />
            <Array as="points">
              <mxPoint x="135" y="210" />
            </Array>
          </mxGeometry>
        </mxCell>
        <mxCell id="0ky9zRAhfl41TZxToyhR-17" value="&lt;span style=&quot;font-size: 26px;&quot;&gt;Enable AND Z3.trigger=1 AND I6=1&amp;nbsp;&lt;/span&gt;" style="text;whiteSpace=wrap;html=1;" parent="1" vertex="1">
          <mxGeometry x="145" y="190" width="435" height="50" as="geometry" />
        </mxCell>
        <mxCell id="0ky9zRAhfl41TZxToyhR-18" value="" style="endArrow=none;html=1;rounded=0;entryX=0.5;entryY=1;entryDx=0;entryDy=0;exitX=0.5;exitY=0;exitDx=0;exitDy=0;" parent="1" edge="1">
          <mxGeometry width="50" height="50" relative="1" as="geometry">
            <mxPoint x="110" y="410" as="sourcePoint" />
            <mxPoint x="110" y="330" as="targetPoint" />
          </mxGeometry>
        </mxCell>
        <mxCell id="0ky9zRAhfl41TZxToyhR-19" value="" style="endArrow=none;html=1;rounded=0;exitX=1;exitY=0.5;exitDx=0;exitDy=0;" parent="1" edge="1">
          <mxGeometry width="50" height="50" relative="1" as="geometry">
            <mxPoint x="85" y="370" as="sourcePoint" />
            <mxPoint x="135" y="370" as="targetPoint" />
            <Array as="points">
              <mxPoint x="135" y="370" />
            </Array>
          </mxGeometry>
        </mxCell>
        <mxCell id="0ky9zRAhfl41TZxToyhR-20" value="&lt;span style=&quot;font-size: 26px;&quot;&gt;I6=0&amp;nbsp;&lt;/span&gt;" style="text;whiteSpace=wrap;html=1;" parent="1" vertex="1">
          <mxGeometry x="145" y="350" width="395" height="50" as="geometry" />
        </mxCell>
        <mxCell id="0ky9zRAhfl41TZxToyhR-21" value="" style="endArrow=none;html=1;rounded=0;exitX=1;exitY=0.5;exitDx=0;exitDy=0;" parent="1" edge="1">
          <mxGeometry width="50" height="50" relative="1" as="geometry">
            <mxPoint x="85" y="530" as="sourcePoint" />
            <mxPoint x="135" y="530" as="targetPoint" />
            <Array as="points">
              <mxPoint x="135" y="530" />
            </Array>
          </mxGeometry>
        </mxCell>
        <mxCell id="0ky9zRAhfl41TZxToyhR-22" value="&lt;span style=&quot;font-size: 26px;&quot;&gt;Ton&lt;sub&gt;4s&lt;/sub&gt;=1&lt;/span&gt;" style="text;whiteSpace=wrap;html=1;" parent="1" vertex="1">
          <mxGeometry x="145" y="510" width="395" height="50" as="geometry" />
        </mxCell>
        <mxCell id="0ky9zRAhfl41TZxToyhR-23" value="" style="endArrow=none;html=1;rounded=0;entryX=0.5;entryY=1;entryDx=0;entryDy=0;exitX=0.5;exitY=0;exitDx=0;exitDy=0;" parent="1" edge="1">
          <mxGeometry width="50" height="50" relative="1" as="geometry">
            <mxPoint x="110" y="730" as="sourcePoint" />
            <mxPoint x="110" y="650" as="targetPoint" />
          </mxGeometry>
        </mxCell>
        <mxCell id="0ky9zRAhfl41TZxToyhR-24" value="" style="endArrow=none;html=1;rounded=0;exitX=1;exitY=0.5;exitDx=0;exitDy=0;" parent="1" edge="1">
          <mxGeometry width="50" height="50" relative="1" as="geometry">
            <mxPoint x="85" y="690" as="sourcePoint" />
            <mxPoint x="135" y="690" as="targetPoint" />
            <Array as="points">
              <mxPoint x="135" y="690" />
            </Array>
          </mxGeometry>
        </mxCell>
        <mxCell id="0ky9zRAhfl41TZxToyhR-25" value="&lt;span style=&quot;font-size: 26px;&quot;&gt;Z4.libero=1&lt;/span&gt;" style="text;whiteSpace=wrap;html=1;" parent="1" vertex="1">
          <mxGeometry x="145" y="670" width="395" height="50" as="geometry" />
        </mxCell>
        <mxCell id="0ky9zRAhfl41TZxToyhR-26" value="" style="endArrow=classic;html=1;rounded=0;entryX=0;entryY=0.5;entryDx=0;entryDy=0;exitX=0.5;exitY=1;exitDx=0;exitDy=0;" parent="1" source="0ky9zRAhfl41TZxToyhR-28" target="0ky9zRAhfl41TZxToyhR-1" edge="1">
          <mxGeometry width="50" height="50" relative="1" as="geometry">
            <mxPoint x="110" y="730" as="sourcePoint" />
            <mxPoint x="20" y="130" as="targetPoint" />
            <Array as="points">
              <mxPoint x="110" y="880" />
              <mxPoint x="40" y="880" />
              <mxPoint x="30" y="130" />
            </Array>
          </mxGeometry>
        </mxCell>
        <mxCell id="0ky9zRAhfl41TZxToyhR-27" value="" style="endArrow=none;html=1;rounded=0;entryX=0.5;entryY=1;entryDx=0;entryDy=0;exitX=0.5;exitY=0;exitDx=0;exitDy=0;" parent="1" edge="1">
          <mxGeometry width="50" height="50" relative="1" as="geometry">
            <mxPoint x="109.28999999999999" y="570" as="sourcePoint" />
            <mxPoint x="109.28999999999999" y="490" as="targetPoint" />
          </mxGeometry>
        </mxCell>
        <mxCell id="0ky9zRAhfl41TZxToyhR-28" value="&lt;br&gt;&lt;span style=&quot;color: rgb(0, 0, 0); font-family: Helvetica; font-size: 48px; font-style: normal; font-variant-ligatures: normal; font-variant-caps: normal; font-weight: 400; letter-spacing: normal; orphans: 2; text-align: center; text-indent: 0px; text-transform: none; widows: 2; word-spacing: 0px; -webkit-text-stroke-width: 0px; background-color: rgb(251, 251, 251); text-decoration-thickness: initial; text-decoration-style: initial; text-decoration-color: initial; float: none; display: inline !important;&quot;&gt;S4&lt;/span&gt;" style="whiteSpace=wrap;html=1;aspect=fixed;" parent="1" vertex="1">
          <mxGeometry x="70" y="730" width="80" height="80" as="geometry" />
        </mxCell>
        <mxCell id="0ky9zRAhfl41TZxToyhR-29" value="" style="endArrow=none;html=1;rounded=0;exitX=1;exitY=0.5;exitDx=0;exitDy=0;" parent="1" edge="1">
          <mxGeometry width="50" height="50" relative="1" as="geometry">
            <mxPoint x="150" y="770" as="sourcePoint" />
            <mxPoint x="200" y="770" as="targetPoint" />
            <Array as="points">
              <mxPoint x="200" y="770" />
            </Array>
          </mxGeometry>
        </mxCell>
        <mxCell id="0ky9zRAhfl41TZxToyhR-30" value="&lt;span style=&quot;color: rgb(0, 0, 0); font-family: Helvetica; font-style: normal; font-variant-ligatures: normal; font-variant-caps: normal; font-weight: 400; letter-spacing: normal; orphans: 2; text-indent: 0px; text-transform: none; widows: 2; word-spacing: 0px; -webkit-text-stroke-width: 0px; background-color: rgb(251, 251, 251); text-decoration-thickness: initial; text-decoration-style: initial; text-decoration-color: initial; float: none; display: inline !important;&quot;&gt;&lt;span style=&quot;font-size: 26px;&quot;&gt;Q6=1 Q7=0 Z3.libero=0 Tritardo=ON&amp;nbsp;&lt;/span&gt;&lt;/span&gt;" style="rounded=0;whiteSpace=wrap;html=1;align=left;" parent="1" vertex="1">
          <mxGeometry x="200" y="730" width="340" height="80" as="geometry" />
        </mxCell>
        <mxCell id="0ky9zRAhfl41TZxToyhR-31" value="" style="endArrow=none;html=1;rounded=0;exitX=1;exitY=0.5;exitDx=0;exitDy=0;" parent="1" edge="1">
          <mxGeometry width="50" height="50" relative="1" as="geometry">
            <mxPoint x="85" y="850" as="sourcePoint" />
            <mxPoint x="135" y="850" as="targetPoint" />
            <Array as="points">
              <mxPoint x="135" y="850" />
            </Array>
          </mxGeometry>
        </mxCell>
        <mxCell id="0ky9zRAhfl41TZxToyhR-32" value="&lt;span style=&quot;font-size: 26px;&quot;&gt;I8=1 AND Tritardo=1&lt;/span&gt;" style="text;whiteSpace=wrap;html=1;" parent="1" vertex="1">
          <mxGeometry x="145" y="830" width="395" height="50" as="geometry" />
        </mxCell>
        <mxCell id="2IE0x1pe512f9kZjQ_hN-1" value="&lt;font style=&quot;font-size: 36px;&quot;&gt;Emergenza&lt;/font&gt;" style="text;html=1;strokeColor=none;fillColor=none;align=center;verticalAlign=middle;whiteSpace=wrap;rounded=0;" parent="1" vertex="1">
          <mxGeometry x="690" y="20" width="265" height="50" as="geometry" />
        </mxCell>
        <mxCell id="2IE0x1pe512f9kZjQ_hN-2" value="" style="endArrow=none;html=1;rounded=0;exitX=1;exitY=0.5;exitDx=0;exitDy=0;" parent="1" edge="1">
          <mxGeometry width="50" height="50" relative="1" as="geometry">
            <mxPoint x="780" y="230" as="sourcePoint" />
            <mxPoint x="830" y="230" as="targetPoint" />
            <Array as="points">
              <mxPoint x="830" y="230" />
            </Array>
          </mxGeometry>
        </mxCell>
        <mxCell id="2IE0x1pe512f9kZjQ_hN-3" value="" style="endArrow=none;html=1;rounded=0;exitX=0.5;exitY=0;exitDx=0;exitDy=0;" parent="1" edge="1">
          <mxGeometry width="50" height="50" relative="1" as="geometry">
            <mxPoint x="807" y="270" as="sourcePoint" />
            <mxPoint x="807" y="180" as="targetPoint" />
          </mxGeometry>
        </mxCell>
        <mxCell id="2IE0x1pe512f9kZjQ_hN-4" value="&lt;br&gt;&lt;span style=&quot;color: rgb(0, 0, 0); font-family: Helvetica; font-size: 48px; font-style: normal; font-variant-ligatures: normal; font-variant-caps: normal; font-weight: 400; letter-spacing: normal; orphans: 2; text-align: center; text-indent: 0px; text-transform: none; widows: 2; word-spacing: 0px; -webkit-text-stroke-width: 0px; background-color: rgb(251, 251, 251); text-decoration-thickness: initial; text-decoration-style: initial; text-decoration-color: initial; float: none; display: inline !important;&quot;&gt;SE&lt;/span&gt;" style="whiteSpace=wrap;html=1;aspect=fixed;" parent="1" vertex="1">
          <mxGeometry x="770" y="270" width="80" height="80" as="geometry" />
        </mxCell>
        <mxCell id="2IE0x1pe512f9kZjQ_hN-5" value="" style="endArrow=none;html=1;rounded=0;exitX=1;exitY=0.5;exitDx=0;exitDy=0;" parent="1" edge="1">
          <mxGeometry width="50" height="50" relative="1" as="geometry">
            <mxPoint x="850" y="310" as="sourcePoint" />
            <mxPoint x="900" y="310" as="targetPoint" />
            <Array as="points">
              <mxPoint x="900" y="310" />
            </Array>
          </mxGeometry>
        </mxCell>
        <mxCell id="2IE0x1pe512f9kZjQ_hN-6" value="&lt;br&gt;&lt;span style=&quot;color: rgb(0, 0, 0); font-family: Helvetica; font-size: 26px; font-style: normal; font-variant-ligatures: normal; font-variant-caps: normal; font-weight: 400; letter-spacing: normal; orphans: 2; text-align: left; text-indent: 0px; text-transform: none; widows: 2; word-spacing: 0px; -webkit-text-stroke-width: 0px; background-color: rgb(251, 251, 251); text-decoration-thickness: initial; text-decoration-style: initial; text-decoration-color: initial; float: none; display: inline !important;&quot;&gt;Q6=0 Q7=0&amp;nbsp;&lt;/span&gt;" style="rounded=0;whiteSpace=wrap;html=1;align=left;" parent="1" vertex="1">
          <mxGeometry x="900" y="270" width="340" height="75" as="geometry" />
        </mxCell>
        <mxCell id="2IE0x1pe512f9kZjQ_hN-7" value="" style="endArrow=classic;html=1;rounded=0;exitX=0.5;exitY=1;exitDx=0;exitDy=0;" parent="1" source="2IE0x1pe512f9kZjQ_hN-4" edge="1">
          <mxGeometry width="50" height="50" relative="1" as="geometry">
            <mxPoint x="620" y="420" as="sourcePoint" />
            <mxPoint x="810" y="420" as="targetPoint" />
          </mxGeometry>
        </mxCell>
        <mxCell id="2IE0x1pe512f9kZjQ_hN-8" value="&lt;span style=&quot;color: rgb(0, 0, 0); font-family: Helvetica; font-size: 48px; font-style: normal; font-variant-ligatures: normal; font-variant-caps: normal; font-weight: 400; letter-spacing: normal; orphans: 2; text-align: center; text-indent: 0px; text-transform: none; widows: 2; word-spacing: 0px; -webkit-text-stroke-width: 0px; background-color: rgb(251, 251, 251); text-decoration-thickness: initial; text-decoration-style: initial; text-decoration-color: initial; float: none; display: inline !important;&quot;&gt;S0&lt;/span&gt;" style="text;whiteSpace=wrap;html=1;" parent="1" vertex="1">
          <mxGeometry x="780" y="420" width="90" height="80" as="geometry" />
        </mxCell>
        <mxCell id="2IE0x1pe512f9kZjQ_hN-9" value="&lt;br&gt;&lt;span style=&quot;color: rgb(0, 0, 0); font-family: Helvetica; font-size: 48px; font-style: normal; font-variant-ligatures: normal; font-variant-caps: normal; font-weight: 400; letter-spacing: normal; orphans: 2; text-align: center; text-indent: 0px; text-transform: none; widows: 2; word-spacing: 0px; -webkit-text-stroke-width: 0px; background-color: rgb(251, 251, 251); text-decoration-thickness: initial; text-decoration-style: initial; text-decoration-color: initial; float: none; display: inline !important;&quot;&gt;S4&lt;/span&gt;" style="whiteSpace=wrap;html=1;aspect=fixed;" parent="1" vertex="1">
          <mxGeometry x="860" y="80" width="80" height="80" as="geometry" />
        </mxCell>
        <mxCell id="2IE0x1pe512f9kZjQ_hN-10" value="&lt;br&gt;&lt;span style=&quot;color: rgb(0, 0, 0); font-family: Helvetica; font-size: 48px; font-style: normal; font-variant-ligatures: normal; font-variant-caps: normal; font-weight: 400; letter-spacing: normal; orphans: 2; text-align: center; text-indent: 0px; text-transform: none; widows: 2; word-spacing: 0px; -webkit-text-stroke-width: 0px; background-color: rgb(251, 251, 251); text-decoration-thickness: initial; text-decoration-style: initial; text-decoration-color: initial; float: none; display: inline !important;&quot;&gt;S0&lt;/span&gt;" style="whiteSpace=wrap;html=1;aspect=fixed;" parent="1" vertex="1">
          <mxGeometry x="690" y="80" width="80" height="80" as="geometry" />
        </mxCell>
        <mxCell id="2IE0x1pe512f9kZjQ_hN-11" value="" style="shape=link;html=1;rounded=0;" parent="1" edge="1">
          <mxGeometry width="100" relative="1" as="geometry">
            <mxPoint x="660" y="179.60000000000002" as="sourcePoint" />
            <mxPoint x="960" y="179.60000000000002" as="targetPoint" />
          </mxGeometry>
        </mxCell>
        <mxCell id="2IE0x1pe512f9kZjQ_hN-12" value="" style="endArrow=classic;html=1;rounded=0;exitX=0.5;exitY=1;exitDx=0;exitDy=0;" parent="1" source="2IE0x1pe512f9kZjQ_hN-10" edge="1">
          <mxGeometry width="50" height="50" relative="1" as="geometry">
            <mxPoint x="770" y="190" as="sourcePoint" />
            <mxPoint x="730" y="180" as="targetPoint" />
          </mxGeometry>
        </mxCell>
        <mxCell id="2IE0x1pe512f9kZjQ_hN-13" value="" style="endArrow=classic;html=1;rounded=0;exitX=0.5;exitY=1;exitDx=0;exitDy=0;" parent="1" edge="1">
          <mxGeometry width="50" height="50" relative="1" as="geometry">
            <mxPoint x="899.89" y="160" as="sourcePoint" />
            <mxPoint x="899.89" y="180" as="targetPoint" />
          </mxGeometry>
        </mxCell>
        <mxCell id="2IE0x1pe512f9kZjQ_hN-14" value="&lt;span style=&quot;font-size: 29px;&quot;&gt;...&lt;/span&gt;" style="text;html=1;strokeColor=none;fillColor=none;align=center;verticalAlign=middle;whiteSpace=wrap;rounded=0;" parent="1" vertex="1">
          <mxGeometry x="780" y="100" width="60" height="30" as="geometry" />
        </mxCell>
        <mxCell id="2IE0x1pe512f9kZjQ_hN-15" value="&lt;span style=&quot;font-size: 26px;&quot;&gt;NOT Enable OR Emg&lt;/span&gt;" style="text;whiteSpace=wrap;html=1;" parent="1" vertex="1">
          <mxGeometry x="850" y="210" width="515" height="50" as="geometry" />
        </mxCell>
        <mxCell id="2IE0x1pe512f9kZjQ_hN-16" value="" style="endArrow=none;html=1;rounded=0;exitX=1;exitY=0.5;exitDx=0;exitDy=0;" parent="1" edge="1">
          <mxGeometry width="50" height="50" relative="1" as="geometry">
            <mxPoint x="780" y="385" as="sourcePoint" />
            <mxPoint x="830" y="385" as="targetPoint" />
            <Array as="points">
              <mxPoint x="830" y="385" />
            </Array>
          </mxGeometry>
        </mxCell>
        <mxCell id="2IE0x1pe512f9kZjQ_hN-17" value="&lt;span style=&quot;font-size: 26px;&quot;&gt;Enable AND NOT Emg&lt;/span&gt;" style="text;whiteSpace=wrap;html=1;" parent="1" vertex="1">
          <mxGeometry x="850" y="365" width="515" height="50" as="geometry" />
        </mxCell>
      </root>
    </mxGraphModel>
  </diagram>
  <diagram id="YLQSGPr49OpwogRl94I5" name="Zona 4">
    <mxGraphModel dx="2278" dy="1216" grid="1" gridSize="10" guides="1" tooltips="1" connect="1" arrows="1" fold="1" page="1" pageScale="1" pageWidth="827" pageHeight="1169" math="0" shadow="0">
      <root>
        <mxCell id="0" />
        <mxCell id="1" parent="0" />
        <mxCell id="HDXP4d2QLceaxivivlkf-1" value="" style="whiteSpace=wrap;html=1;aspect=fixed;" parent="1" vertex="1">
          <mxGeometry x="70" y="90" width="80" height="80" as="geometry" />
        </mxCell>
        <mxCell id="HDXP4d2QLceaxivivlkf-2" value="&lt;br&gt;&lt;span style=&quot;color: rgb(0, 0, 0); font-family: Helvetica; font-size: 48px; font-style: normal; font-variant-ligatures: normal; font-variant-caps: normal; font-weight: 400; letter-spacing: normal; orphans: 2; text-align: center; text-indent: 0px; text-transform: none; widows: 2; word-spacing: 0px; -webkit-text-stroke-width: 0px; background-color: rgb(251, 251, 251); text-decoration-thickness: initial; text-decoration-style: initial; text-decoration-color: initial; float: none; display: inline !important;&quot;&gt;S1&lt;/span&gt;" style="whiteSpace=wrap;html=1;aspect=fixed;" parent="1" vertex="1">
          <mxGeometry x="70" y="250" width="80" height="80" as="geometry" />
        </mxCell>
        <mxCell id="HDXP4d2QLceaxivivlkf-3" value="&lt;br&gt;&lt;span style=&quot;color: rgb(0, 0, 0); font-family: Helvetica; font-size: 48px; font-style: normal; font-variant-ligatures: normal; font-variant-caps: normal; font-weight: 400; letter-spacing: normal; orphans: 2; text-align: center; text-indent: 0px; text-transform: none; widows: 2; word-spacing: 0px; -webkit-text-stroke-width: 0px; background-color: rgb(251, 251, 251); text-decoration-thickness: initial; text-decoration-style: initial; text-decoration-color: initial; float: none; display: inline !important;&quot;&gt;S2&lt;/span&gt;&lt;br&gt;" style="whiteSpace=wrap;html=1;aspect=fixed;" parent="1" vertex="1">
          <mxGeometry x="70" y="410" width="80" height="80" as="geometry" />
        </mxCell>
        <mxCell id="HDXP4d2QLceaxivivlkf-4" value="&lt;br&gt;&lt;span style=&quot;color: rgb(0, 0, 0); font-family: Helvetica; font-size: 48px; font-style: normal; font-variant-ligatures: normal; font-variant-caps: normal; font-weight: 400; letter-spacing: normal; orphans: 2; text-align: center; text-indent: 0px; text-transform: none; widows: 2; word-spacing: 0px; -webkit-text-stroke-width: 0px; background-color: rgb(251, 251, 251); text-decoration-thickness: initial; text-decoration-style: initial; text-decoration-color: initial; float: none; display: inline !important;&quot;&gt;S3&lt;/span&gt;&lt;br&gt;" style="whiteSpace=wrap;html=1;aspect=fixed;" parent="1" vertex="1">
          <mxGeometry x="70" y="570" width="80" height="80" as="geometry" />
        </mxCell>
        <mxCell id="HDXP4d2QLceaxivivlkf-5" value="&lt;font style=&quot;font-size: 48px;&quot;&gt;S0&lt;/font&gt;" style="whiteSpace=wrap;html=1;aspect=fixed;" parent="1" vertex="1">
          <mxGeometry x="75" y="95" width="70" height="70" as="geometry" />
        </mxCell>
        <mxCell id="HDXP4d2QLceaxivivlkf-6" value="" style="endArrow=none;html=1;rounded=0;exitX=1;exitY=0.5;exitDx=0;exitDy=0;" parent="1" source="HDXP4d2QLceaxivivlkf-1" edge="1">
          <mxGeometry width="50" height="50" relative="1" as="geometry">
            <mxPoint x="160" y="130" as="sourcePoint" />
            <mxPoint x="200" y="130" as="targetPoint" />
            <Array as="points">
              <mxPoint x="200" y="130" />
            </Array>
          </mxGeometry>
        </mxCell>
        <mxCell id="HDXP4d2QLceaxivivlkf-7" value="&lt;span style=&quot;font-size: 26px;&quot;&gt;Q8=0 Q9=0 Z4.libero=1&lt;/span&gt;" style="rounded=0;whiteSpace=wrap;html=1;align=left;" parent="1" vertex="1">
          <mxGeometry x="200" y="90" width="340" height="80" as="geometry" />
        </mxCell>
        <mxCell id="HDXP4d2QLceaxivivlkf-8" value="" style="endArrow=none;html=1;rounded=0;exitX=1;exitY=0.5;exitDx=0;exitDy=0;" parent="1" edge="1">
          <mxGeometry width="50" height="50" relative="1" as="geometry">
            <mxPoint x="150" y="290" as="sourcePoint" />
            <mxPoint x="200" y="290" as="targetPoint" />
            <Array as="points">
              <mxPoint x="200" y="290" />
            </Array>
          </mxGeometry>
        </mxCell>
        <mxCell id="HDXP4d2QLceaxivivlkf-9" value="&lt;span style=&quot;color: rgb(0, 0, 0); font-family: Helvetica; font-size: 26px; font-style: normal; font-variant-ligatures: normal; font-variant-caps: normal; font-weight: 400; letter-spacing: normal; orphans: 2; text-indent: 0px; text-transform: none; widows: 2; word-spacing: 0px; -webkit-text-stroke-width: 0px; background-color: rgb(251, 251, 251); text-decoration-thickness: initial; text-decoration-style: initial; text-decoration-color: initial; float: none; display: inline !important;&quot;&gt;Q8=1 Q9=0 Z4.libero=0&lt;/span&gt;" style="rounded=0;whiteSpace=wrap;html=1;align=left;" parent="1" vertex="1">
          <mxGeometry x="200" y="250" width="340" height="80" as="geometry" />
        </mxCell>
        <mxCell id="HDXP4d2QLceaxivivlkf-10" value="" style="endArrow=none;html=1;rounded=0;exitX=1;exitY=0.5;exitDx=0;exitDy=0;" parent="1" edge="1">
          <mxGeometry width="50" height="50" relative="1" as="geometry">
            <mxPoint x="150" y="450" as="sourcePoint" />
            <mxPoint x="200" y="450" as="targetPoint" />
            <Array as="points">
              <mxPoint x="200" y="450" />
            </Array>
          </mxGeometry>
        </mxCell>
        <mxCell id="HDXP4d2QLceaxivivlkf-11" value="&lt;span style=&quot;color: rgb(0, 0, 0); font-family: Helvetica; font-size: 26px; font-style: normal; font-variant-ligatures: normal; font-variant-caps: normal; font-weight: 400; letter-spacing: normal; orphans: 2; text-indent: 0px; text-transform: none; widows: 2; word-spacing: 0px; -webkit-text-stroke-width: 0px; background-color: rgb(251, 251, 251); text-decoration-thickness: initial; text-decoration-style: initial; text-decoration-color: initial; float: none; display: inline !important;&quot;&gt;Q8=0 Q9=1 Z4.libero=0 Ton&lt;sub&gt;4s&lt;/sub&gt;=ON&lt;/span&gt;" style="rounded=0;whiteSpace=wrap;html=1;align=left;" parent="1" vertex="1">
          <mxGeometry x="200" y="410" width="340" height="80" as="geometry" />
        </mxCell>
        <mxCell id="HDXP4d2QLceaxivivlkf-12" value="" style="endArrow=none;html=1;rounded=0;exitX=1;exitY=0.5;exitDx=0;exitDy=0;" parent="1" edge="1">
          <mxGeometry width="50" height="50" relative="1" as="geometry">
            <mxPoint x="150" y="610" as="sourcePoint" />
            <mxPoint x="200" y="610" as="targetPoint" />
            <Array as="points">
              <mxPoint x="200" y="610" />
            </Array>
          </mxGeometry>
        </mxCell>
        <mxCell id="HDXP4d2QLceaxivivlkf-13" value="&lt;span style=&quot;color: rgb(0, 0, 0); font-family: Helvetica; font-style: normal; font-variant-ligatures: normal; font-variant-caps: normal; font-weight: 400; letter-spacing: normal; orphans: 2; text-indent: 0px; text-transform: none; widows: 2; word-spacing: 0px; -webkit-text-stroke-width: 0px; background-color: rgb(251, 251, 251); text-decoration-thickness: initial; text-decoration-style: initial; text-decoration-color: initial; float: none; display: inline !important;&quot;&gt;&lt;span style=&quot;font-size: 26px;&quot;&gt;Q8=0 Q9=0 Z4.libero=0&amp;nbsp;&lt;/span&gt;&lt;/span&gt;" style="rounded=0;whiteSpace=wrap;html=1;align=left;" parent="1" vertex="1">
          <mxGeometry x="200" y="570" width="340" height="80" as="geometry" />
        </mxCell>
        <mxCell id="HDXP4d2QLceaxivivlkf-14" value="&lt;font style=&quot;font-size: 36px;&quot;&gt;Zona 4&lt;/font&gt;" style="text;html=1;strokeColor=none;fillColor=none;align=center;verticalAlign=middle;whiteSpace=wrap;rounded=0;" parent="1" vertex="1">
          <mxGeometry x="50" y="10" width="265" height="50" as="geometry" />
        </mxCell>
        <mxCell id="HDXP4d2QLceaxivivlkf-15" value="" style="endArrow=none;html=1;rounded=0;entryX=0.5;entryY=1;entryDx=0;entryDy=0;exitX=0.5;exitY=0;exitDx=0;exitDy=0;" parent="1" source="HDXP4d2QLceaxivivlkf-2" target="HDXP4d2QLceaxivivlkf-1" edge="1">
          <mxGeometry width="50" height="50" relative="1" as="geometry">
            <mxPoint x="200" y="350" as="sourcePoint" />
            <mxPoint x="250" y="300" as="targetPoint" />
          </mxGeometry>
        </mxCell>
        <mxCell id="HDXP4d2QLceaxivivlkf-16" value="" style="endArrow=none;html=1;rounded=0;exitX=1;exitY=0.5;exitDx=0;exitDy=0;" parent="1" edge="1">
          <mxGeometry width="50" height="50" relative="1" as="geometry">
            <mxPoint x="85" y="210" as="sourcePoint" />
            <mxPoint x="135" y="210" as="targetPoint" />
            <Array as="points">
              <mxPoint x="135" y="210" />
            </Array>
          </mxGeometry>
        </mxCell>
        <mxCell id="HDXP4d2QLceaxivivlkf-17" value="&lt;span style=&quot;font-size: 26px;&quot;&gt;Enable AND Z4.trigger=1 AND I8=1&amp;nbsp;&lt;/span&gt;" style="text;whiteSpace=wrap;html=1;" parent="1" vertex="1">
          <mxGeometry x="145" y="190" width="435" height="50" as="geometry" />
        </mxCell>
        <mxCell id="HDXP4d2QLceaxivivlkf-18" value="" style="endArrow=none;html=1;rounded=0;entryX=0.5;entryY=1;entryDx=0;entryDy=0;exitX=0.5;exitY=0;exitDx=0;exitDy=0;" parent="1" edge="1">
          <mxGeometry width="50" height="50" relative="1" as="geometry">
            <mxPoint x="110" y="410" as="sourcePoint" />
            <mxPoint x="110" y="330" as="targetPoint" />
          </mxGeometry>
        </mxCell>
        <mxCell id="HDXP4d2QLceaxivivlkf-19" value="" style="endArrow=none;html=1;rounded=0;exitX=1;exitY=0.5;exitDx=0;exitDy=0;" parent="1" edge="1">
          <mxGeometry width="50" height="50" relative="1" as="geometry">
            <mxPoint x="85" y="370" as="sourcePoint" />
            <mxPoint x="135" y="370" as="targetPoint" />
            <Array as="points">
              <mxPoint x="135" y="370" />
            </Array>
          </mxGeometry>
        </mxCell>
        <mxCell id="HDXP4d2QLceaxivivlkf-20" value="&lt;span style=&quot;font-size: 26px;&quot;&gt;I8=0&amp;nbsp;&lt;/span&gt;" style="text;whiteSpace=wrap;html=1;" parent="1" vertex="1">
          <mxGeometry x="145" y="350" width="395" height="50" as="geometry" />
        </mxCell>
        <mxCell id="HDXP4d2QLceaxivivlkf-21" value="" style="endArrow=none;html=1;rounded=0;exitX=1;exitY=0.5;exitDx=0;exitDy=0;" parent="1" edge="1">
          <mxGeometry width="50" height="50" relative="1" as="geometry">
            <mxPoint x="85" y="530" as="sourcePoint" />
            <mxPoint x="135" y="530" as="targetPoint" />
            <Array as="points">
              <mxPoint x="135" y="530" />
            </Array>
          </mxGeometry>
        </mxCell>
        <mxCell id="HDXP4d2QLceaxivivlkf-22" value="&lt;span style=&quot;font-size: 26px;&quot;&gt;Ton&lt;sub&gt;4s&lt;/sub&gt;=1&lt;/span&gt;" style="text;whiteSpace=wrap;html=1;" parent="1" vertex="1">
          <mxGeometry x="145" y="510" width="395" height="50" as="geometry" />
        </mxCell>
        <mxCell id="HDXP4d2QLceaxivivlkf-23" value="" style="endArrow=none;html=1;rounded=0;entryX=0.5;entryY=1;entryDx=0;entryDy=0;exitX=0.5;exitY=0;exitDx=0;exitDy=0;" parent="1" edge="1">
          <mxGeometry width="50" height="50" relative="1" as="geometry">
            <mxPoint x="110" y="730" as="sourcePoint" />
            <mxPoint x="110" y="650" as="targetPoint" />
          </mxGeometry>
        </mxCell>
        <mxCell id="HDXP4d2QLceaxivivlkf-24" value="" style="endArrow=none;html=1;rounded=0;exitX=1;exitY=0.5;exitDx=0;exitDy=0;" parent="1" edge="1">
          <mxGeometry width="50" height="50" relative="1" as="geometry">
            <mxPoint x="85" y="690" as="sourcePoint" />
            <mxPoint x="135" y="690" as="targetPoint" />
            <Array as="points">
              <mxPoint x="135" y="690" />
            </Array>
          </mxGeometry>
        </mxCell>
        <mxCell id="HDXP4d2QLceaxivivlkf-25" value="&lt;span style=&quot;font-size: 26px;&quot;&gt;Z5.libero=1&lt;/span&gt;" style="text;whiteSpace=wrap;html=1;" parent="1" vertex="1">
          <mxGeometry x="145" y="670" width="395" height="50" as="geometry" />
        </mxCell>
        <mxCell id="HDXP4d2QLceaxivivlkf-26" value="" style="endArrow=classic;html=1;rounded=0;entryX=0;entryY=0.5;entryDx=0;entryDy=0;exitX=0.5;exitY=1;exitDx=0;exitDy=0;" parent="1" source="cJd3Ia7UwTEh9NrDhcvN-1" target="HDXP4d2QLceaxivivlkf-1" edge="1">
          <mxGeometry width="50" height="50" relative="1" as="geometry">
            <mxPoint x="110" y="730" as="sourcePoint" />
            <mxPoint x="20" y="130" as="targetPoint" />
            <Array as="points">
              <mxPoint x="110" y="880" />
              <mxPoint x="40" y="880" />
              <mxPoint x="30" y="130" />
            </Array>
          </mxGeometry>
        </mxCell>
        <mxCell id="5oMem6WVpgP1irsa_Ldw-3" value="" style="endArrow=none;html=1;rounded=0;entryX=0.5;entryY=1;entryDx=0;entryDy=0;exitX=0.5;exitY=0;exitDx=0;exitDy=0;" parent="1" edge="1">
          <mxGeometry width="50" height="50" relative="1" as="geometry">
            <mxPoint x="109.28999999999999" y="570" as="sourcePoint" />
            <mxPoint x="109.28999999999999" y="490" as="targetPoint" />
          </mxGeometry>
        </mxCell>
        <mxCell id="cJd3Ia7UwTEh9NrDhcvN-1" value="&lt;br&gt;&lt;span style=&quot;color: rgb(0, 0, 0); font-family: Helvetica; font-size: 48px; font-style: normal; font-variant-ligatures: normal; font-variant-caps: normal; font-weight: 400; letter-spacing: normal; orphans: 2; text-align: center; text-indent: 0px; text-transform: none; widows: 2; word-spacing: 0px; -webkit-text-stroke-width: 0px; background-color: rgb(251, 251, 251); text-decoration-thickness: initial; text-decoration-style: initial; text-decoration-color: initial; float: none; display: inline !important;&quot;&gt;S4&lt;/span&gt;" style="whiteSpace=wrap;html=1;aspect=fixed;" parent="1" vertex="1">
          <mxGeometry x="70" y="730" width="80" height="80" as="geometry" />
        </mxCell>
        <mxCell id="cJd3Ia7UwTEh9NrDhcvN-2" value="" style="endArrow=none;html=1;rounded=0;exitX=1;exitY=0.5;exitDx=0;exitDy=0;" parent="1" edge="1">
          <mxGeometry width="50" height="50" relative="1" as="geometry">
            <mxPoint x="150" y="770" as="sourcePoint" />
            <mxPoint x="200" y="770" as="targetPoint" />
            <Array as="points">
              <mxPoint x="200" y="770" />
            </Array>
          </mxGeometry>
        </mxCell>
        <mxCell id="cJd3Ia7UwTEh9NrDhcvN-3" value="&lt;span style=&quot;color: rgb(0, 0, 0); font-family: Helvetica; font-style: normal; font-variant-ligatures: normal; font-variant-caps: normal; font-weight: 400; letter-spacing: normal; orphans: 2; text-indent: 0px; text-transform: none; widows: 2; word-spacing: 0px; -webkit-text-stroke-width: 0px; background-color: rgb(251, 251, 251); text-decoration-thickness: initial; text-decoration-style: initial; text-decoration-color: initial; float: none; display: inline !important;&quot;&gt;&lt;span style=&quot;font-size: 26px;&quot;&gt;Q8=1 Q9=0 Z4.libero=0 Tritardo=ON&amp;nbsp;&lt;/span&gt;&lt;/span&gt;" style="rounded=0;whiteSpace=wrap;html=1;align=left;" parent="1" vertex="1">
          <mxGeometry x="200" y="730" width="340" height="80" as="geometry" />
        </mxCell>
        <mxCell id="cJd3Ia7UwTEh9NrDhcvN-4" value="" style="endArrow=none;html=1;rounded=0;exitX=1;exitY=0.5;exitDx=0;exitDy=0;" parent="1" edge="1">
          <mxGeometry width="50" height="50" relative="1" as="geometry">
            <mxPoint x="85" y="850" as="sourcePoint" />
            <mxPoint x="135" y="850" as="targetPoint" />
            <Array as="points">
              <mxPoint x="135" y="850" />
            </Array>
          </mxGeometry>
        </mxCell>
        <mxCell id="cJd3Ia7UwTEh9NrDhcvN-5" value="&lt;span style=&quot;font-size: 26px;&quot;&gt;I8=1 AND Tritardo=1&lt;/span&gt;" style="text;whiteSpace=wrap;html=1;" parent="1" vertex="1">
          <mxGeometry x="145" y="830" width="395" height="50" as="geometry" />
        </mxCell>
        <mxCell id="j_qC9PgKg5NV9vVBukMY-1" value="&lt;font style=&quot;font-size: 36px;&quot;&gt;Emergenza&lt;/font&gt;" style="text;html=1;strokeColor=none;fillColor=none;align=center;verticalAlign=middle;whiteSpace=wrap;rounded=0;" parent="1" vertex="1">
          <mxGeometry x="710" y="10" width="265" height="50" as="geometry" />
        </mxCell>
        <mxCell id="j_qC9PgKg5NV9vVBukMY-2" value="" style="endArrow=none;html=1;rounded=0;exitX=1;exitY=0.5;exitDx=0;exitDy=0;" parent="1" edge="1">
          <mxGeometry width="50" height="50" relative="1" as="geometry">
            <mxPoint x="800" y="220" as="sourcePoint" />
            <mxPoint x="850" y="220" as="targetPoint" />
            <Array as="points">
              <mxPoint x="850" y="220" />
            </Array>
          </mxGeometry>
        </mxCell>
        <mxCell id="j_qC9PgKg5NV9vVBukMY-3" value="" style="endArrow=none;html=1;rounded=0;exitX=0.5;exitY=0;exitDx=0;exitDy=0;" parent="1" edge="1">
          <mxGeometry width="50" height="50" relative="1" as="geometry">
            <mxPoint x="827" y="260" as="sourcePoint" />
            <mxPoint x="827" y="170" as="targetPoint" />
          </mxGeometry>
        </mxCell>
        <mxCell id="j_qC9PgKg5NV9vVBukMY-4" value="&lt;br&gt;&lt;span style=&quot;color: rgb(0, 0, 0); font-family: Helvetica; font-size: 48px; font-style: normal; font-variant-ligatures: normal; font-variant-caps: normal; font-weight: 400; letter-spacing: normal; orphans: 2; text-align: center; text-indent: 0px; text-transform: none; widows: 2; word-spacing: 0px; -webkit-text-stroke-width: 0px; background-color: rgb(251, 251, 251); text-decoration-thickness: initial; text-decoration-style: initial; text-decoration-color: initial; float: none; display: inline !important;&quot;&gt;SE&lt;/span&gt;" style="whiteSpace=wrap;html=1;aspect=fixed;" parent="1" vertex="1">
          <mxGeometry x="790" y="260" width="80" height="80" as="geometry" />
        </mxCell>
        <mxCell id="j_qC9PgKg5NV9vVBukMY-5" value="" style="endArrow=none;html=1;rounded=0;exitX=1;exitY=0.5;exitDx=0;exitDy=0;" parent="1" edge="1">
          <mxGeometry width="50" height="50" relative="1" as="geometry">
            <mxPoint x="870" y="300" as="sourcePoint" />
            <mxPoint x="920" y="300" as="targetPoint" />
            <Array as="points">
              <mxPoint x="920" y="300" />
            </Array>
          </mxGeometry>
        </mxCell>
        <mxCell id="j_qC9PgKg5NV9vVBukMY-6" value="&lt;br&gt;&lt;span style=&quot;color: rgb(0, 0, 0); font-family: Helvetica; font-size: 26px; font-style: normal; font-variant-ligatures: normal; font-variant-caps: normal; font-weight: 400; letter-spacing: normal; orphans: 2; text-align: left; text-indent: 0px; text-transform: none; widows: 2; word-spacing: 0px; -webkit-text-stroke-width: 0px; background-color: rgb(251, 251, 251); text-decoration-thickness: initial; text-decoration-style: initial; text-decoration-color: initial; float: none; display: inline !important;&quot;&gt;Q8=0 Q9=0&lt;/span&gt;" style="rounded=0;whiteSpace=wrap;html=1;align=left;" parent="1" vertex="1">
          <mxGeometry x="920" y="260" width="340" height="75" as="geometry" />
        </mxCell>
        <mxCell id="j_qC9PgKg5NV9vVBukMY-7" value="" style="endArrow=classic;html=1;rounded=0;exitX=0.5;exitY=1;exitDx=0;exitDy=0;" parent="1" source="j_qC9PgKg5NV9vVBukMY-4" edge="1">
          <mxGeometry width="50" height="50" relative="1" as="geometry">
            <mxPoint x="640" y="410" as="sourcePoint" />
            <mxPoint x="830" y="410" as="targetPoint" />
          </mxGeometry>
        </mxCell>
        <mxCell id="j_qC9PgKg5NV9vVBukMY-8" value="&lt;span style=&quot;color: rgb(0, 0, 0); font-family: Helvetica; font-size: 48px; font-style: normal; font-variant-ligatures: normal; font-variant-caps: normal; font-weight: 400; letter-spacing: normal; orphans: 2; text-align: center; text-indent: 0px; text-transform: none; widows: 2; word-spacing: 0px; -webkit-text-stroke-width: 0px; background-color: rgb(251, 251, 251); text-decoration-thickness: initial; text-decoration-style: initial; text-decoration-color: initial; float: none; display: inline !important;&quot;&gt;S0&lt;/span&gt;" style="text;whiteSpace=wrap;html=1;" parent="1" vertex="1">
          <mxGeometry x="800" y="410" width="90" height="80" as="geometry" />
        </mxCell>
        <mxCell id="j_qC9PgKg5NV9vVBukMY-9" value="&lt;br&gt;&lt;span style=&quot;color: rgb(0, 0, 0); font-family: Helvetica; font-size: 48px; font-style: normal; font-variant-ligatures: normal; font-variant-caps: normal; font-weight: 400; letter-spacing: normal; orphans: 2; text-align: center; text-indent: 0px; text-transform: none; widows: 2; word-spacing: 0px; -webkit-text-stroke-width: 0px; background-color: rgb(251, 251, 251); text-decoration-thickness: initial; text-decoration-style: initial; text-decoration-color: initial; float: none; display: inline !important;&quot;&gt;S4&lt;/span&gt;" style="whiteSpace=wrap;html=1;aspect=fixed;" parent="1" vertex="1">
          <mxGeometry x="880" y="70" width="80" height="80" as="geometry" />
        </mxCell>
        <mxCell id="j_qC9PgKg5NV9vVBukMY-10" value="&lt;br&gt;&lt;span style=&quot;color: rgb(0, 0, 0); font-family: Helvetica; font-size: 48px; font-style: normal; font-variant-ligatures: normal; font-variant-caps: normal; font-weight: 400; letter-spacing: normal; orphans: 2; text-align: center; text-indent: 0px; text-transform: none; widows: 2; word-spacing: 0px; -webkit-text-stroke-width: 0px; background-color: rgb(251, 251, 251); text-decoration-thickness: initial; text-decoration-style: initial; text-decoration-color: initial; float: none; display: inline !important;&quot;&gt;S0&lt;/span&gt;" style="whiteSpace=wrap;html=1;aspect=fixed;" parent="1" vertex="1">
          <mxGeometry x="710" y="70" width="80" height="80" as="geometry" />
        </mxCell>
        <mxCell id="j_qC9PgKg5NV9vVBukMY-11" value="" style="shape=link;html=1;rounded=0;" parent="1" edge="1">
          <mxGeometry width="100" relative="1" as="geometry">
            <mxPoint x="680" y="169.60000000000002" as="sourcePoint" />
            <mxPoint x="980" y="169.60000000000002" as="targetPoint" />
          </mxGeometry>
        </mxCell>
        <mxCell id="j_qC9PgKg5NV9vVBukMY-12" value="" style="endArrow=classic;html=1;rounded=0;exitX=0.5;exitY=1;exitDx=0;exitDy=0;" parent="1" source="j_qC9PgKg5NV9vVBukMY-10" edge="1">
          <mxGeometry width="50" height="50" relative="1" as="geometry">
            <mxPoint x="790" y="180" as="sourcePoint" />
            <mxPoint x="750" y="170" as="targetPoint" />
          </mxGeometry>
        </mxCell>
        <mxCell id="j_qC9PgKg5NV9vVBukMY-13" value="" style="endArrow=classic;html=1;rounded=0;exitX=0.5;exitY=1;exitDx=0;exitDy=0;" parent="1" edge="1">
          <mxGeometry width="50" height="50" relative="1" as="geometry">
            <mxPoint x="919.89" y="150" as="sourcePoint" />
            <mxPoint x="919.89" y="170" as="targetPoint" />
          </mxGeometry>
        </mxCell>
        <mxCell id="j_qC9PgKg5NV9vVBukMY-14" value="&lt;span style=&quot;font-size: 29px;&quot;&gt;...&lt;/span&gt;" style="text;html=1;strokeColor=none;fillColor=none;align=center;verticalAlign=middle;whiteSpace=wrap;rounded=0;" parent="1" vertex="1">
          <mxGeometry x="800" y="90" width="60" height="30" as="geometry" />
        </mxCell>
        <mxCell id="j_qC9PgKg5NV9vVBukMY-15" value="&lt;span style=&quot;font-size: 26px;&quot;&gt;NOT Enable OR Emg&lt;/span&gt;" style="text;whiteSpace=wrap;html=1;" parent="1" vertex="1">
          <mxGeometry x="870" y="200" width="515" height="50" as="geometry" />
        </mxCell>
        <mxCell id="j_qC9PgKg5NV9vVBukMY-16" value="" style="endArrow=none;html=1;rounded=0;exitX=1;exitY=0.5;exitDx=0;exitDy=0;" parent="1" edge="1">
          <mxGeometry width="50" height="50" relative="1" as="geometry">
            <mxPoint x="800" y="375" as="sourcePoint" />
            <mxPoint x="850" y="375" as="targetPoint" />
            <Array as="points">
              <mxPoint x="850" y="375" />
            </Array>
          </mxGeometry>
        </mxCell>
        <mxCell id="j_qC9PgKg5NV9vVBukMY-17" value="&lt;span style=&quot;font-size: 26px;&quot;&gt;Enable AND NOT Emg&lt;/span&gt;" style="text;whiteSpace=wrap;html=1;" parent="1" vertex="1">
          <mxGeometry x="870" y="355" width="515" height="50" as="geometry" />
        </mxCell>
      </root>
    </mxGraphModel>
  </diagram>
  <diagram id="2EYcVjyeJ3FtoeOoTilj" name="Zona 5">
    <mxGraphModel dx="2278" dy="1216" grid="1" gridSize="10" guides="1" tooltips="1" connect="1" arrows="1" fold="1" page="1" pageScale="1" pageWidth="827" pageHeight="1169" math="0" shadow="0">
      <root>
        <mxCell id="0" />
        <mxCell id="1" parent="0" />
        <mxCell id="lxyGYSqbXoQUOC3-epyv-1" value="" style="whiteSpace=wrap;html=1;aspect=fixed;" parent="1" vertex="1">
          <mxGeometry x="70" y="90" width="80" height="80" as="geometry" />
        </mxCell>
        <mxCell id="lxyGYSqbXoQUOC3-epyv-2" value="&lt;br&gt;&lt;span style=&quot;color: rgb(0, 0, 0); font-family: Helvetica; font-size: 48px; font-style: normal; font-variant-ligatures: normal; font-variant-caps: normal; font-weight: 400; letter-spacing: normal; orphans: 2; text-align: center; text-indent: 0px; text-transform: none; widows: 2; word-spacing: 0px; -webkit-text-stroke-width: 0px; background-color: rgb(251, 251, 251); text-decoration-thickness: initial; text-decoration-style: initial; text-decoration-color: initial; float: none; display: inline !important;&quot;&gt;S1&lt;/span&gt;" style="whiteSpace=wrap;html=1;aspect=fixed;" parent="1" vertex="1">
          <mxGeometry x="70" y="250" width="80" height="80" as="geometry" />
        </mxCell>
        <mxCell id="lxyGYSqbXoQUOC3-epyv-3" value="&lt;br&gt;&lt;span style=&quot;color: rgb(0, 0, 0); font-family: Helvetica; font-size: 48px; font-style: normal; font-variant-ligatures: normal; font-variant-caps: normal; font-weight: 400; letter-spacing: normal; orphans: 2; text-align: center; text-indent: 0px; text-transform: none; widows: 2; word-spacing: 0px; -webkit-text-stroke-width: 0px; background-color: rgb(251, 251, 251); text-decoration-thickness: initial; text-decoration-style: initial; text-decoration-color: initial; float: none; display: inline !important;&quot;&gt;S2&lt;/span&gt;&lt;br&gt;" style="whiteSpace=wrap;html=1;aspect=fixed;" parent="1" vertex="1">
          <mxGeometry x="70" y="410" width="80" height="80" as="geometry" />
        </mxCell>
        <mxCell id="lxyGYSqbXoQUOC3-epyv-5" value="&lt;font style=&quot;font-size: 48px;&quot;&gt;S0&lt;/font&gt;" style="whiteSpace=wrap;html=1;aspect=fixed;" parent="1" vertex="1">
          <mxGeometry x="75" y="95" width="70" height="70" as="geometry" />
        </mxCell>
        <mxCell id="lxyGYSqbXoQUOC3-epyv-6" value="" style="endArrow=none;html=1;rounded=0;exitX=1;exitY=0.5;exitDx=0;exitDy=0;" parent="1" source="lxyGYSqbXoQUOC3-epyv-1" edge="1">
          <mxGeometry width="50" height="50" relative="1" as="geometry">
            <mxPoint x="160" y="130" as="sourcePoint" />
            <mxPoint x="200" y="130" as="targetPoint" />
            <Array as="points">
              <mxPoint x="200" y="130" />
            </Array>
          </mxGeometry>
        </mxCell>
        <mxCell id="lxyGYSqbXoQUOC3-epyv-7" value="&lt;br&gt;&lt;span style=&quot;color: rgb(0, 0, 0); font-family: Helvetica; font-size: 26px; font-style: normal; font-variant-ligatures: normal; font-variant-caps: normal; font-weight: 400; letter-spacing: normal; orphans: 2; text-align: left; text-indent: 0px; text-transform: none; widows: 2; word-spacing: 0px; -webkit-text-stroke-width: 0px; background-color: rgb(251, 251, 251); text-decoration-thickness: initial; text-decoration-style: initial; text-decoration-color: initial; float: none; display: inline !important;&quot;&gt;Q3=0 Q4=0 Z5.libero=1&amp;nbsp;&lt;/span&gt;&lt;br&gt;" style="rounded=0;whiteSpace=wrap;html=1;align=left;" parent="1" vertex="1">
          <mxGeometry x="200" y="90" width="340" height="80" as="geometry" />
        </mxCell>
        <mxCell id="lxyGYSqbXoQUOC3-epyv-8" value="" style="endArrow=none;html=1;rounded=0;exitX=1;exitY=0.5;exitDx=0;exitDy=0;" parent="1" edge="1">
          <mxGeometry width="50" height="50" relative="1" as="geometry">
            <mxPoint x="150" y="290" as="sourcePoint" />
            <mxPoint x="200" y="290" as="targetPoint" />
            <Array as="points">
              <mxPoint x="200" y="290" />
            </Array>
          </mxGeometry>
        </mxCell>
        <mxCell id="lxyGYSqbXoQUOC3-epyv-9" value="&lt;br&gt;&lt;span style=&quot;color: rgb(0, 0, 0); font-family: Helvetica; font-size: 26px; font-style: normal; font-variant-ligatures: normal; font-variant-caps: normal; font-weight: 400; letter-spacing: normal; orphans: 2; text-align: left; text-indent: 0px; text-transform: none; widows: 2; word-spacing: 0px; -webkit-text-stroke-width: 0px; background-color: rgb(251, 251, 251); text-decoration-thickness: initial; text-decoration-style: initial; text-decoration-color: initial; float: none; display: inline !important;&quot;&gt;Q3=0 Q4=1 Z5.libero=0&amp;nbsp;&lt;/span&gt;&lt;br&gt;" style="rounded=0;whiteSpace=wrap;html=1;align=left;" parent="1" vertex="1">
          <mxGeometry x="200" y="250" width="340" height="80" as="geometry" />
        </mxCell>
        <mxCell id="lxyGYSqbXoQUOC3-epyv-10" value="" style="endArrow=none;html=1;rounded=0;exitX=1;exitY=0.5;exitDx=0;exitDy=0;" parent="1" edge="1">
          <mxGeometry width="50" height="50" relative="1" as="geometry">
            <mxPoint x="150" y="450" as="sourcePoint" />
            <mxPoint x="200" y="450" as="targetPoint" />
            <Array as="points">
              <mxPoint x="200" y="450" />
            </Array>
          </mxGeometry>
        </mxCell>
        <mxCell id="lxyGYSqbXoQUOC3-epyv-11" value="&lt;br&gt;&lt;span style=&quot;color: rgb(0, 0, 0); font-family: Helvetica; font-size: 26px; font-style: normal; font-variant-ligatures: normal; font-variant-caps: normal; font-weight: 400; letter-spacing: normal; orphans: 2; text-align: left; text-indent: 0px; text-transform: none; widows: 2; word-spacing: 0px; -webkit-text-stroke-width: 0px; background-color: rgb(251, 251, 251); text-decoration-thickness: initial; text-decoration-style: initial; text-decoration-color: initial; float: none; display: inline !important;&quot;&gt;Q3=1 Q4=0 Z5.libero=0&amp;nbsp;&lt;/span&gt;&lt;br&gt;" style="rounded=0;whiteSpace=wrap;html=1;align=left;" parent="1" vertex="1">
          <mxGeometry x="200" y="410" width="340" height="80" as="geometry" />
        </mxCell>
        <mxCell id="lxyGYSqbXoQUOC3-epyv-14" value="&lt;font style=&quot;font-size: 36px;&quot;&gt;Zona 5&lt;/font&gt;" style="text;html=1;strokeColor=none;fillColor=none;align=center;verticalAlign=middle;whiteSpace=wrap;rounded=0;" parent="1" vertex="1">
          <mxGeometry x="50" y="10" width="265" height="50" as="geometry" />
        </mxCell>
        <mxCell id="lxyGYSqbXoQUOC3-epyv-15" value="" style="endArrow=none;html=1;rounded=0;entryX=0.5;entryY=1;entryDx=0;entryDy=0;exitX=0.5;exitY=0;exitDx=0;exitDy=0;" parent="1" source="lxyGYSqbXoQUOC3-epyv-2" target="lxyGYSqbXoQUOC3-epyv-1" edge="1">
          <mxGeometry width="50" height="50" relative="1" as="geometry">
            <mxPoint x="200" y="350" as="sourcePoint" />
            <mxPoint x="250" y="300" as="targetPoint" />
          </mxGeometry>
        </mxCell>
        <mxCell id="lxyGYSqbXoQUOC3-epyv-16" value="" style="endArrow=none;html=1;rounded=0;exitX=1;exitY=0.5;exitDx=0;exitDy=0;" parent="1" edge="1">
          <mxGeometry width="50" height="50" relative="1" as="geometry">
            <mxPoint x="85" y="210" as="sourcePoint" />
            <mxPoint x="135" y="210" as="targetPoint" />
            <Array as="points">
              <mxPoint x="135" y="210" />
            </Array>
          </mxGeometry>
        </mxCell>
        <mxCell id="lxyGYSqbXoQUOC3-epyv-17" value="&lt;span style=&quot;font-size: 26px;&quot;&gt;Enable AND Z5.trigger=1 AND Z6.libero=1&lt;/span&gt;" style="text;whiteSpace=wrap;html=1;" parent="1" vertex="1">
          <mxGeometry x="145" y="190" width="515" height="50" as="geometry" />
        </mxCell>
        <mxCell id="lxyGYSqbXoQUOC3-epyv-18" value="" style="endArrow=none;html=1;rounded=0;entryX=0.5;entryY=1;entryDx=0;entryDy=0;exitX=0.5;exitY=0;exitDx=0;exitDy=0;" parent="1" edge="1">
          <mxGeometry width="50" height="50" relative="1" as="geometry">
            <mxPoint x="110" y="410" as="sourcePoint" />
            <mxPoint x="110" y="330" as="targetPoint" />
          </mxGeometry>
        </mxCell>
        <mxCell id="lxyGYSqbXoQUOC3-epyv-19" value="" style="endArrow=none;html=1;rounded=0;exitX=1;exitY=0.5;exitDx=0;exitDy=0;" parent="1" edge="1">
          <mxGeometry width="50" height="50" relative="1" as="geometry">
            <mxPoint x="85" y="370" as="sourcePoint" />
            <mxPoint x="135" y="370" as="targetPoint" />
            <Array as="points">
              <mxPoint x="135" y="370" />
            </Array>
          </mxGeometry>
        </mxCell>
        <mxCell id="lxyGYSqbXoQUOC3-epyv-20" value="&lt;span style=&quot;font-size: 26px;&quot;&gt;I3=1&amp;nbsp;&lt;/span&gt;" style="text;whiteSpace=wrap;html=1;" parent="1" vertex="1">
          <mxGeometry x="145" y="350" width="395" height="50" as="geometry" />
        </mxCell>
        <mxCell id="lxyGYSqbXoQUOC3-epyv-21" value="" style="endArrow=none;html=1;rounded=0;exitX=1;exitY=0.5;exitDx=0;exitDy=0;" parent="1" edge="1">
          <mxGeometry width="50" height="50" relative="1" as="geometry">
            <mxPoint x="85" y="530" as="sourcePoint" />
            <mxPoint x="135" y="530" as="targetPoint" />
            <Array as="points">
              <mxPoint x="135" y="530" />
            </Array>
          </mxGeometry>
        </mxCell>
        <mxCell id="lxyGYSqbXoQUOC3-epyv-22" value="&lt;span style=&quot;font-size: 26px;&quot;&gt;I4=1&lt;/span&gt;" style="text;whiteSpace=wrap;html=1;" parent="1" vertex="1">
          <mxGeometry x="145" y="510" width="395" height="50" as="geometry" />
        </mxCell>
        <mxCell id="lxyGYSqbXoQUOC3-epyv-26" value="" style="endArrow=classic;html=1;rounded=0;entryX=0;entryY=0.5;entryDx=0;entryDy=0;exitX=0.5;exitY=1;exitDx=0;exitDy=0;" parent="1" source="lxyGYSqbXoQUOC3-epyv-3" target="lxyGYSqbXoQUOC3-epyv-1" edge="1">
          <mxGeometry width="50" height="50" relative="1" as="geometry">
            <mxPoint x="110" y="560" as="sourcePoint" />
            <mxPoint x="20" y="130" as="targetPoint" />
            <Array as="points">
              <mxPoint x="110" y="560" />
              <mxPoint x="30" y="560" />
              <mxPoint x="30" y="130" />
            </Array>
          </mxGeometry>
        </mxCell>
        <mxCell id="hYviLIa6Ops935GTjded-1" value="&lt;font style=&quot;font-size: 36px;&quot;&gt;Ripristino&lt;/font&gt;" style="text;html=1;strokeColor=none;fillColor=none;align=center;verticalAlign=middle;whiteSpace=wrap;rounded=0;" parent="1" vertex="1">
          <mxGeometry x="670" y="10" width="265" height="50" as="geometry" />
        </mxCell>
        <mxCell id="hYviLIa6Ops935GTjded-2" value="" style="endArrow=none;html=1;rounded=0;exitX=1;exitY=0.5;exitDx=0;exitDy=0;" parent="1" edge="1">
          <mxGeometry width="50" height="50" relative="1" as="geometry">
            <mxPoint x="800" y="220" as="sourcePoint" />
            <mxPoint x="850" y="220" as="targetPoint" />
            <Array as="points">
              <mxPoint x="850" y="220" />
            </Array>
          </mxGeometry>
        </mxCell>
        <mxCell id="hYviLIa6Ops935GTjded-3" value="" style="endArrow=none;html=1;rounded=0;exitX=0.5;exitY=0;exitDx=0;exitDy=0;" parent="1" edge="1">
          <mxGeometry width="50" height="50" relative="1" as="geometry">
            <mxPoint x="827" y="260" as="sourcePoint" />
            <mxPoint x="827" y="170" as="targetPoint" />
          </mxGeometry>
        </mxCell>
        <mxCell id="hYviLIa6Ops935GTjded-4" value="&lt;br&gt;&lt;span style=&quot;color: rgb(0, 0, 0); font-family: Helvetica; font-size: 48px; font-style: normal; font-variant-ligatures: normal; font-variant-caps: normal; font-weight: 400; letter-spacing: normal; orphans: 2; text-align: center; text-indent: 0px; text-transform: none; widows: 2; word-spacing: 0px; -webkit-text-stroke-width: 0px; background-color: rgb(251, 251, 251); text-decoration-thickness: initial; text-decoration-style: initial; text-decoration-color: initial; float: none; display: inline !important;&quot;&gt;SR&lt;/span&gt;" style="whiteSpace=wrap;html=1;aspect=fixed;" parent="1" vertex="1">
          <mxGeometry x="790" y="260" width="80" height="80" as="geometry" />
        </mxCell>
        <mxCell id="hYviLIa6Ops935GTjded-5" value="" style="endArrow=none;html=1;rounded=0;exitX=1;exitY=0.5;exitDx=0;exitDy=0;" parent="1" edge="1">
          <mxGeometry width="50" height="50" relative="1" as="geometry">
            <mxPoint x="870" y="300" as="sourcePoint" />
            <mxPoint x="920" y="300" as="targetPoint" />
            <Array as="points">
              <mxPoint x="920" y="300" />
            </Array>
          </mxGeometry>
        </mxCell>
        <mxCell id="hYviLIa6Ops935GTjded-6" value="&lt;br&gt;&lt;span style=&quot;color: rgb(0, 0, 0); font-family: Helvetica; font-size: 26px; font-style: normal; font-variant-ligatures: normal; font-variant-caps: normal; font-weight: 400; letter-spacing: normal; orphans: 2; text-align: left; text-indent: 0px; text-transform: none; widows: 2; word-spacing: 0px; -webkit-text-stroke-width: 0px; background-color: rgb(251, 251, 251); text-decoration-thickness: initial; text-decoration-style: initial; text-decoration-color: initial; float: none; display: inline !important;&quot;&gt;Q3=I4 Q4=0 Z5.libero=1&amp;nbsp;&lt;/span&gt;" style="rounded=0;whiteSpace=wrap;html=1;align=left;" parent="1" vertex="1">
          <mxGeometry x="920" y="260" width="340" height="80" as="geometry" />
        </mxCell>
        <mxCell id="hYviLIa6Ops935GTjded-7" value="" style="endArrow=classic;html=1;rounded=0;exitX=0.5;exitY=1;exitDx=0;exitDy=0;" parent="1" source="hYviLIa6Ops935GTjded-4" edge="1">
          <mxGeometry width="50" height="50" relative="1" as="geometry">
            <mxPoint x="640" y="410" as="sourcePoint" />
            <mxPoint x="830" y="410" as="targetPoint" />
          </mxGeometry>
        </mxCell>
        <mxCell id="hYviLIa6Ops935GTjded-8" value="&lt;span style=&quot;color: rgb(0, 0, 0); font-family: Helvetica; font-size: 48px; font-style: normal; font-variant-ligatures: normal; font-variant-caps: normal; font-weight: 400; letter-spacing: normal; orphans: 2; text-align: center; text-indent: 0px; text-transform: none; widows: 2; word-spacing: 0px; -webkit-text-stroke-width: 0px; background-color: rgb(251, 251, 251); text-decoration-thickness: initial; text-decoration-style: initial; text-decoration-color: initial; float: none; display: inline !important;&quot;&gt;S0&lt;/span&gt;" style="text;whiteSpace=wrap;html=1;" parent="1" vertex="1">
          <mxGeometry x="800" y="410" width="90" height="80" as="geometry" />
        </mxCell>
        <mxCell id="hYviLIa6Ops935GTjded-9" value="&lt;br&gt;&lt;span style=&quot;color: rgb(0, 0, 0); font-family: Helvetica; font-size: 48px; font-style: normal; font-variant-ligatures: normal; font-variant-caps: normal; font-weight: 400; letter-spacing: normal; orphans: 2; text-align: center; text-indent: 0px; text-transform: none; widows: 2; word-spacing: 0px; -webkit-text-stroke-width: 0px; background-color: rgb(251, 251, 251); text-decoration-thickness: initial; text-decoration-style: initial; text-decoration-color: initial; float: none; display: inline !important;&quot;&gt;S2&lt;/span&gt;&lt;br&gt;" style="whiteSpace=wrap;html=1;aspect=fixed;" parent="1" vertex="1">
          <mxGeometry x="880" y="70" width="80" height="80" as="geometry" />
        </mxCell>
        <mxCell id="hYviLIa6Ops935GTjded-10" value="&lt;br&gt;&lt;span style=&quot;color: rgb(0, 0, 0); font-family: Helvetica; font-size: 48px; font-style: normal; font-variant-ligatures: normal; font-variant-caps: normal; font-weight: 400; letter-spacing: normal; orphans: 2; text-align: center; text-indent: 0px; text-transform: none; widows: 2; word-spacing: 0px; -webkit-text-stroke-width: 0px; background-color: rgb(251, 251, 251); text-decoration-thickness: initial; text-decoration-style: initial; text-decoration-color: initial; float: none; display: inline !important;&quot;&gt;S0&lt;/span&gt;" style="whiteSpace=wrap;html=1;aspect=fixed;" parent="1" vertex="1">
          <mxGeometry x="710" y="70" width="80" height="80" as="geometry" />
        </mxCell>
        <mxCell id="hYviLIa6Ops935GTjded-11" value="" style="shape=link;html=1;rounded=0;" parent="1" edge="1">
          <mxGeometry width="100" relative="1" as="geometry">
            <mxPoint x="680" y="169.6" as="sourcePoint" />
            <mxPoint x="980" y="169.6" as="targetPoint" />
          </mxGeometry>
        </mxCell>
        <mxCell id="hYviLIa6Ops935GTjded-12" value="" style="endArrow=classic;html=1;rounded=0;exitX=0.5;exitY=1;exitDx=0;exitDy=0;" parent="1" source="hYviLIa6Ops935GTjded-10" edge="1">
          <mxGeometry width="50" height="50" relative="1" as="geometry">
            <mxPoint x="790" y="180" as="sourcePoint" />
            <mxPoint x="750" y="170" as="targetPoint" />
          </mxGeometry>
        </mxCell>
        <mxCell id="hYviLIa6Ops935GTjded-13" value="" style="endArrow=classic;html=1;rounded=0;exitX=0.5;exitY=1;exitDx=0;exitDy=0;" parent="1" edge="1">
          <mxGeometry width="50" height="50" relative="1" as="geometry">
            <mxPoint x="919.89" y="150" as="sourcePoint" />
            <mxPoint x="919.89" y="170" as="targetPoint" />
          </mxGeometry>
        </mxCell>
        <mxCell id="hYviLIa6Ops935GTjded-14" value="&lt;span style=&quot;font-size: 29px;&quot;&gt;...&lt;/span&gt;" style="text;html=1;strokeColor=none;fillColor=none;align=center;verticalAlign=middle;whiteSpace=wrap;rounded=0;" parent="1" vertex="1">
          <mxGeometry x="800" y="90" width="60" height="30" as="geometry" />
        </mxCell>
        <mxCell id="9KLXrUgCrsx_Ay4VkFqj-1" value="&lt;span style=&quot;font-size: 26px;&quot;&gt;Ripristino&lt;/span&gt;" style="text;whiteSpace=wrap;html=1;" parent="1" vertex="1">
          <mxGeometry x="860" y="200" width="515" height="50" as="geometry" />
        </mxCell>
        <mxCell id="hrSa3TVfEurrefIacyXa-1" value="&lt;font style=&quot;font-size: 36px;&quot;&gt;Emergenza&lt;/font&gt;" style="text;html=1;strokeColor=none;fillColor=none;align=center;verticalAlign=middle;whiteSpace=wrap;rounded=0;" parent="1" vertex="1">
          <mxGeometry x="1350" y="10" width="265" height="50" as="geometry" />
        </mxCell>
        <mxCell id="hrSa3TVfEurrefIacyXa-2" value="" style="endArrow=none;html=1;rounded=0;exitX=1;exitY=0.5;exitDx=0;exitDy=0;" parent="1" edge="1">
          <mxGeometry width="50" height="50" relative="1" as="geometry">
            <mxPoint x="1440" y="220" as="sourcePoint" />
            <mxPoint x="1490" y="220" as="targetPoint" />
            <Array as="points">
              <mxPoint x="1490" y="220" />
            </Array>
          </mxGeometry>
        </mxCell>
        <mxCell id="hrSa3TVfEurrefIacyXa-3" value="" style="endArrow=none;html=1;rounded=0;exitX=0.5;exitY=0;exitDx=0;exitDy=0;" parent="1" edge="1">
          <mxGeometry width="50" height="50" relative="1" as="geometry">
            <mxPoint x="1467" y="260" as="sourcePoint" />
            <mxPoint x="1467" y="170" as="targetPoint" />
          </mxGeometry>
        </mxCell>
        <mxCell id="hrSa3TVfEurrefIacyXa-4" value="&lt;br&gt;&lt;span style=&quot;color: rgb(0, 0, 0); font-family: Helvetica; font-size: 48px; font-style: normal; font-variant-ligatures: normal; font-variant-caps: normal; font-weight: 400; letter-spacing: normal; orphans: 2; text-align: center; text-indent: 0px; text-transform: none; widows: 2; word-spacing: 0px; -webkit-text-stroke-width: 0px; background-color: rgb(251, 251, 251); text-decoration-thickness: initial; text-decoration-style: initial; text-decoration-color: initial; float: none; display: inline !important;&quot;&gt;SE&lt;/span&gt;" style="whiteSpace=wrap;html=1;aspect=fixed;" parent="1" vertex="1">
          <mxGeometry x="1430" y="260" width="80" height="80" as="geometry" />
        </mxCell>
        <mxCell id="hrSa3TVfEurrefIacyXa-5" value="" style="endArrow=none;html=1;rounded=0;exitX=1;exitY=0.5;exitDx=0;exitDy=0;" parent="1" edge="1">
          <mxGeometry width="50" height="50" relative="1" as="geometry">
            <mxPoint x="1510" y="300" as="sourcePoint" />
            <mxPoint x="1560" y="300" as="targetPoint" />
            <Array as="points">
              <mxPoint x="1560" y="300" />
            </Array>
          </mxGeometry>
        </mxCell>
        <mxCell id="hrSa3TVfEurrefIacyXa-6" value="&lt;br&gt;&lt;span style=&quot;color: rgb(0, 0, 0); font-family: Helvetica; font-size: 26px; font-style: normal; font-variant-ligatures: normal; font-variant-caps: normal; font-weight: 400; letter-spacing: normal; orphans: 2; text-align: left; text-indent: 0px; text-transform: none; widows: 2; word-spacing: 0px; -webkit-text-stroke-width: 0px; background-color: rgb(251, 251, 251); text-decoration-thickness: initial; text-decoration-style: initial; text-decoration-color: initial; float: none; display: inline !important;&quot;&gt;Q3=0 Q4=0&lt;/span&gt;" style="rounded=0;whiteSpace=wrap;html=1;align=left;" parent="1" vertex="1">
          <mxGeometry x="1560" y="260" width="340" height="75" as="geometry" />
        </mxCell>
        <mxCell id="hrSa3TVfEurrefIacyXa-7" value="" style="endArrow=classic;html=1;rounded=0;exitX=0.5;exitY=1;exitDx=0;exitDy=0;" parent="1" source="hrSa3TVfEurrefIacyXa-4" edge="1">
          <mxGeometry width="50" height="50" relative="1" as="geometry">
            <mxPoint x="1280" y="410" as="sourcePoint" />
            <mxPoint x="1470" y="410" as="targetPoint" />
          </mxGeometry>
        </mxCell>
        <mxCell id="hrSa3TVfEurrefIacyXa-8" value="&lt;span style=&quot;color: rgb(0, 0, 0); font-family: Helvetica; font-size: 48px; font-style: normal; font-variant-ligatures: normal; font-variant-caps: normal; font-weight: 400; letter-spacing: normal; orphans: 2; text-align: center; text-indent: 0px; text-transform: none; widows: 2; word-spacing: 0px; -webkit-text-stroke-width: 0px; background-color: rgb(251, 251, 251); text-decoration-thickness: initial; text-decoration-style: initial; text-decoration-color: initial; float: none; display: inline !important;&quot;&gt;S0&lt;/span&gt;" style="text;whiteSpace=wrap;html=1;" parent="1" vertex="1">
          <mxGeometry x="1440" y="410" width="90" height="80" as="geometry" />
        </mxCell>
        <mxCell id="hrSa3TVfEurrefIacyXa-9" value="&lt;br&gt;&lt;span style=&quot;color: rgb(0, 0, 0); font-family: Helvetica; font-size: 48px; font-style: normal; font-variant-ligatures: normal; font-variant-caps: normal; font-weight: 400; letter-spacing: normal; orphans: 2; text-align: center; text-indent: 0px; text-transform: none; widows: 2; word-spacing: 0px; -webkit-text-stroke-width: 0px; background-color: rgb(251, 251, 251); text-decoration-thickness: initial; text-decoration-style: initial; text-decoration-color: initial; float: none; display: inline !important;&quot;&gt;S2&lt;/span&gt;" style="whiteSpace=wrap;html=1;aspect=fixed;" parent="1" vertex="1">
          <mxGeometry x="1520" y="70" width="80" height="80" as="geometry" />
        </mxCell>
        <mxCell id="hrSa3TVfEurrefIacyXa-10" value="&lt;br&gt;&lt;span style=&quot;color: rgb(0, 0, 0); font-family: Helvetica; font-size: 48px; font-style: normal; font-variant-ligatures: normal; font-variant-caps: normal; font-weight: 400; letter-spacing: normal; orphans: 2; text-align: center; text-indent: 0px; text-transform: none; widows: 2; word-spacing: 0px; -webkit-text-stroke-width: 0px; background-color: rgb(251, 251, 251); text-decoration-thickness: initial; text-decoration-style: initial; text-decoration-color: initial; float: none; display: inline !important;&quot;&gt;S0&lt;/span&gt;" style="whiteSpace=wrap;html=1;aspect=fixed;" parent="1" vertex="1">
          <mxGeometry x="1350" y="70" width="80" height="80" as="geometry" />
        </mxCell>
        <mxCell id="hrSa3TVfEurrefIacyXa-11" value="" style="shape=link;html=1;rounded=0;" parent="1" edge="1">
          <mxGeometry width="100" relative="1" as="geometry">
            <mxPoint x="1320" y="169.60000000000002" as="sourcePoint" />
            <mxPoint x="1620" y="169.60000000000002" as="targetPoint" />
          </mxGeometry>
        </mxCell>
        <mxCell id="hrSa3TVfEurrefIacyXa-12" value="" style="endArrow=classic;html=1;rounded=0;exitX=0.5;exitY=1;exitDx=0;exitDy=0;" parent="1" source="hrSa3TVfEurrefIacyXa-10" edge="1">
          <mxGeometry width="50" height="50" relative="1" as="geometry">
            <mxPoint x="1430" y="180" as="sourcePoint" />
            <mxPoint x="1390" y="170" as="targetPoint" />
          </mxGeometry>
        </mxCell>
        <mxCell id="hrSa3TVfEurrefIacyXa-13" value="" style="endArrow=classic;html=1;rounded=0;exitX=0.5;exitY=1;exitDx=0;exitDy=0;" parent="1" edge="1">
          <mxGeometry width="50" height="50" relative="1" as="geometry">
            <mxPoint x="1559.8899999999999" y="150" as="sourcePoint" />
            <mxPoint x="1559.8899999999999" y="170" as="targetPoint" />
          </mxGeometry>
        </mxCell>
        <mxCell id="hrSa3TVfEurrefIacyXa-14" value="&lt;span style=&quot;font-size: 29px;&quot;&gt;...&lt;/span&gt;" style="text;html=1;strokeColor=none;fillColor=none;align=center;verticalAlign=middle;whiteSpace=wrap;rounded=0;" parent="1" vertex="1">
          <mxGeometry x="1440" y="90" width="60" height="30" as="geometry" />
        </mxCell>
        <mxCell id="hrSa3TVfEurrefIacyXa-15" value="&lt;span style=&quot;font-size: 26px;&quot;&gt;NOT Enable OR Emg&lt;/span&gt;" style="text;whiteSpace=wrap;html=1;" parent="1" vertex="1">
          <mxGeometry x="1510" y="200" width="515" height="50" as="geometry" />
        </mxCell>
        <mxCell id="hrSa3TVfEurrefIacyXa-16" value="" style="endArrow=none;html=1;rounded=0;exitX=1;exitY=0.5;exitDx=0;exitDy=0;" parent="1" edge="1">
          <mxGeometry width="50" height="50" relative="1" as="geometry">
            <mxPoint x="1440" y="375" as="sourcePoint" />
            <mxPoint x="1490" y="375" as="targetPoint" />
            <Array as="points">
              <mxPoint x="1490" y="375" />
            </Array>
          </mxGeometry>
        </mxCell>
        <mxCell id="hrSa3TVfEurrefIacyXa-17" value="&lt;span style=&quot;font-size: 26px;&quot;&gt;Enable AND NOT Emg&lt;/span&gt;" style="text;whiteSpace=wrap;html=1;" parent="1" vertex="1">
          <mxGeometry x="1510" y="355" width="515" height="50" as="geometry" />
        </mxCell>
      </root>
    </mxGraphModel>
  </diagram>
  <diagram id="mpbiyXCe8sKtx8rZS4iU" name="Zona 6">
    <mxGraphModel dx="2071" dy="1105" grid="1" gridSize="10" guides="1" tooltips="1" connect="1" arrows="1" fold="1" page="1" pageScale="1" pageWidth="827" pageHeight="1169" math="0" shadow="0">
      <root>
        <mxCell id="0" />
        <mxCell id="1" parent="0" />
        <mxCell id="B7P5BvmUTEmdP2yeqLHe-1" value="" style="whiteSpace=wrap;html=1;aspect=fixed;" parent="1" vertex="1">
          <mxGeometry x="70" y="90" width="80" height="80" as="geometry" />
        </mxCell>
        <mxCell id="B7P5BvmUTEmdP2yeqLHe-2" value="&lt;br&gt;&lt;span style=&quot;color: rgb(0, 0, 0); font-family: Helvetica; font-size: 48px; font-style: normal; font-variant-ligatures: normal; font-variant-caps: normal; font-weight: 400; letter-spacing: normal; orphans: 2; text-align: center; text-indent: 0px; text-transform: none; widows: 2; word-spacing: 0px; -webkit-text-stroke-width: 0px; background-color: rgb(251, 251, 251); text-decoration-thickness: initial; text-decoration-style: initial; text-decoration-color: initial; float: none; display: inline !important;&quot;&gt;S1&lt;/span&gt;" style="whiteSpace=wrap;html=1;aspect=fixed;" parent="1" vertex="1">
          <mxGeometry x="70" y="250" width="80" height="80" as="geometry" />
        </mxCell>
        <mxCell id="B7P5BvmUTEmdP2yeqLHe-3" value="&lt;br&gt;&lt;span style=&quot;color: rgb(0, 0, 0); font-family: Helvetica; font-size: 48px; font-style: normal; font-variant-ligatures: normal; font-variant-caps: normal; font-weight: 400; letter-spacing: normal; orphans: 2; text-align: center; text-indent: 0px; text-transform: none; widows: 2; word-spacing: 0px; -webkit-text-stroke-width: 0px; background-color: rgb(251, 251, 251); text-decoration-thickness: initial; text-decoration-style: initial; text-decoration-color: initial; float: none; display: inline !important;&quot;&gt;S2&lt;/span&gt;&lt;br&gt;" style="whiteSpace=wrap;html=1;aspect=fixed;" parent="1" vertex="1">
          <mxGeometry x="70" y="410" width="80" height="80" as="geometry" />
        </mxCell>
        <mxCell id="B7P5BvmUTEmdP2yeqLHe-5" value="&lt;font style=&quot;font-size: 48px;&quot;&gt;S0&lt;/font&gt;" style="whiteSpace=wrap;html=1;aspect=fixed;" parent="1" vertex="1">
          <mxGeometry x="75" y="95" width="70" height="70" as="geometry" />
        </mxCell>
        <mxCell id="B7P5BvmUTEmdP2yeqLHe-6" value="" style="endArrow=none;html=1;rounded=0;exitX=1;exitY=0.5;exitDx=0;exitDy=0;" parent="1" source="B7P5BvmUTEmdP2yeqLHe-1" edge="1">
          <mxGeometry width="50" height="50" relative="1" as="geometry">
            <mxPoint x="160" y="130" as="sourcePoint" />
            <mxPoint x="200" y="130" as="targetPoint" />
            <Array as="points">
              <mxPoint x="200" y="130" />
            </Array>
          </mxGeometry>
        </mxCell>
        <mxCell id="B7P5BvmUTEmdP2yeqLHe-7" value="&lt;font style=&quot;font-size: 26px;&quot;&gt;Q10=0, Z6.libero=1&lt;/font&gt;" style="rounded=0;whiteSpace=wrap;html=1;align=left;" parent="1" vertex="1">
          <mxGeometry x="200" y="90" width="340" height="80" as="geometry" />
        </mxCell>
        <mxCell id="B7P5BvmUTEmdP2yeqLHe-8" value="" style="endArrow=none;html=1;rounded=0;exitX=1;exitY=0.5;exitDx=0;exitDy=0;" parent="1" edge="1">
          <mxGeometry width="50" height="50" relative="1" as="geometry">
            <mxPoint x="150" y="290" as="sourcePoint" />
            <mxPoint x="200" y="290" as="targetPoint" />
            <Array as="points">
              <mxPoint x="200" y="290" />
            </Array>
          </mxGeometry>
        </mxCell>
        <mxCell id="B7P5BvmUTEmdP2yeqLHe-9" value="&lt;span style=&quot;color: rgb(0, 0, 0); font-family: Helvetica; font-size: 26px; font-style: normal; font-variant-ligatures: normal; font-variant-caps: normal; font-weight: 400; letter-spacing: normal; orphans: 2; text-indent: 0px; text-transform: none; widows: 2; word-spacing: 0px; -webkit-text-stroke-width: 0px; background-color: rgb(251, 251, 251); text-decoration-thickness: initial; text-decoration-style: initial; text-decoration-color: initial; float: none; display: inline !important;&quot;&gt;Q10=1, Z6.libero=0 Tritardo=ON&lt;/span&gt;" style="rounded=0;whiteSpace=wrap;html=1;align=left;" parent="1" vertex="1">
          <mxGeometry x="200" y="250" width="340" height="80" as="geometry" />
        </mxCell>
        <mxCell id="B7P5BvmUTEmdP2yeqLHe-10" value="" style="endArrow=none;html=1;rounded=0;exitX=1;exitY=0.5;exitDx=0;exitDy=0;" parent="1" edge="1">
          <mxGeometry width="50" height="50" relative="1" as="geometry">
            <mxPoint x="150" y="450" as="sourcePoint" />
            <mxPoint x="200" y="450" as="targetPoint" />
            <Array as="points">
              <mxPoint x="200" y="450" />
            </Array>
          </mxGeometry>
        </mxCell>
        <mxCell id="B7P5BvmUTEmdP2yeqLHe-11" value="&lt;span style=&quot;color: rgb(0, 0, 0); font-family: Helvetica; font-size: 26px; font-style: normal; font-variant-ligatures: normal; font-variant-caps: normal; font-weight: 400; letter-spacing: normal; orphans: 2; text-indent: 0px; text-transform: none; widows: 2; word-spacing: 0px; -webkit-text-stroke-width: 0px; background-color: rgb(251, 251, 251); text-decoration-thickness: initial; text-decoration-style: initial; text-decoration-color: initial; float: none; display: inline !important;&quot;&gt;Q10=0, Z6.libero=0 Tonscarico=ON&lt;/span&gt;" style="rounded=0;whiteSpace=wrap;html=1;align=left;" parent="1" vertex="1">
          <mxGeometry x="200" y="410" width="340" height="80" as="geometry" />
        </mxCell>
        <mxCell id="B7P5BvmUTEmdP2yeqLHe-14" value="&lt;font style=&quot;font-size: 36px;&quot;&gt;Zona 6&lt;/font&gt;" style="text;html=1;strokeColor=none;fillColor=none;align=center;verticalAlign=middle;whiteSpace=wrap;rounded=0;" parent="1" vertex="1">
          <mxGeometry x="50" y="10" width="265" height="50" as="geometry" />
        </mxCell>
        <mxCell id="B7P5BvmUTEmdP2yeqLHe-15" value="" style="endArrow=none;html=1;rounded=0;entryX=0.5;entryY=1;entryDx=0;entryDy=0;exitX=0.5;exitY=0;exitDx=0;exitDy=0;" parent="1" source="B7P5BvmUTEmdP2yeqLHe-2" target="B7P5BvmUTEmdP2yeqLHe-1" edge="1">
          <mxGeometry width="50" height="50" relative="1" as="geometry">
            <mxPoint x="200" y="350" as="sourcePoint" />
            <mxPoint x="250" y="300" as="targetPoint" />
          </mxGeometry>
        </mxCell>
        <mxCell id="B7P5BvmUTEmdP2yeqLHe-16" value="" style="endArrow=none;html=1;rounded=0;exitX=1;exitY=0.5;exitDx=0;exitDy=0;" parent="1" edge="1">
          <mxGeometry width="50" height="50" relative="1" as="geometry">
            <mxPoint x="85" y="210" as="sourcePoint" />
            <mxPoint x="135" y="210" as="targetPoint" />
            <Array as="points">
              <mxPoint x="135" y="210" />
            </Array>
          </mxGeometry>
        </mxCell>
        <mxCell id="B7P5BvmUTEmdP2yeqLHe-17" value="&lt;span style=&quot;font-size: 26px;&quot;&gt;Enable AND Z6.trigger=1 AND I9=1&lt;/span&gt;" style="text;whiteSpace=wrap;html=1;" parent="1" vertex="1">
          <mxGeometry x="145" y="190" width="435" height="50" as="geometry" />
        </mxCell>
        <mxCell id="B7P5BvmUTEmdP2yeqLHe-18" value="" style="endArrow=none;html=1;rounded=0;entryX=0.5;entryY=1;entryDx=0;entryDy=0;exitX=0.5;exitY=0;exitDx=0;exitDy=0;" parent="1" edge="1">
          <mxGeometry width="50" height="50" relative="1" as="geometry">
            <mxPoint x="110" y="410" as="sourcePoint" />
            <mxPoint x="110" y="330" as="targetPoint" />
          </mxGeometry>
        </mxCell>
        <mxCell id="B7P5BvmUTEmdP2yeqLHe-19" value="" style="endArrow=none;html=1;rounded=0;exitX=1;exitY=0.5;exitDx=0;exitDy=0;" parent="1" edge="1">
          <mxGeometry width="50" height="50" relative="1" as="geometry">
            <mxPoint x="85" y="370" as="sourcePoint" />
            <mxPoint x="135" y="370" as="targetPoint" />
            <Array as="points">
              <mxPoint x="135" y="370" />
            </Array>
          </mxGeometry>
        </mxCell>
        <mxCell id="B7P5BvmUTEmdP2yeqLHe-20" value="&lt;span style=&quot;font-size: 26px;&quot;&gt;I9=F_Trig() AND Tritardo=1&lt;/span&gt;" style="text;whiteSpace=wrap;html=1;" parent="1" vertex="1">
          <mxGeometry x="145" y="350" width="395" height="50" as="geometry" />
        </mxCell>
        <mxCell id="B7P5BvmUTEmdP2yeqLHe-26" value="" style="endArrow=classic;html=1;rounded=0;entryX=0;entryY=0.5;entryDx=0;entryDy=0;" parent="1" target="B7P5BvmUTEmdP2yeqLHe-1" edge="1">
          <mxGeometry width="50" height="50" relative="1" as="geometry">
            <mxPoint x="110" y="550" as="sourcePoint" />
            <mxPoint x="20" y="130" as="targetPoint" />
            <Array as="points">
              <mxPoint x="70" y="550" />
              <mxPoint x="30" y="550" />
              <mxPoint x="30" y="130" />
            </Array>
          </mxGeometry>
        </mxCell>
        <mxCell id="B7P5BvmUTEmdP2yeqLHe-28" value="" style="endArrow=classic;html=1;rounded=0;exitX=0.5;exitY=1;exitDx=0;exitDy=0;" parent="1" source="B7P5BvmUTEmdP2yeqLHe-3" edge="1">
          <mxGeometry width="50" height="50" relative="1" as="geometry">
            <mxPoint x="85" y="560" as="sourcePoint" />
            <mxPoint x="110" y="550" as="targetPoint" />
          </mxGeometry>
        </mxCell>
        <mxCell id="p-WWocQoswPiRKzb-H0t-1" value="" style="endArrow=none;html=1;rounded=0;exitX=1;exitY=0.5;exitDx=0;exitDy=0;" parent="1" edge="1">
          <mxGeometry width="50" height="50" relative="1" as="geometry">
            <mxPoint x="85" y="520" as="sourcePoint" />
            <mxPoint x="135" y="520" as="targetPoint" />
            <Array as="points">
              <mxPoint x="135" y="520" />
            </Array>
          </mxGeometry>
        </mxCell>
        <mxCell id="p-WWocQoswPiRKzb-H0t-2" value="&lt;span style=&quot;font-size: 26px;&quot;&gt;Tonscarico=1&amp;nbsp;&lt;/span&gt;" style="text;whiteSpace=wrap;html=1;" parent="1" vertex="1">
          <mxGeometry x="150" y="500" width="395" height="50" as="geometry" />
        </mxCell>
        <mxCell id="tW6fBgLOQEgpidQM1_ii-1" value="&lt;font style=&quot;font-size: 36px;&quot;&gt;Emergenza&lt;/font&gt;" style="text;html=1;strokeColor=none;fillColor=none;align=center;verticalAlign=middle;whiteSpace=wrap;rounded=0;" parent="1" vertex="1">
          <mxGeometry x="690" y="10" width="265" height="50" as="geometry" />
        </mxCell>
        <mxCell id="tW6fBgLOQEgpidQM1_ii-2" value="" style="endArrow=none;html=1;rounded=0;exitX=1;exitY=0.5;exitDx=0;exitDy=0;" parent="1" edge="1">
          <mxGeometry width="50" height="50" relative="1" as="geometry">
            <mxPoint x="780" y="220" as="sourcePoint" />
            <mxPoint x="830" y="220" as="targetPoint" />
            <Array as="points">
              <mxPoint x="830" y="220" />
            </Array>
          </mxGeometry>
        </mxCell>
        <mxCell id="tW6fBgLOQEgpidQM1_ii-3" value="" style="endArrow=none;html=1;rounded=0;exitX=0.5;exitY=0;exitDx=0;exitDy=0;" parent="1" edge="1">
          <mxGeometry width="50" height="50" relative="1" as="geometry">
            <mxPoint x="807" y="260" as="sourcePoint" />
            <mxPoint x="807" y="170" as="targetPoint" />
          </mxGeometry>
        </mxCell>
        <mxCell id="tW6fBgLOQEgpidQM1_ii-4" value="&lt;br&gt;&lt;span style=&quot;color: rgb(0, 0, 0); font-family: Helvetica; font-size: 48px; font-style: normal; font-variant-ligatures: normal; font-variant-caps: normal; font-weight: 400; letter-spacing: normal; orphans: 2; text-align: center; text-indent: 0px; text-transform: none; widows: 2; word-spacing: 0px; -webkit-text-stroke-width: 0px; background-color: rgb(251, 251, 251); text-decoration-thickness: initial; text-decoration-style: initial; text-decoration-color: initial; float: none; display: inline !important;&quot;&gt;SE&lt;/span&gt;" style="whiteSpace=wrap;html=1;aspect=fixed;" parent="1" vertex="1">
          <mxGeometry x="770" y="260" width="80" height="80" as="geometry" />
        </mxCell>
        <mxCell id="tW6fBgLOQEgpidQM1_ii-5" value="" style="endArrow=none;html=1;rounded=0;exitX=1;exitY=0.5;exitDx=0;exitDy=0;" parent="1" edge="1">
          <mxGeometry width="50" height="50" relative="1" as="geometry">
            <mxPoint x="850" y="300" as="sourcePoint" />
            <mxPoint x="900" y="300" as="targetPoint" />
            <Array as="points">
              <mxPoint x="900" y="300" />
            </Array>
          </mxGeometry>
        </mxCell>
        <mxCell id="tW6fBgLOQEgpidQM1_ii-6" value="&lt;br&gt;&lt;span style=&quot;color: rgb(0, 0, 0); font-family: Helvetica; font-size: 26px; font-style: normal; font-variant-ligatures: normal; font-variant-caps: normal; font-weight: 400; letter-spacing: normal; orphans: 2; text-align: left; text-indent: 0px; text-transform: none; widows: 2; word-spacing: 0px; -webkit-text-stroke-width: 0px; background-color: rgb(251, 251, 251); text-decoration-thickness: initial; text-decoration-style: initial; text-decoration-color: initial; float: none; display: inline !important;&quot;&gt;Q10=0&amp;nbsp;&lt;/span&gt;" style="rounded=0;whiteSpace=wrap;html=1;align=left;" parent="1" vertex="1">
          <mxGeometry x="900" y="260" width="340" height="75" as="geometry" />
        </mxCell>
        <mxCell id="tW6fBgLOQEgpidQM1_ii-7" value="" style="endArrow=classic;html=1;rounded=0;exitX=0.5;exitY=1;exitDx=0;exitDy=0;" parent="1" source="tW6fBgLOQEgpidQM1_ii-4" edge="1">
          <mxGeometry width="50" height="50" relative="1" as="geometry">
            <mxPoint x="620" y="410" as="sourcePoint" />
            <mxPoint x="810" y="410" as="targetPoint" />
          </mxGeometry>
        </mxCell>
        <mxCell id="tW6fBgLOQEgpidQM1_ii-8" value="&lt;span style=&quot;color: rgb(0, 0, 0); font-family: Helvetica; font-size: 48px; font-style: normal; font-variant-ligatures: normal; font-variant-caps: normal; font-weight: 400; letter-spacing: normal; orphans: 2; text-align: center; text-indent: 0px; text-transform: none; widows: 2; word-spacing: 0px; -webkit-text-stroke-width: 0px; background-color: rgb(251, 251, 251); text-decoration-thickness: initial; text-decoration-style: initial; text-decoration-color: initial; float: none; display: inline !important;&quot;&gt;S0&lt;/span&gt;" style="text;whiteSpace=wrap;html=1;" parent="1" vertex="1">
          <mxGeometry x="780" y="410" width="90" height="80" as="geometry" />
        </mxCell>
        <mxCell id="tW6fBgLOQEgpidQM1_ii-9" value="&lt;br&gt;&lt;span style=&quot;color: rgb(0, 0, 0); font-family: Helvetica; font-size: 48px; font-style: normal; font-variant-ligatures: normal; font-variant-caps: normal; font-weight: 400; letter-spacing: normal; orphans: 2; text-align: center; text-indent: 0px; text-transform: none; widows: 2; word-spacing: 0px; -webkit-text-stroke-width: 0px; background-color: rgb(251, 251, 251); text-decoration-thickness: initial; text-decoration-style: initial; text-decoration-color: initial; float: none; display: inline !important;&quot;&gt;S2&lt;/span&gt;" style="whiteSpace=wrap;html=1;aspect=fixed;" parent="1" vertex="1">
          <mxGeometry x="860" y="70" width="80" height="80" as="geometry" />
        </mxCell>
        <mxCell id="tW6fBgLOQEgpidQM1_ii-10" value="&lt;br&gt;&lt;span style=&quot;color: rgb(0, 0, 0); font-family: Helvetica; font-size: 48px; font-style: normal; font-variant-ligatures: normal; font-variant-caps: normal; font-weight: 400; letter-spacing: normal; orphans: 2; text-align: center; text-indent: 0px; text-transform: none; widows: 2; word-spacing: 0px; -webkit-text-stroke-width: 0px; background-color: rgb(251, 251, 251); text-decoration-thickness: initial; text-decoration-style: initial; text-decoration-color: initial; float: none; display: inline !important;&quot;&gt;S0&lt;/span&gt;" style="whiteSpace=wrap;html=1;aspect=fixed;" parent="1" vertex="1">
          <mxGeometry x="690" y="70" width="80" height="80" as="geometry" />
        </mxCell>
        <mxCell id="tW6fBgLOQEgpidQM1_ii-11" value="" style="shape=link;html=1;rounded=0;" parent="1" edge="1">
          <mxGeometry width="100" relative="1" as="geometry">
            <mxPoint x="660" y="169.60000000000002" as="sourcePoint" />
            <mxPoint x="960" y="169.60000000000002" as="targetPoint" />
          </mxGeometry>
        </mxCell>
        <mxCell id="tW6fBgLOQEgpidQM1_ii-12" value="" style="endArrow=classic;html=1;rounded=0;exitX=0.5;exitY=1;exitDx=0;exitDy=0;" parent="1" source="tW6fBgLOQEgpidQM1_ii-10" edge="1">
          <mxGeometry width="50" height="50" relative="1" as="geometry">
            <mxPoint x="770" y="180" as="sourcePoint" />
            <mxPoint x="730" y="170" as="targetPoint" />
          </mxGeometry>
        </mxCell>
        <mxCell id="tW6fBgLOQEgpidQM1_ii-13" value="" style="endArrow=classic;html=1;rounded=0;exitX=0.5;exitY=1;exitDx=0;exitDy=0;" parent="1" edge="1">
          <mxGeometry width="50" height="50" relative="1" as="geometry">
            <mxPoint x="899.89" y="150" as="sourcePoint" />
            <mxPoint x="899.89" y="170" as="targetPoint" />
          </mxGeometry>
        </mxCell>
        <mxCell id="tW6fBgLOQEgpidQM1_ii-14" value="&lt;span style=&quot;font-size: 29px;&quot;&gt;...&lt;/span&gt;" style="text;html=1;strokeColor=none;fillColor=none;align=center;verticalAlign=middle;whiteSpace=wrap;rounded=0;" parent="1" vertex="1">
          <mxGeometry x="780" y="90" width="60" height="30" as="geometry" />
        </mxCell>
        <mxCell id="tW6fBgLOQEgpidQM1_ii-15" value="&lt;span style=&quot;font-size: 26px;&quot;&gt;NOT Enable OR Emg&lt;/span&gt;" style="text;whiteSpace=wrap;html=1;" parent="1" vertex="1">
          <mxGeometry x="850" y="200" width="515" height="50" as="geometry" />
        </mxCell>
        <mxCell id="tW6fBgLOQEgpidQM1_ii-16" value="" style="endArrow=none;html=1;rounded=0;exitX=1;exitY=0.5;exitDx=0;exitDy=0;" parent="1" edge="1">
          <mxGeometry width="50" height="50" relative="1" as="geometry">
            <mxPoint x="780" y="375" as="sourcePoint" />
            <mxPoint x="830" y="375" as="targetPoint" />
            <Array as="points">
              <mxPoint x="830" y="375" />
            </Array>
          </mxGeometry>
        </mxCell>
        <mxCell id="tW6fBgLOQEgpidQM1_ii-17" value="&lt;span style=&quot;font-size: 26px;&quot;&gt;Enable AND NOT Emg&lt;/span&gt;" style="text;whiteSpace=wrap;html=1;" parent="1" vertex="1">
          <mxGeometry x="850" y="355" width="515" height="50" as="geometry" />
        </mxCell>
      </root>
    </mxGraphModel>
  </diagram>
</mxfile>
